<svg xmlns="http://www.w3.org/2000/svg" xmlns:xlink="http://www.w3.org/1999/xlink" width="500" zoomAndPan="magnify" viewBox="0 0 375 374.999991" height="500" preserveAspectRatio="xMidYMid meet" version="1.0"><defs><clipPath id="230030cbc9"><path d="M 35.703125 37.5 L 339.453125 37.5 L 339.453125 332.25 L 35.703125 332.25 Z M 35.703125 37.5 " clip-rule="nonzero"/></clipPath></defs><rect x="-37.5" width="450" fill="#ffffff" y="-37.499999" height="449.999989" fill-opacity="1"/><rect x="-37.5" width="450" fill="#ffffff" y="-37.499999" height="449.999989" fill-opacity="1"/><path fill="#a356a2" d="M 200.554688 42.289062 C 200.550781 42.308594 200.546875 42.324219 200.527344 42.34375 C 200.546875 42.324219 200.550781 42.304688 200.5625 42.28125 Z M 200.554688 42.289062 " fill-opacity="1" fill-rule="nonzero"/><g clip-path="url(#230030cbc9)"><path fill="#a356a2" d="M 339.261719 181.535156 C 339.050781 179.394531 338.675781 177.277344 338.164062 175.210938 C 337.15625 171.066406 335.582031 167.164062 333.808594 163.4375 C 332.015625 159.71875 330.027344 156.191406 327.9375 152.722656 C 326.890625 150.976562 325.378906 148.667969 324.363281 146.503906 C 323.332031 144.339844 322.890625 142.265625 322.988281 140.90625 C 322.988281 140.714844 323.082031 140.234375 323.246094 139.660156 C 323.3125 139.375 323.429688 139.054688 323.542969 138.738281 L 323.714844 138.265625 C 323.773438 138.121094 323.84375 137.878906 323.90625 137.695312 C 324.421875 136.121094 324.933594 134.859375 324.949219 135.46875 C 324.921875 134.40625 324.988281 133.207031 324.3125 134.265625 C 323.769531 135.113281 323.636719 132.941406 323.757812 132.652344 C 325.121094 129.320312 323.957031 126.078125 324.445312 122.949219 C 324.476562 122.746094 324.441406 122.355469 324.382812 122.328125 C 324.277344 122.277344 324.035156 122.410156 324.019531 122.515625 C 323.941406 122.957031 323.960938 123.425781 323.917969 123.882812 C 323.808594 125.34375 323.855469 126.902344 323.65625 128.261719 C 323.574219 128.9375 323.03125 128.761719 323.15625 127.324219 C 323.21875 126.550781 323.449219 125.738281 323.449219 125.0625 C 323.449219 123.125 323.914062 120.699219 324.484375 118.738281 C 324.765625 117.757812 325.0625 116.882812 325.285156 116.21875 C 325.527344 115.515625 325.6875 115.019531 325.6875 114.847656 C 325.84375 108.707031 327.765625 109.570312 328.96875 107.867188 L 329.527344 106.738281 C 329.648438 105.957031 329.753906 105.152344 329.847656 104.328125 L 329.667969 102.992188 L 329.441406 101.628906 C 328.925781 101.496094 328.679688 101.050781 328.601562 100.421875 C 328.496094 99.769531 328.542969 98.921875 328.652344 97.988281 C 328.789062 96.089844 329.039062 93.730469 328.582031 92.109375 C 328.484375 91.816406 328.367188 90.84375 328.144531 89.898438 C 327.957031 88.960938 327.914062 88.027344 328.265625 87.808594 L 327.324219 85.566406 C 326.941406 84.855469 326.535156 84.160156 326.132812 83.46875 C 325.625 82.546875 324.824219 81.863281 324.167969 81.09375 C 323.453125 80.382812 322.792969 79.667969 322.40625 78.589844 C 321.613281 77.785156 320.835938 77 320 76.253906 C 318.007812 75.023438 316.128906 73.675781 314.519531 72.066406 L 316.054688 72.964844 L 315.203125 72.0625 C 314.972656 72.066406 314.75 72.058594 314.320312 71.960938 L 313.375 71.390625 C 312.757812 71.1875 312.507812 71 312.417969 70.816406 C 309.296875 69.039062 306.078125 67.527344 302.820312 66.226562 C 299.558594 64.902344 296.292969 63.765625 292.972656 62.675781 L 292.148438 62.542969 C 290.21875 63.839844 287.117188 62.203125 284.644531 62.167969 C 283.855469 62.15625 283.039062 62.046875 282.253906 61.992188 L 280.84375 62.09375 C 280.308594 62.144531 279.769531 62.195312 278.164062 62.230469 C 274.113281 62 270.246094 61.652344 266.65625 60.808594 C 264.210938 60.277344 261.925781 59.265625 259.769531 57.871094 C 257.320312 56.363281 254.382812 54.6875 252.566406 52.019531 L 252.207031 51.578125 C 251.898438 51.285156 251.585938 50.988281 251.277344 50.699219 C 248.855469 48.871094 246.28125 46.933594 243.417969 45.238281 L 242.796875 44.890625 C 242.078125 44.367188 241.367188 43.847656 240.652344 43.332031 C 239.949219 42.78125 239.195312 42.285156 238.414062 41.816406 C 238.03125 41.589844 237.632812 41.335938 237.242188 41.15625 C 236.851562 40.980469 236.457031 40.816406 236.054688 40.671875 C 235.25 40.378906 234.417969 40.160156 233.554688 40.066406 C 230.257812 39.863281 228.460938 39.347656 226.792969 37.96875 L 225.019531 37.765625 L 223.210938 37.722656 C 222.808594 38.261719 222.039062 38.226562 221.148438 38.066406 C 220.253906 37.96875 219.222656 37.789062 218.402344 37.886719 C 216.179688 38.15625 213.175781 38.75 210.625 39.445312 C 209.347656 39.789062 208.210938 40.226562 207.269531 40.5 C 206.332031 40.777344 205.679688 41.082031 205.347656 41.144531 C 203.46875 41.53125 201.710938 42.273438 199.949219 43.070312 C 198.269531 43.960938 196.585938 44.914062 195.0625 46.039062 C 191.960938 48.230469 189.179688 50.730469 186.527344 53.109375 C 183.792969 55.515625 180.34375 58.671875 178.394531 61.527344 C 177.203125 63.234375 176.179688 64.953125 174.855469 66.652344 C 173.519531 68.351562 171.71875 70.078125 170.882812 70.097656 C 169.96875 72.089844 168.402344 74.464844 166.554688 76.597656 C 163.953125 81.101562 161.996094 85.28125 160.628906 89.234375 C 160.386719 89.925781 160.179688 90.640625 159.59375 91.527344 C 159.289062 91.992188 158.910156 92.484375 158.496094 92.984375 C 155.078125 96.414062 151.5625 99.429688 147.875 101.761719 C 147.546875 101.96875 147.214844 102.164062 146.882812 102.363281 C 146.640625 102.25 146.378906 102.148438 146.085938 102.078125 C 145.113281 101.835938 143.871094 101.910156 142.03125 102.269531 C 141.125 102.464844 140.089844 102.769531 138.84375 103.109375 C 137.621094 103.492188 136.199219 103.933594 134.546875 104.453125 C 130.566406 105.722656 126.117188 106.839844 122.65625 106.9375 C 122.421875 106.9375 122.210938 106.933594 121.988281 106.933594 C 120.832031 107.15625 119.683594 107.40625 118.5625 107.789062 C 116.421875 108.539062 120.542969 106.617188 118.359375 107.109375 C 115.472656 107.765625 112.613281 108.742188 109.675781 109.550781 C 107.828125 110.0625 104.953125 111.019531 104.191406 110.925781 C 103.382812 110.808594 102.648438 110.839844 101.953125 110.933594 C 100.609375 111.386719 99.242188 111.847656 97.90625 112.300781 C 97.246094 112.59375 96.574219 112.875 95.871094 113.078125 C 95.394531 113.222656 94.917969 113.339844 94.441406 113.5 C 92.871094 114.109375 91.304688 114.640625 89.746094 115.382812 L 87.40625 116.417969 C 86.632812 116.773438 85.835938 117.074219 85.097656 117.511719 C 83.605469 118.324219 82.105469 119.140625 80.605469 119.957031 C 79.179688 120.886719 77.746094 121.820312 76.308594 122.757812 C 70.703125 126.699219 65.609375 131.460938 61.066406 136.945312 L 59.832031 138.191406 C 59.4375 138.621094 59.0625 139.070312 58.671875 139.507812 C 57.898438 140.394531 57.117188 141.285156 56.335938 142.179688 C 55.570312 143.089844 54.867188 144.042969 54.121094 144.984375 C 53.390625 145.933594 52.617188 146.867188 51.957031 147.863281 C 48.046875 155.300781 44.042969 162.945312 41.339844 170.878906 C 40.84375 172.25 40.421875 173.683594 39.976562 175.152344 C 39.527344 176.617188 39.082031 178.121094 38.6875 179.664062 C 37.871094 182.730469 37.003906 185.921875 36.40625 189.453125 C 36.113281 191.214844 35.886719 193.035156 35.816406 194.925781 C 35.746094 196.796875 35.796875 198.777344 36.132812 200.675781 L 36.644531 203.488281 C 36.867188 204.414062 37.175781 205.320312 37.4375 206.234375 C 37.671875 207.164062 38.066406 208.023438 38.425781 208.898438 C 38.789062 209.773438 39.128906 210.660156 39.597656 211.460938 C 41.488281 215.222656 44.070312 218.597656 46.957031 221.421875 C 49.839844 224.265625 52.976562 226.664062 56.148438 228.707031 C 60.429688 231.457031 65.054688 233.75 69.296875 236.246094 C 71.417969 237.507812 73.414062 238.785156 75.152344 240.261719 C 75.585938 240.636719 76.011719 241.007812 76.4375 241.378906 C 76.84375 241.765625 77.222656 242.171875 77.605469 242.574219 C 78.375 243.363281 79.042969 244.222656 79.648438 245.085938 C 81.894531 248.335938 82.996094 251.734375 85.328125 255.101562 C 86.25 256.511719 87.214844 257.511719 88.046875 258.84375 C 89.835938 261.621094 90.929688 264.949219 91.335938 268.421875 C 91.554688 270.15625 91.582031 271.929688 91.480469 273.703125 L 91.375 275.035156 L 91.246094 276.425781 C 91.152344 277.417969 91.027344 278.402344 90.941406 279.414062 C 90.5625 283.433594 90.289062 287.652344 90.757812 292.070312 C 90.96875 294.273438 91.457031 296.519531 92.125 298.726562 C 92.515625 299.820312 92.910156 300.921875 93.40625 301.976562 C 93.941406 303.019531 94.425781 304.085938 95.097656 305.042969 C 94.976562 302.90625 96.117188 303.9375 97.273438 305.363281 C 98.472656 306.773438 99.886719 308.546875 100.039062 308.433594 C 99.507812 308.792969 99.039062 309.234375 98.421875 309.480469 C 98.339844 309.511719 98.214844 309.484375 98.125 309.5 C 98.867188 310.355469 99.582031 311.222656 100.15625 311.753906 C 101.609375 313.09375 101.324219 312.449219 101.035156 311.785156 C 100.742188 311.113281 100.449219 310.425781 101.78125 311.574219 C 102.304688 312.023438 102.765625 312.460938 103.179688 312.894531 C 103.613281 313.304688 104.007812 313.695312 104.375 314.09375 C 104.742188 314.492188 105.085938 314.890625 105.425781 315.292969 C 105.777344 315.671875 106.125 316.042969 106.484375 316.425781 C 106.804688 316.738281 107.578125 317.671875 108.421875 318.457031 C 109.257812 319.257812 110.132812 320.046875 110.570312 320.28125 C 110.84375 320.414062 111.054688 320.464844 111.316406 320.582031 C 111.6875 320.746094 112.09375 321.011719 112.484375 321.246094 C 113.410156 321.816406 114.121094 322.128906 114.675781 322.320312 C 115.226562 322.515625 115.621094 322.582031 115.953125 322.597656 C 116.613281 322.625 117.019531 322.445312 117.921875 322.550781 C 118.359375 322.605469 118.753906 322.625 119.164062 322.660156 L 119.648438 323.503906 L 120.113281 323.933594 C 122.457031 326.035156 124.960938 326.617188 127.410156 326.886719 C 128.628906 327.019531 129.832031 327.152344 131.089844 327.285156 C 132.320312 327.464844 133.554688 327.761719 134.851562 328.28125 C 135.378906 328.492188 136.347656 328.742188 136.976562 328.851562 C 136.367188 329.101562 136.871094 329.527344 137.871094 329.90625 C 138.367188 330.09375 138.984375 330.265625 139.644531 330.394531 C 140.300781 330.515625 141 330.566406 141.648438 330.558594 C 141.386719 330.5625 141.925781 330.761719 142.070312 330.792969 C 143.550781 330.738281 142.554688 329.886719 143.238281 329.875 C 144.542969 329.820312 145.972656 330.800781 146.707031 330.722656 C 150 330.261719 152.894531 330.910156 156.128906 331.050781 C 157.894531 331.152344 158.695312 331.183594 158.777344 331.730469 C 159.421875 331.800781 160.0625 331.871094 160.492188 332.003906 C 160.976562 331.964844 161.417969 331.96875 161.894531 331.921875 C 162.574219 331.769531 163.167969 331.726562 163.691406 331.769531 C 177.417969 330.535156 190.566406 327.355469 203.753906 321.980469 C 205.683594 321.15625 207.652344 320.332031 209.511719 319.59375 C 210.667969 319.160156 211.78125 318.789062 212.929688 318.273438 C 215.515625 317.171875 217.351562 315.921875 219.039062 314.679688 C 219.859375 314.023438 220.660156 313.386719 221.488281 312.726562 C 221.882812 312.414062 222.28125 312.097656 222.695312 311.769531 C 223.085938 311.464844 223.496094 311.15625 223.925781 310.84375 C 224.941406 310.085938 226.222656 309.425781 227.445312 308.71875 C 228.703125 308.0625 229.925781 307.402344 230.925781 306.789062 C 232.695312 305.671875 235.679688 302.59375 238.273438 303.957031 C 240.230469 301.539062 243.703125 300.726562 247.140625 300.074219 C 251.664062 298.34375 254.257812 298.011719 256.929688 297.851562 C 258.019531 297.675781 259.054688 297.585938 259.84375 297.71875 C 260.886719 297.664062 262.125 297.59375 263.5 297.46875 C 264.621094 296.953125 264.890625 296.144531 267.125 296.023438 L 267.679688 295.136719 L 270.558594 294.996094 C 271.558594 294.941406 272.566406 294.878906 273.578125 294.796875 C 272.476562 295.339844 271.320312 295.871094 270.25 296.378906 C 271.742188 296 273.316406 295.558594 274.90625 295.203125 C 277.148438 294.703125 279.46875 294.195312 281.753906 293.523438 L 282.003906 292.476562 C 280.082031 292.40625 281.996094 291.988281 282.964844 291.617188 C 285.964844 290.472656 288.757812 289.285156 291.386719 287.941406 C 294.023438 286.59375 296.527344 285.097656 298.863281 283.359375 C 303.53125 279.871094 307.523438 275.40625 310.632812 269.792969 C 311.757812 267.769531 312.753906 265.8125 313.742188 263.703125 C 314.714844 261.59375 315.625 259.328125 316.195312 256.878906 C 316.785156 254.464844 316.898438 251.726562 316.519531 249.339844 C 316.160156 246.941406 315.503906 244.796875 314.960938 242.742188 C 314.769531 241.992188 314.539062 241.191406 314.457031 240.457031 C 314.410156 240.085938 314.371094 239.710938 314.335938 239.335938 C 314.296875 238.960938 314.359375 238.578125 314.386719 238.207031 C 314.414062 237.929688 314.449219 237.660156 314.488281 237.40625 C 314.550781 237.152344 314.628906 236.90625 314.703125 236.671875 C 314.863281 236.199219 314.988281 235.753906 315.222656 235.332031 C 315.429688 234.917969 315.640625 234.503906 315.855469 234.078125 C 316.101562 233.660156 316.339844 233.230469 316.566406 232.761719 C 317.382812 231.246094 318.226562 229.480469 319.203125 227.789062 C 321.695312 223.46875 325.105469 219.429688 328.164062 214.804688 C 331.125 210.296875 333.972656 205.589844 336.128906 200.429688 C 336.925781 198.484375 337.632812 196.480469 338.179688 194.414062 C 338.707031 192.339844 339.105469 190.214844 339.296875 188.050781 C 339.460938 185.894531 339.472656 183.671875 339.261719 181.535156 Z M 339.261719 181.535156 " fill-opacity="1" fill-rule="nonzero"/></g><path fill="#f05d85" d="M 149.128906 127.808594 C 164.949219 123.792969 180.058594 114.671875 189.117188 101.222656 C 195.890625 91.167969 201.878906 75.761719 213.464844 70.820312 C 217.964844 68.902344 222.792969 67.851562 227.367188 66.117188 C 228.382812 65.734375 229.417969 65.296875 230.183594 64.527344 C 230.953125 63.761719 231.402344 62.578125 231.023438 61.5625 C 230.523438 60.210938 228.890625 59.714844 227.464844 59.492188 C 219.464844 58.234375 211.96875 58.800781 205.03125 63.523438 C 199.03125 67.605469 193.296875 71.875 187.492188 76.21875 C 184.183594 78.691406 180.835938 81.207031 178.300781 84.464844 C 175.207031 88.433594 173.496094 93.265625 171.21875 97.75 C 167.105469 105.84375 159.703125 113.746094 150.664062 115.921875 C 145.589844 117.144531 140.378906 117.042969 135.269531 117.933594 C 131.164062 118.648438 127.65625 120.621094 123.363281 121.144531 C 118.800781 121.695312 114.15625 121.597656 109.667969 122.578125 C 98.835938 124.941406 92.855469 135.019531 87.621094 143.839844 C 80.875 155.207031 73.898438 166.671875 72.734375 180.082031 C 72.644531 181.09375 72.765625 182.398438 73.734375 182.710938 C 74.714844 183.027344 75.578125 182.015625 76.113281 181.136719 C 80.449219 174.019531 84.710938 166.851562 89.125 159.785156 C 92.824219 153.871094 98.363281 149.824219 103.925781 145.679688 C 118.054688 135.152344 132.613281 132.003906 149.128906 127.808594 Z M 149.128906 127.808594 " fill-opacity="1" fill-rule="nonzero"/><path fill="#f05d85" d="M 259.679688 161.925781 C 255.574219 158.40625 247.820312 157.464844 243.191406 160.714844 C 238.5625 165.34375 234.859375 165.726562 228.320312 167.132812 C 226.984375 167.421875 225.332031 168.078125 225.34375 169.445312 C 225.347656 170.390625 226.203125 171.089844 227.027344 171.554688 C 234.289062 175.628906 247.003906 166.878906 251.902344 175.476562 C 253.699219 178.632812 250.46875 185.800781 249.328125 188.683594 C 248.660156 189.5625 248.105469 190.503906 247.59375 191.464844 C 245.933594 193.808594 244.332031 196.304688 242.175781 197.8125 C 238.574219 200.332031 233.003906 199.796875 228.933594 201.542969 C 223.820312 203.738281 219.140625 207.824219 213.996094 210.28125 C 210.726562 210.40625 207.207031 209.785156 204.476562 209.476562 C 200.015625 208.972656 195.699219 208.683594 191.316406 209.886719 C 190.929688 209.992188 190.550781 210.113281 190.171875 210.234375 C 189.238281 210 188.304688 209.765625 187.359375 209.523438 C 175.542969 206.507812 163.90625 207.765625 151.90625 207.957031 C 143.964844 208.085938 138.984375 206.449219 134.242188 202.257812 C 133.710938 200.84375 132.917969 199.578125 132.199219 198.09375 C 130.855469 195.296875 130.304688 192.210938 129.316406 189.289062 C 128.320312 186.355469 126.007812 183.609375 125.394531 180.667969 C 124.917969 178.375 124.945312 175.488281 125.027344 172.816406 C 128.609375 161.675781 137.847656 150.921875 145.441406 144.3125 C 146.003906 143.824219 146.601562 143.230469 147.0625 142.59375 C 147.769531 141.605469 148.144531 140.515625 147.53125 139.535156 C 146.527344 137.921875 144.054688 138.570312 142.382812 139.480469 C 133.042969 144.566406 125.472656 152.347656 117.886719 159.671875 C 113.75 163.667969 109.902344 168.285156 107.183594 173.421875 C 106.710938 173.738281 106.308594 174.179688 106.039062 174.792969 C 101.453125 185.269531 99.039062 195.601562 106.5625 205.089844 C 124.824219 228.117188 156.355469 240.667969 185.277344 240.976562 C 185.695312 240.980469 186.105469 240.980469 186.519531 240.980469 C 204.765625 240.980469 220.757812 236.683594 234.066406 228.195312 C 246.875 220.023438 256.621094 208.117188 262.25 193.757812 C 269.550781 175.121094 264.882812 166.160156 259.679688 161.925781 Z M 259.679688 161.925781 " fill-opacity="1" fill-rule="nonzero"/><path fill="#f05d85" d="M 202.894531 284.492188 C 195.246094 286.089844 188.011719 288.734375 181.019531 291.292969 C 180.015625 291.660156 179.003906 292.019531 177.996094 292.382812 C 164.765625 291.144531 161.441406 283.707031 146.972656 285.582031 C 130.453125 287.722656 134.734375 275.183594 132.59375 264.484375 C 131.378906 258.40625 126.78125 254.246094 122.460938 250.21875 C 120.15625 248.070312 117.878906 246.476562 116.050781 243.816406 C 114.359375 241.355469 112.9375 238.71875 111.046875 236.398438 C 107.089844 231.546875 102.082031 227.628906 96.65625 224.542969 C 95.550781 223.917969 94.105469 223.347656 93.085938 224.109375 C 91.824219 225.050781 92.398438 227.023438 93.085938 228.4375 C 96.195312 234.8125 99.304688 241.191406 102.410156 247.566406 C 105.0625 253 106.53125 258.78125 107.417969 264.773438 C 107.582031 265.886719 107.738281 267.007812 107.898438 268.132812 C 109.335938 278.371094 110.964844 289.980469 118.445312 299.015625 C 125.332031 307.332031 136.488281 312.277344 149.054688 312.585938 C 149.496094 312.597656 149.933594 312.601562 150.375 312.601562 C 160.875 312.601562 170.917969 309.589844 179.414062 306.609375 C 181.542969 305.863281 183.667969 305.085938 185.789062 304.308594 C 192.617188 301.8125 199.070312 299.453125 205.734375 298.058594 C 209.484375 297.273438 211.886719 293.601562 211.101562 289.855469 C 210.316406 286.109375 206.640625 283.707031 202.894531 284.492188 Z M 202.894531 284.492188 " fill-opacity="1" fill-rule="nonzero"/><path fill="#f05d85" d="M 317.816406 161.808594 C 314.539062 151.644531 308.058594 142.691406 299.785156 135.984375 C 295.273438 132.324219 290.34375 130.042969 285.320312 127.265625 C 280.117188 124.390625 275.632812 120.519531 269.535156 119.589844 C 267.75 119.316406 265.382812 119.699219 265.007812 121.46875 C 264.785156 122.519531 265.425781 123.542969 266.035156 124.429688 C 268.09375 127.410156 270.152344 130.386719 272.210938 133.367188 C 276.167969 139.105469 283.351562 140.152344 288.574219 144.210938 C 292.59375 147.328125 292.785156 152.3125 294.773438 156.597656 C 296.6875 160.726562 299.394531 164.542969 297.3125 169.398438 C 294.585938 175.746094 287.894531 181.621094 283.5 186.960938 C 277.054688 194.789062 270.148438 203.125 269.4375 213.539062 C 268.875 221.761719 272.746094 230.324219 269.847656 238.039062 C 267.613281 243.980469 261.785156 247.882812 255.78125 249.945312 C 251.527344 251.402344 246.503906 253.035156 242.035156 253.46875 C 237.230469 253.933594 232.410156 252.902344 227.597656 253.324219 C 223.585938 253.679688 219.726562 255.050781 215.734375 255.59375 C 210.046875 256.367188 204.773438 253.867188 199.058594 253.730469 C 192.449219 253.570312 185.574219 253.214844 179.171875 255.195312 C 172.429688 257.28125 166.082031 261.75 158.691406 259.074219 C 153.222656 257.097656 147.804688 254.699219 143.882812 249.738281 C 143.148438 248.808594 142.457031 247.804688 141.460938 247.167969 C 140.464844 246.527344 139.039062 246.363281 138.152344 247.148438 C 136.976562 248.179688 137.375 250.082031 138.015625 251.507812 C 141.132812 258.425781 147.691406 261.800781 153.425781 266.222656 C 159.09375 270.589844 165.003906 273.964844 172.175781 275.042969 C 183.949219 276.8125 195.347656 273.667969 205.917969 270.011719 C 213.03125 267.550781 221.351562 268.953125 230.703125 270.894531 C 233.265625 271.425781 235.851562 272.195312 238.589844 273.011719 C 242.84375 274.28125 247.214844 275.570312 251.941406 276.113281 C 255.050781 277.03125 258.203125 277.332031 261.621094 276.757812 C 270.902344 275.195312 281.191406 270.878906 287.039062 263.246094 C 292.375 256.285156 294.671875 247.527344 296.054688 239.011719 C 296.894531 233.828125 297.675781 229.171875 299.625 224.273438 C 300.480469 222.121094 301.089844 220 301.464844 217.714844 C 301.628906 216.722656 301.722656 215.640625 301.90625 214.582031 C 303.320312 212.214844 305.027344 209.992188 306.5625 207.660156 C 306.667969 207.558594 306.773438 207.457031 306.878906 207.355469 C 310.863281 203.601562 315.382812 199.34375 317.765625 191.933594 C 320.902344 182.160156 320.921875 171.460938 317.816406 161.808594 Z M 317.816406 161.808594 " fill-opacity="1" fill-rule="nonzero"/><path fill="#f05d85" d="M 227.957031 128.1875 C 221.878906 129.972656 216.515625 133.082031 210.808594 135.738281 C 204.921875 138.484375 199.523438 141.472656 194.09375 145.046875 C 186.25 150.207031 176.835938 153.394531 172.25 162.304688 C 170.917969 164.898438 170.148438 167.738281 169.390625 170.550781 C 168.113281 175.285156 164.65625 181.417969 169.160156 184.765625 C 173.164062 187.742188 177.367188 190.953125 182.699219 190.257812 C 185.886719 189.84375 188.320312 187.863281 191.261719 186.78125 C 194.261719 185.679688 197.449219 185.816406 200.601562 185.886719 C 203.800781 185.957031 207.128906 186 210.304688 186.363281 C 213.234375 186.703125 215.753906 187.578125 218.699219 186.949219 C 219.6875 186.738281 220.183594 185.285156 219.574219 184.5 C 217.285156 181.542969 213.980469 181.183594 210.722656 179.984375 C 208.183594 179.042969 206.558594 176.78125 203.660156 176.65625 C 201.722656 176.574219 199.714844 176.957031 197.882812 176.328125 C 195.769531 175.605469 194.273438 173.613281 193.671875 171.464844 C 193.070312 169.316406 193.25 167.027344 193.648438 164.832031 C 194.671875 159.230469 197.152344 153.90625 200.746094 149.488281 C 204.09375 145.371094 209.410156 142.804688 213.515625 139.371094 C 218.066406 135.5625 223.335938 133.121094 229.011719 131.433594 C 231.121094 130.804688 230.0625 127.570312 227.957031 128.1875 Z M 227.957031 128.1875 " fill-opacity="1" fill-rule="nonzero"/><path fill="#f05d85" d="M 311.261719 105.921875 C 309.445312 103.859375 306.679688 103.230469 304.601562 101.484375 C 302.589844 99.792969 301.96875 97.519531 300.636719 95.355469 C 297.832031 90.789062 293.109375 87.242188 288.234375 85.164062 C 275.738281 79.835938 262.648438 82.65625 249.75 84.578125 C 237.585938 86.394531 225.800781 86.984375 216.265625 95.710938 C 211.140625 100.398438 208.339844 106.824219 203.847656 112 C 202.082031 113.988281 198.660156 115.90625 200.78125 118.660156 C 202.796875 121.277344 205.492188 119.167969 207.46875 117.621094 C 212.199219 113.917969 216.179688 109.382812 220.648438 105.378906 C 221.894531 104.261719 223.152344 103.199219 224.453125 102.21875 C 226.914062 100.90625 229.445312 100.007812 232.410156 99.863281 C 241.160156 99.433594 249.625 101.3125 258.273438 99.199219 C 262.375 98.199219 266.5 96.558594 270.796875 96.976562 C 274.058594 97.296875 277.078125 98.625 279.933594 100.164062 C 285.910156 103.378906 291.96875 106.683594 298.753906 107.816406 C 302.21875 109.796875 306.925781 110.898438 310.46875 109.589844 C 312.117188 108.984375 312.34375 107.148438 311.261719 105.921875 Z M 311.261719 105.921875 " fill-opacity="1" fill-rule="nonzero"/><path fill="#c76bab" d="M 70.054688 146.152344 C 66.320312 150.960938 62.730469 156.996094 63.886719 163.300781 C 64.148438 164.710938 65.730469 165.046875 66.539062 163.855469 C 69.507812 159.464844 71.1875 154.414062 74.496094 150.207031 C 76.882812 147.175781 72.425781 143.101562 70.054688 146.152344 Z M 70.054688 146.152344 " fill-opacity="1" fill-rule="nonzero"/><path fill="#c76bab" d="M 304.847656 119.324219 C 296.863281 112.734375 284.699219 112.039062 275.128906 109.167969 C 271.984375 108.222656 271.035156 113.15625 274.109375 114.140625 C 278.609375 115.582031 282.902344 117.542969 287.386719 119.039062 C 291.820312 120.515625 296.476562 121.488281 300.324219 124.273438 C 303.550781 126.609375 306.222656 129.226562 308.414062 132.5625 C 310.902344 136.351562 312.53125 140.628906 314.992188 144.375 C 315.265625 144.789062 315.96875 144.585938 315.925781 144.070312 C 315.292969 135.800781 311.457031 124.777344 304.847656 119.324219 Z M 304.847656 119.324219 " fill-opacity="1" fill-rule="nonzero"/><path fill="#c76bab" d="M 187.496094 134.390625 C 183.902344 135.660156 180.566406 137.589844 176.953125 138.800781 C 173.425781 139.976562 169.882812 140.359375 166.203125 140.4375 C 158.941406 140.589844 154.363281 146.132812 149.570312 150.980469 C 144.660156 155.949219 138.988281 160.945312 137.300781 168.023438 C 135.792969 174.371094 134.824219 180.792969 136.136719 187.253906 C 136.703125 190.042969 140.925781 188.65625 140.351562 185.886719 C 139.660156 182.550781 139.46875 178.835938 140.371094 175.515625 C 141.269531 172.214844 144.167969 169.519531 146.617188 167.226562 C 151.191406 162.941406 155.800781 158.671875 160.238281 154.242188 C 162.285156 152.199219 164.277344 150.089844 166.339844 148.066406 C 168.734375 145.714844 171.066406 145.085938 174.097656 144.015625 C 179.246094 142.195312 184.203125 139.164062 188.15625 135.414062 C 188.617188 134.976562 188.066406 134.1875 187.496094 134.390625 Z M 187.496094 134.390625 " fill-opacity="1" fill-rule="nonzero"/><path fill="#c76bab" d="M 271.234375 148.640625 C 269.183594 147.542969 266.703125 146.804688 264.976562 145.203125 C 263.683594 144.007812 263.132812 142.230469 261.714844 141.132812 C 260.207031 139.964844 258.464844 139.8125 256.632812 139.71875 C 253.699219 139.570312 250.804688 139.109375 247.882812 138.984375 C 235.839844 138.46875 226.652344 143.421875 217.109375 150.25 C 210.542969 154.949219 203.515625 164.03125 210.210938 171.492188 C 212.046875 173.535156 214.785156 170.398438 213.0625 168.371094 C 210.609375 165.484375 211.722656 162.957031 214.683594 161.449219 C 216.101562 160.730469 217.785156 160.429688 219.242188 159.675781 C 222.789062 157.839844 225.988281 155.378906 229.386719 153.289062 C 235.914062 149.273438 242.691406 147.984375 250.097656 146.566406 C 254.019531 145.8125 257.125 144.910156 259.832031 148.097656 C 261.382812 149.921875 263.324219 151.28125 265.425781 152.40625 C 267.882812 153.71875 270.808594 154.378906 272.980469 156.183594 C 276.242188 158.898438 276.605469 162.949219 276.59375 166.902344 C 276.585938 168.703125 279.066406 168.988281 279.855469 167.585938 C 284.269531 159.746094 277.957031 152.242188 271.234375 148.640625 Z M 271.234375 148.640625 " fill-opacity="1" fill-rule="nonzero"/><path fill="#c76bab" d="M 246.988281 232.894531 C 243.472656 235.632812 239.402344 238.09375 235.3125 239.871094 C 231.730469 241.429688 227.992188 242.648438 224.804688 244.984375 C 224.292969 245.359375 224.414062 246.164062 225.054688 246.316406 C 234.042969 248.457031 243.339844 241.625 249.664062 236.066406 C 251.429688 234.511719 248.851562 231.4375 246.988281 232.894531 Z M 246.988281 232.894531 " fill-opacity="1" fill-rule="nonzero"/><path fill="#c76bab" d="M 118.875 226.90625 C 111.851562 221.15625 106.261719 214.769531 102.03125 206.730469 C 100.125 203.117188 97.78125 199.714844 95.320312 196.453125 C 93.902344 194.574219 93.359375 193.515625 93.519531 191.058594 C 93.632812 189.277344 94.28125 188.054688 93.679688 186.378906 C 93.585938 186.117188 93.347656 185.851562 93.054688 185.820312 C 89.144531 185.414062 86.023438 189.578125 85.253906 193.027344 C 84.054688 198.398438 87.417969 203.320312 90.554688 207.335938 C 94 211.75 98.539062 214.910156 102.902344 218.347656 C 107.519531 221.980469 112.011719 225.753906 116.765625 229.214844 C 118.355469 230.375 120.460938 228.203125 118.875 226.90625 Z M 118.875 226.90625 " fill-opacity="1" fill-rule="nonzero"/><path fill="#fac74e" d="M 124.867188 148.273438 C 120.75 146.109375 116.125 144.777344 111.472656 144.0625 C 111.464844 143.8125 111.460938 143.5625 111.449219 143.316406 C 111.332031 140.613281 111.007812 137.917969 110.433594 135.277344 C 110.164062 134.035156 109.875 131.792969 109.09375 130.390625 C 108.898438 130.035156 108.667969 129.734375 108.398438 129.519531 C 107.125 128.492188 105.914062 130.226562 105.378906 131.203125 C 103.347656 134.917969 102.054688 139.039062 101.214844 143.257812 C 99.828125 143.226562 98.441406 143.226562 97.054688 143.296875 C 95.25 143.390625 93.347656 143.519531 91.59375 143.988281 C 90.621094 144.246094 86.953125 144.777344 87.019531 146.253906 C 87.035156 146.601562 87.355469 146.851562 87.65625 147.035156 C 89.472656 148.140625 91.367188 148.9375 93.386719 149.597656 C 95.589844 150.3125 97.824219 150.9375 100.085938 151.453125 C 100.03125 152.089844 99.980469 152.726562 99.933594 153.355469 C 99.621094 157.789062 99.382812 162.25 99.738281 166.6875 C 99.910156 168.882812 100.226562 171.074219 100.808594 173.199219 C 101.023438 173.972656 101.253906 175.542969 101.828125 176.128906 C 102.476562 176.789062 103.714844 176.367188 104.304688 175.84375 C 106.222656 174.152344 106.945312 171.125 107.679688 168.792969 C 108.5625 165.988281 109.3125 163.144531 109.910156 160.265625 C 109.964844 160.003906 110.019531 159.742188 110.070312 159.476562 C 110.5 157.320312 110.84375 155.140625 111.089844 152.949219 C 113.464844 153.035156 115.847656 152.957031 118.207031 152.65625 C 120.335938 152.382812 123.660156 152.167969 125.472656 150.875 C 125.492188 150.863281 125.507812 150.847656 125.527344 150.835938 C 125.902344 150.558594 126.1875 150.113281 126.144531 149.652344 C 126.085938 149 125.445312 148.578125 124.867188 148.273438 Z M 124.867188 148.273438 " fill-opacity="1" fill-rule="nonzero"/><path fill="#fac74e" d="M 76.839844 197.265625 C 76.914062 197.199219 76.984375 197.128906 77.046875 197.054688 C 77.167969 196.914062 77.257812 196.75 77.277344 196.570312 C 77.316406 196.152344 76.777344 195.941406 76.496094 195.730469 C 73.988281 193.886719 70.390625 193.148438 67.015625 192.867188 C 66.867188 191.078125 66.523438 189.3125 65.929688 187.613281 C 65.609375 186.699219 65.355469 185.855469 65.191406 184.902344 C 65.183594 184.859375 65.175781 184.8125 65.167969 184.765625 C 65.058594 184.070312 64.707031 183.285156 64.015625 183.144531 C 63.585938 183.054688 63.136719 183.25 62.820312 183.554688 C 62.503906 183.855469 62.296875 184.253906 62.105469 184.648438 C 60.894531 187.136719 60.191406 189.890625 59.84375 192.738281 C 58.648438 192.769531 57.453125 192.835938 56.261719 192.957031 C 55.207031 193.0625 49.761719 193.855469 50.507812 195.707031 C 50.914062 196.71875 52.820312 197.195312 53.742188 197.535156 C 55.621094 198.226562 57.613281 198.75 59.628906 199.105469 C 59.773438 202.355469 60.265625 205.582031 60.933594 208.539062 C 61.0625 209.113281 61.210938 209.703125 61.554688 210.179688 C 61.898438 210.660156 62.492188 211.007812 63.070312 210.898438 C 63.882812 210.746094 64.285156 209.847656 64.546875 209.0625 C 65.070312 207.492188 65.179688 205.96875 65.613281 204.414062 C 66.054688 202.832031 66.457031 201.257812 66.722656 199.640625 C 68.109375 199.609375 69.492188 199.507812 70.863281 199.3125 C 71.785156 199.179688 72.664062 198.972656 73.550781 198.742188 C 74.824219 198.40625 75.820312 198.210938 76.839844 197.265625 Z M 76.839844 197.265625 " fill-opacity="1" fill-rule="nonzero"/><path fill="#fac74e" d="M 324.894531 179.578125 C 322.386719 177.730469 318.789062 176.992188 315.414062 176.710938 C 315.265625 174.925781 314.921875 173.15625 314.328125 171.460938 C 314.007812 170.542969 313.75 169.699219 313.589844 168.746094 C 313.582031 168.703125 313.574219 168.65625 313.566406 168.613281 C 313.457031 167.914062 313.105469 167.132812 312.414062 166.988281 C 311.984375 166.898438 311.535156 167.09375 311.21875 167.398438 C 310.902344 167.703125 310.691406 168.097656 310.5 168.492188 C 309.292969 170.984375 308.589844 173.734375 308.242188 176.582031 C 307.046875 176.613281 305.851562 176.679688 304.660156 176.800781 C 303.605469 176.90625 298.160156 177.699219 298.90625 179.554688 C 299.3125 180.5625 301.21875 181.039062 302.140625 181.378906 C 304.015625 182.074219 306.007812 182.59375 308.027344 182.949219 C 308.171875 186.203125 308.664062 189.425781 309.332031 192.382812 C 309.460938 192.960938 309.609375 193.546875 309.953125 194.027344 C 310.296875 194.503906 310.886719 194.851562 311.46875 194.742188 C 312.28125 194.589844 312.683594 193.691406 312.945312 192.90625 C 313.46875 191.335938 313.578125 189.816406 314.011719 188.261719 C 314.453125 186.675781 314.855469 185.101562 315.121094 183.484375 C 316.507812 183.453125 317.890625 183.351562 319.261719 183.15625 C 320.183594 183.023438 321.058594 182.820312 321.949219 182.585938 C 323.21875 182.25 324.21875 182.058594 325.238281 181.113281 C 325.308594 181.046875 325.382812 180.976562 325.445312 180.898438 C 325.5625 180.757812 325.65625 180.597656 325.675781 180.414062 C 325.714844 180 325.175781 179.785156 324.894531 179.578125 Z M 324.894531 179.578125 " fill-opacity="1" fill-rule="nonzero"/><path fill="#fac74e" d="M 217.4375 297.414062 C 214.925781 295.566406 211.332031 294.828125 207.957031 294.546875 C 207.804688 292.761719 207.464844 290.992188 206.871094 289.296875 C 206.550781 288.378906 206.292969 287.535156 206.128906 286.582031 C 206.121094 286.539062 206.113281 286.492188 206.109375 286.449219 C 205.996094 285.75 205.648438 284.96875 204.957031 284.824219 C 204.527344 284.734375 204.074219 284.929688 203.757812 285.234375 C 203.441406 285.539062 203.234375 285.933594 203.042969 286.332031 C 201.835938 288.820312 201.128906 291.570312 200.785156 294.417969 C 199.589844 294.453125 198.394531 294.519531 197.203125 294.636719 C 196.148438 294.742188 190.703125 295.535156 191.449219 297.390625 C 191.855469 298.398438 193.761719 298.875 194.679688 299.214844 C 196.558594 299.910156 198.550781 300.429688 200.570312 300.785156 C 200.714844 304.039062 201.207031 307.261719 201.875 310.21875 C 202.003906 310.796875 202.152344 311.382812 202.496094 311.863281 C 202.839844 312.339844 203.429688 312.6875 204.007812 312.582031 C 204.820312 312.429688 205.226562 311.527344 205.488281 310.742188 C 206.007812 309.171875 206.121094 307.652344 206.554688 306.097656 C 206.996094 304.515625 207.398438 302.9375 207.664062 301.320312 C 209.046875 301.289062 210.429688 301.191406 211.804688 300.992188 C 212.722656 300.863281 213.601562 300.65625 214.492188 300.421875 C 215.761719 300.085938 216.761719 299.894531 217.78125 298.949219 C 217.851562 298.882812 217.921875 298.8125 217.984375 298.738281 C 218.105469 298.59375 218.199219 298.433594 218.214844 298.25 C 218.257812 297.835938 217.71875 297.621094 217.4375 297.414062 Z M 217.4375 297.414062 " fill-opacity="1" fill-rule="nonzero"/><path fill="#fac74e" d="M 261.730469 100.160156 C 258.519531 97.796875 253.917969 96.855469 249.601562 96.496094 C 249.410156 94.210938 248.972656 91.945312 248.214844 89.773438 C 247.804688 88.601562 247.472656 87.523438 247.265625 86.304688 C 247.257812 86.246094 247.246094 86.1875 247.238281 86.132812 C 247.09375 85.238281 246.648438 84.238281 245.761719 84.054688 C 245.210938 83.9375 244.636719 84.191406 244.230469 84.578125 C 243.824219 84.964844 243.558594 85.476562 243.316406 85.980469 C 241.769531 89.164062 240.867188 92.6875 240.425781 96.328125 C 238.894531 96.371094 237.367188 96.453125 235.84375 96.609375 C 234.492188 96.746094 227.527344 97.757812 228.480469 100.132812 C 228.996094 101.421875 231.4375 102.03125 232.613281 102.46875 C 235.019531 103.355469 237.566406 104.023438 240.148438 104.476562 C 240.335938 108.640625 240.964844 112.761719 241.816406 116.546875 C 241.984375 117.285156 242.171875 118.039062 242.613281 118.648438 C 243.054688 119.261719 243.808594 119.707031 244.550781 119.566406 C 245.589844 119.371094 246.105469 118.21875 246.441406 117.21875 C 247.109375 115.207031 247.25 113.261719 247.804688 111.273438 C 248.371094 109.246094 248.886719 107.230469 249.226562 105.160156 C 251 105.121094 252.769531 104.992188 254.523438 104.742188 C 255.699219 104.574219 256.824219 104.308594 257.960938 104.007812 C 259.589844 103.582031 260.867188 103.332031 262.167969 102.125 C 262.261719 102.042969 262.351562 101.949219 262.433594 101.851562 C 262.585938 101.671875 262.707031 101.464844 262.730469 101.230469 C 262.78125 100.699219 262.09375 100.429688 261.730469 100.160156 Z M 261.730469 100.160156 " fill-opacity="1" fill-rule="nonzero"/><path fill="#fac74e" d="M 170.601562 171.257812 C 166.277344 170.550781 161.832031 172.933594 160.554688 177.210938 C 159.382812 181.136719 161.027344 185.84375 164.734375 187.800781 C 168.914062 190.003906 174.699219 188.359375 176.921875 184.136719 C 178.167969 181.769531 178.164062 179.230469 177.25 177.121094 C 176.691406 174.1875 173.671875 171.757812 170.601562 171.257812 Z M 170.601562 171.257812 " fill-opacity="1" fill-rule="nonzero"/><path fill="#fac74e" d="M 294.476562 237.164062 C 288.300781 236.152344 281.953125 239.558594 280.128906 245.667969 C 278.453125 251.277344 280.804688 258.003906 286.097656 260.796875 C 292.070312 263.945312 300.335938 261.597656 303.507812 255.566406 C 305.289062 252.183594 305.28125 248.550781 303.980469 245.542969 C 303.183594 241.351562 298.867188 237.878906 294.476562 237.164062 Z M 294.476562 237.164062 " fill-opacity="1" fill-rule="nonzero"/><path fill="#fac74e" d="M 78.367188 207.035156 C 77.363281 206.964844 76.367188 207.335938 75.640625 208.011719 C 74.871094 208.371094 74.242188 208.953125 73.867188 209.820312 C 73.308594 211.101562 73.355469 212.5625 74.128906 213.753906 C 75.398438 215.699219 78.269531 216.3125 80.167969 214.925781 C 82.066406 213.535156 82.679688 210.832031 81.382812 208.816406 C 80.703125 207.765625 79.601562 207.125 78.367188 207.035156 Z M 78.367188 207.035156 " fill-opacity="1" fill-rule="nonzero"/><path fill="#fac74e" d="M 87.722656 184.257812 C 87.777344 184.257812 87.773438 184.171875 87.71875 184.171875 C 87.664062 184.171875 87.667969 184.257812 87.722656 184.257812 Z M 87.722656 184.257812 " fill-opacity="1" fill-rule="nonzero"/><path fill="#fac74e" d="M 261.914062 125.753906 C 261.96875 125.753906 261.964844 125.667969 261.90625 125.667969 C 261.851562 125.667969 261.855469 125.753906 261.914062 125.753906 Z M 261.914062 125.753906 " fill-opacity="1" fill-rule="nonzero"/><path fill="#fac74e" d="M 247.910156 261.132812 C 246.308594 261.789062 244.886719 263.121094 244.585938 264.894531 C 244.269531 266.773438 245.265625 268.730469 247.027344 269.511719 C 248.929688 270.351562 250.992188 269.667969 252.070312 267.914062 C 252.988281 266.414062 252.65625 264.71875 251.644531 263.414062 C 251.378906 261.796875 249.535156 260.464844 247.910156 261.132812 Z M 247.910156 261.132812 " fill-opacity="1" fill-rule="nonzero"/><path fill="#fac74e" d="M 160.183594 299.988281 C 159.566406 299.199219 158.726562 298.796875 157.574219 298.746094 C 156.253906 298.6875 154.910156 299.445312 154.089844 300.4375 C 153.058594 301.6875 152.730469 303.304688 153.191406 304.855469 C 153.523438 305.964844 154.554688 306.757812 155.675781 306.945312 C 155.988281 307.117188 156.320312 307.265625 156.679688 307.351562 C 160.648438 308.300781 163.324219 302.6875 160.316406 300.082031 C 160.277344 300.046875 160.226562 300.023438 160.183594 299.988281 Z M 160.183594 299.988281 " fill-opacity="1" fill-rule="nonzero"/><path fill="#fac74e" d="M 267.34375 76.613281 C 267.050781 76.15625 266.625 75.824219 266.148438 75.621094 C 264.828125 74.613281 263.054688 74.179688 261.34375 74.664062 C 258.484375 75.480469 256.964844 78.90625 257.867188 81.65625 C 258.785156 84.460938 262.050781 85.800781 264.761719 84.847656 C 264.765625 84.847656 264.765625 84.847656 264.765625 84.847656 C 265.074219 84.738281 265.363281 84.597656 265.636719 84.433594 C 266.820312 83.738281 267.625 82.617188 267.996094 81.347656 C 268.117188 80.945312 268.199219 80.523438 268.230469 80.09375 C 268.242188 79.914062 268.238281 79.734375 268.230469 79.558594 C 268.230469 79.558594 268.230469 79.554688 268.230469 79.554688 C 268.226562 79.4375 268.21875 79.324219 268.207031 79.210938 C 268.132812 78.304688 267.855469 77.40625 267.34375 76.613281 Z M 267.34375 76.613281 " fill-opacity="1" fill-rule="nonzero"/><path fill="#fac74e" d="M 198.84375 98.90625 C 201.53125 98.855469 203.863281 96.78125 204.058594 94.082031 C 204.128906 93.128906 203.957031 92.226562 203.609375 91.414062 C 203.382812 90.570312 202.957031 89.785156 202.328125 89.160156 C 200.558594 87.40625 197.710938 87.269531 195.667969 88.628906 C 193.636719 89.972656 192.679688 92.6875 193.367188 95.011719 C 194.078125 97.417969 196.367188 98.957031 198.84375 98.90625 Z M 198.84375 98.90625 " fill-opacity="1" fill-rule="nonzero"/><path fill="#fac74e" d="M 93.730469 183.605469 C 93.601562 183.605469 93.613281 183.808594 93.742188 183.808594 C 93.875 183.808594 93.863281 183.605469 93.730469 183.605469 Z M 93.730469 183.605469 " fill-opacity="1" fill-rule="nonzero"/></svg>