<svg xmlns="http://www.w3.org/2000/svg" xmlns:xlink="http://www.w3.org/1999/xlink" width="500" zoomAndPan="magnify" viewBox="0 0 375 374.999991" height="500" preserveAspectRatio="xMidYMid meet" version="1.0"><defs><clipPath id="d996df09b5"><path d="M 169 272 L 192 272 L 192 320.355469 L 169 320.355469 Z M 169 272 " clip-rule="nonzero"/></clipPath><clipPath id="98b5f43bfe"><path d="M 174 223 L 186 223 L 186 248.910156 L 174 248.910156 Z M 174 223 " clip-rule="nonzero"/></clipPath><clipPath id="08d53299f3"><path d="M 230 179 L 255.566406 179 L 255.566406 196 L 230 196 Z M 230 179 " clip-rule="nonzero"/></clipPath></defs><rect x="-37.5" width="450" fill="#ffffff" y="-37.499999" height="449.999989" fill-opacity="1"/><rect x="-37.5" width="450" fill="#ffffff" y="-37.499999" height="449.999989" fill-opacity="1"/><path fill="#fac74e" d="M 261.066406 250.527344 C 255.996094 229.355469 250.789062 208.167969 244.378906 187.367188 C 256.378906 178.996094 268.300781 170.519531 280.21875 162.050781 C 288.546875 156.136719 289.882812 140.695312 277.609375 137.953125 C 259.152344 133.84375 240.515625 130.828125 221.703125 128.902344 C 218.117188 121.707031 214.21875 114.691406 209.9375 107.871094 C 200.453125 92.78125 190.003906 79.546875 171.289062 77.3125 C 165.265625 76.574219 160.460938 81.722656 158.503906 86.699219 C 153.199219 100.226562 147.894531 113.75 142.589844 127.269531 C 123.375 128.464844 104.300781 130.796875 85.367188 134.265625 C 73.285156 136.484375 73.335938 151.949219 81.632812 158.136719 L 119.34375 186.390625 C 116.601562 193.371094 113.859375 200.359375 111.113281 207.351562 C 106.417969 216.578125 101.820312 225.859375 97.320312 235.199219 C 96.734375 236.40625 96.324219 237.671875 96.097656 238.996094 C 95.667969 239.820312 95.320312 240.679688 95.058594 241.570312 C 92.511719 250.097656 96.121094 258.386719 103.984375 262.496094 C 113.238281 267.335938 122.40625 262.296875 130.730469 258.011719 C 146.980469 249.636719 162.851562 240.523438 178.433594 230.964844 C 198.492188 246.476562 219.65625 261.941406 244.628906 266.304688 C 254.191406 267.953125 263.578125 261.019531 261.066406 250.527344 Z M 261.066406 250.527344 " fill-opacity="1" fill-rule="nonzero"/><g clip-path="url(#d996df09b5)"><path fill="#f05d85" d="M 191.097656 309.902344 C 190.515625 301 190.273438 292.09375 190.363281 283.191406 C 190.5 269.703125 169.511719 269.304688 169.375 282.855469 C 169.285156 291.777344 169.53125 300.683594 170.113281 309.566406 C 170.484375 315.222656 174.445312 320.132812 180.441406 320.230469 C 185.753906 320.320312 191.472656 315.585938 191.097656 309.902344 Z M 191.097656 309.902344 " fill-opacity="1" fill-rule="nonzero"/></g><path fill="#f05d85" d="M 314.285156 199.445312 C 305.695312 197.054688 297.203125 194.339844 288.8125 191.304688 C 276.109375 186.730469 268.820312 206.390625 281.539062 211 C 289.925781 214.03125 298.417969 216.746094 307.011719 219.144531 C 312.46875 220.660156 318.40625 218.574219 320.488281 212.921875 C 322.328125 207.929688 319.75 200.972656 314.285156 199.445312 Z M 314.285156 199.445312 " fill-opacity="1" fill-rule="nonzero"/><path fill="#f05d85" d="M 255.417969 73.964844 C 250.832031 81.621094 245.960938 89.085938 240.804688 96.363281 C 233.011719 107.367188 250.0625 119.664062 257.871094 108.582031 C 263.03125 101.300781 267.898438 93.835938 272.484375 86.1875 C 275.394531 81.328125 274.933594 75.039062 270.0625 71.542969 C 265.746094 68.445312 258.351562 69.082031 255.417969 73.964844 Z M 255.417969 73.964844 " fill-opacity="1" fill-rule="nonzero"/><path fill="#f05d85" d="M 131.226562 94.5625 C 124.40625 88.804688 117.824219 82.796875 111.476562 76.53125 C 101.871094 67.074219 87.039062 81.902344 96.664062 91.40625 C 103.027344 97.667969 109.609375 103.679688 116.414062 109.433594 C 120.742188 113.09375 127.027344 113.652344 131.261719 109.433594 C 135.019531 105.636719 135.574219 98.238281 131.226562 94.5625 Z M 131.226562 94.5625 " fill-opacity="1" fill-rule="nonzero"/><path fill="#f05d85" d="M 77.214844 190.140625 C 68.5 191.988281 59.71875 193.503906 50.863281 194.6875 C 37.5 196.449219 40.085938 217.28125 53.523438 215.488281 C 62.367188 214.3125 71.148438 212.796875 79.875 210.941406 C 85.417969 209.769531 89.707031 205.152344 88.96875 199.199219 C 88.289062 193.941406 82.785156 188.957031 77.214844 190.140625 Z M 77.214844 190.140625 " fill-opacity="1" fill-rule="nonzero"/><path fill="#c76bab" d="M 223.128906 211.730469 C 220.429688 200.453125 217.65625 189.167969 214.242188 178.089844 C 220.632812 173.632812 226.984375 169.121094 233.332031 164.609375 C 237.765625 161.457031 238.476562 153.234375 231.941406 151.777344 C 222.109375 149.585938 212.183594 147.980469 202.167969 146.953125 C 200.257812 143.121094 198.179688 139.386719 195.902344 135.753906 C 190.847656 127.71875 185.285156 120.667969 175.316406 119.480469 C 172.109375 119.085938 169.550781 121.828125 168.507812 124.480469 C 165.683594 131.683594 162.859375 138.886719 160.03125 146.085938 C 149.800781 146.722656 139.640625 147.964844 129.558594 149.8125 C 123.121094 150.992188 123.148438 159.226562 127.570312 162.523438 L 147.652344 177.570312 C 146.195312 181.289062 144.734375 185.011719 143.269531 188.734375 C 140.769531 193.648438 138.320312 198.589844 135.921875 203.566406 C 135.609375 204.207031 135.394531 204.882812 135.273438 205.585938 C 135.042969 206.027344 134.859375 206.484375 134.71875 206.957031 C 133.363281 211.5 135.285156 215.914062 139.472656 218.101562 C 144.402344 220.679688 149.285156 217.996094 153.71875 215.714844 C 162.371094 211.253906 170.824219 206.402344 179.121094 201.308594 C 189.804688 209.570312 201.078125 217.808594 214.375 220.132812 C 219.46875 221.007812 224.46875 217.316406 223.128906 211.730469 Z M 223.128906 211.730469 " fill-opacity="1" fill-rule="nonzero"/><g clip-path="url(#98b5f43bfe)"><path fill="#fac74e" d="M 185.867188 243.351562 C 185.558594 238.609375 185.425781 233.867188 185.476562 229.125 C 185.546875 221.941406 174.371094 221.730469 174.296875 228.945312 C 174.25 233.699219 174.378906 238.441406 174.691406 243.171875 C 174.886719 246.183594 176.996094 248.796875 180.191406 248.851562 C 183.019531 248.898438 186.066406 246.378906 185.867188 243.351562 Z M 185.867188 243.351562 " fill-opacity="1" fill-rule="nonzero"/></g><g clip-path="url(#08d53299f3)"><path fill="#fac74e" d="M 251.472656 184.523438 C 246.898438 183.25 242.375 181.804688 237.90625 180.1875 C 231.140625 177.753906 227.257812 188.222656 234.03125 190.675781 C 238.5 192.292969 243.023438 193.738281 247.597656 195.015625 C 250.503906 195.824219 253.667969 194.710938 254.777344 191.699219 C 255.757812 189.042969 254.382812 185.335938 251.472656 184.523438 Z M 251.472656 184.523438 " fill-opacity="1" fill-rule="nonzero"/></g><path fill="#fac74e" d="M 220.121094 117.695312 C 217.679688 121.773438 215.085938 125.75 212.339844 129.625 C 208.191406 135.484375 217.269531 142.035156 221.429688 136.132812 C 224.175781 132.253906 226.769531 128.28125 229.210938 124.207031 C 230.761719 121.621094 230.515625 118.269531 227.921875 116.40625 C 225.621094 114.757812 221.683594 115.097656 220.121094 117.695312 Z M 220.121094 117.695312 " fill-opacity="1" fill-rule="nonzero"/><path fill="#fac74e" d="M 153.980469 128.664062 C 150.347656 125.601562 146.84375 122.398438 143.464844 119.066406 C 138.347656 114.027344 130.449219 121.925781 135.574219 126.984375 C 138.964844 130.320312 142.46875 133.523438 146.09375 136.585938 C 148.398438 138.535156 151.746094 138.832031 154 136.585938 C 156 134.566406 156.296875 130.625 153.980469 128.664062 Z M 153.980469 128.664062 " fill-opacity="1" fill-rule="nonzero"/><path fill="#fac74e" d="M 125.21875 179.570312 C 120.578125 180.554688 115.898438 181.359375 111.183594 181.988281 C 104.066406 182.929688 105.441406 194.023438 112.597656 193.066406 C 117.308594 192.441406 121.988281 191.632812 126.632812 190.648438 C 129.585938 190.023438 131.871094 187.5625 131.476562 184.394531 C 131.113281 181.59375 128.183594 178.9375 125.21875 179.570312 Z M 125.21875 179.570312 " fill-opacity="1" fill-rule="nonzero"/></svg>