<svg xmlns="http://www.w3.org/2000/svg" xmlns:xlink="http://www.w3.org/1999/xlink" width="500" zoomAndPan="magnify" viewBox="0 0 375 374.999991" height="500" preserveAspectRatio="xMidYMid meet" version="1.0"><defs><clipPath id="7fc6cb871c"><path d="M 60.335938 65 L 314.585938 65 L 314.585938 310 L 60.335938 310 Z M 60.335938 65 " clip-rule="nonzero"/></clipPath><clipPath id="e317fe1d68"><path d="M 81.640625 85 L 293.140625 85 L 293.140625 290 L 81.640625 290 Z M 81.640625 85 " clip-rule="nonzero"/></clipPath><clipPath id="3d5715b10d"><path d="M 114 117 L 260.996094 117 L 260.996094 258.765625 L 114 258.765625 Z M 114 117 " clip-rule="nonzero"/></clipPath><clipPath id="77fd031c3b"><path d="M 106 148 L 129 148 L 129 176.800781 L 106 176.800781 Z M 106 148 " clip-rule="nonzero"/></clipPath><clipPath id="16d66fc89d"><path d="M 161 119 L 168.75 119 L 168.75 129 L 161 129 Z M 161 119 " clip-rule="nonzero"/></clipPath><clipPath id="36ea018557"><path d="M 113 101.800781 L 122 101.800781 L 122 112 L 113 112 Z M 113 101.800781 " clip-rule="nonzero"/></clipPath><clipPath id="cac20fa652"><path d="M 214 254 L 236 254 L 236 282.941406 L 214 282.941406 Z M 214 254 " clip-rule="nonzero"/></clipPath><clipPath id="67f891c4b5"><path d="M 269 225 L 275.941406 225 L 275.941406 235 L 269 235 Z M 269 225 " clip-rule="nonzero"/></clipPath><clipPath id="53b1d6b3d9"><path d="M 203.191406 237 L 209 237 L 209 246 L 203.191406 246 Z M 203.191406 237 " clip-rule="nonzero"/></clipPath><clipPath id="1ff0f4b36a"><path d="M 220 207.941406 L 229 207.941406 L 229 219 L 220 219 Z M 220 207.941406 " clip-rule="nonzero"/></clipPath></defs><rect x="-37.5" width="450" fill="#ffffff" y="-37.499999" height="449.999989" fill-opacity="1"/><rect x="-37.5" width="450" fill="#ffffff" y="-37.499999" height="449.999989" fill-opacity="1"/><g clip-path="url(#7fc6cb871c)"><path fill="#dc2028" d="M 201.433594 74.027344 L 205.863281 70.46875 C 206.222656 70.179688 206.59375 69.902344 206.96875 69.636719 C 207.34375 69.371094 207.730469 69.117188 208.121094 68.875 C 208.515625 68.632812 208.914062 68.402344 209.320312 68.183594 C 209.726562 67.96875 210.140625 67.761719 210.558594 67.570312 C 210.976562 67.378906 211.402344 67.203125 211.832031 67.035156 C 212.261719 66.871094 212.699219 66.71875 213.136719 66.582031 C 213.578125 66.441406 214.019531 66.316406 214.46875 66.207031 C 214.914062 66.097656 215.363281 66 215.820312 65.917969 C 216.273438 65.832031 216.726562 65.765625 217.183594 65.710938 C 217.640625 65.65625 218.101562 65.613281 218.5625 65.585938 C 219.019531 65.5625 219.480469 65.550781 219.941406 65.550781 C 220.402344 65.554688 220.863281 65.570312 221.324219 65.601562 C 221.78125 65.632812 222.242188 65.675781 222.699219 65.734375 C 223.15625 65.796875 223.609375 65.867188 224.0625 65.957031 C 224.515625 66.042969 224.964844 66.144531 225.410156 66.257812 C 225.855469 66.375 226.296875 66.503906 226.734375 66.644531 C 227.175781 66.789062 227.609375 66.945312 228.035156 67.113281 C 228.464844 67.285156 228.886719 67.464844 229.304688 67.660156 C 229.722656 67.855469 230.132812 68.066406 230.539062 68.285156 C 230.941406 68.507812 231.339844 68.742188 231.730469 68.988281 C 232.121094 69.234375 232.5 69.492188 232.875 69.761719 C 233.25 70.03125 233.613281 70.308594 233.972656 70.601562 C 234.328125 70.894531 234.675781 71.195312 235.011719 71.511719 C 235.351562 71.824219 235.679688 72.148438 235.996094 72.480469 C 236.316406 72.816406 236.621094 73.160156 236.917969 73.511719 C 237.214844 73.863281 237.5 74.226562 237.777344 74.597656 C 238.050781 74.96875 238.3125 75.347656 238.5625 75.734375 C 238.816406 76.121094 239.054688 76.515625 239.28125 76.917969 C 239.507812 77.320312 239.722656 77.726562 239.921875 78.140625 C 240.125 78.558594 240.3125 78.976562 240.488281 79.40625 C 240.664062 79.832031 240.824219 80.261719 240.972656 80.699219 C 241.121094 81.136719 241.257812 81.578125 241.378906 82.023438 L 242.878906 87.511719 C 243.210938 88.730469 243.640625 89.910156 244.171875 91.054688 C 244.707031 92.199219 245.328125 93.292969 246.046875 94.332031 C 246.761719 95.371094 247.5625 96.339844 248.441406 97.242188 C 249.324219 98.148438 250.273438 98.96875 251.292969 99.710938 C 252.3125 100.453125 253.390625 101.105469 254.519531 101.664062 C 255.648438 102.226562 256.816406 102.683594 258.027344 103.046875 C 259.234375 103.410156 260.464844 103.664062 261.714844 103.820312 C 262.964844 103.972656 264.222656 104.019531 265.480469 103.957031 L 271.15625 103.691406 C 271.617188 103.667969 272.078125 103.660156 272.539062 103.667969 C 273 103.671875 273.457031 103.695312 273.917969 103.730469 C 274.378906 103.765625 274.835938 103.8125 275.292969 103.878906 C 275.746094 103.941406 276.203125 104.019531 276.652344 104.109375 C 277.105469 104.203125 277.554688 104.308594 278 104.425781 C 278.441406 104.546875 278.882812 104.679688 279.320312 104.828125 C 279.757812 104.972656 280.191406 105.132812 280.617188 105.308594 C 281.042969 105.480469 281.464844 105.667969 281.878906 105.867188 C 282.296875 106.066406 282.703125 106.277344 283.105469 106.503906 C 283.507812 106.730469 283.902344 106.964844 284.292969 107.214844 C 284.679688 107.464844 285.058594 107.726562 285.429688 108 C 285.800781 108.273438 286.164062 108.558594 286.519531 108.851562 C 286.871094 109.148438 287.214844 109.453125 287.550781 109.769531 C 287.886719 110.085938 288.210938 110.414062 288.527344 110.75 C 288.839844 111.089844 289.144531 111.433594 289.4375 111.789062 C 289.730469 112.148438 290.011719 112.511719 290.285156 112.882812 C 290.554688 113.257812 290.8125 113.640625 291.0625 114.027344 C 291.308594 114.417969 291.542969 114.816406 291.765625 115.21875 C 291.988281 115.621094 292.199219 116.03125 292.394531 116.449219 C 292.59375 116.867188 292.777344 117.289062 292.949219 117.71875 C 293.121094 118.144531 293.277344 118.578125 293.421875 119.015625 C 293.566406 119.457031 293.699219 119.898438 293.816406 120.34375 C 293.933594 120.789062 294.035156 121.238281 294.125 121.691406 C 294.214844 122.144531 294.289062 122.601562 294.351562 123.058594 C 294.414062 123.515625 294.460938 123.972656 294.492188 124.433594 C 294.523438 124.894531 294.542969 125.355469 294.546875 125.816406 C 294.554688 126.277344 294.542969 126.738281 294.519531 127.199219 C 294.496094 127.660156 294.457031 128.121094 294.402344 128.578125 C 294.351562 129.035156 294.285156 129.492188 294.203125 129.949219 C 294.125 130.402344 294.027344 130.851562 293.921875 131.300781 C 293.8125 131.75 293.691406 132.195312 293.554688 132.636719 C 293.417969 133.078125 293.269531 133.511719 293.105469 133.945312 L 291.09375 139.261719 C 290.648438 140.441406 290.304688 141.652344 290.0625 142.890625 C 289.824219 144.132812 289.6875 145.382812 289.65625 146.644531 C 289.628906 147.90625 289.703125 149.160156 289.886719 150.410156 C 290.070312 151.660156 290.355469 152.886719 290.746094 154.085938 C 291.132812 155.289062 291.621094 156.445312 292.207031 157.566406 C 292.792969 158.683594 293.46875 159.742188 294.234375 160.746094 C 295 161.75 295.84375 162.683594 296.765625 163.542969 C 297.6875 164.402344 298.675781 165.179688 299.730469 165.871094 L 304.472656 168.996094 C 304.859375 169.25 305.238281 169.515625 305.605469 169.789062 C 305.972656 170.066406 306.335938 170.355469 306.683594 170.652344 C 307.035156 170.953125 307.378906 171.261719 307.710938 171.582031 C 308.042969 171.902344 308.363281 172.234375 308.675781 172.574219 C 308.988281 172.914062 309.285156 173.261719 309.578125 173.621094 C 309.867188 173.980469 310.144531 174.347656 310.414062 174.722656 C 310.679688 175.097656 310.933594 175.480469 311.179688 175.875 C 311.421875 176.265625 311.652344 176.664062 311.871094 177.070312 C 312.089844 177.476562 312.296875 177.886719 312.492188 178.308594 C 312.683594 178.726562 312.863281 179.152344 313.03125 179.582031 C 313.199219 180.011719 313.351562 180.445312 313.492188 180.886719 C 313.632812 181.324219 313.757812 181.769531 313.871094 182.214844 C 313.984375 182.664062 314.085938 183.113281 314.167969 183.566406 C 314.253906 184.019531 314.324219 184.476562 314.382812 184.933594 C 314.4375 185.390625 314.480469 185.851562 314.511719 186.3125 C 314.539062 186.773438 314.554688 187.234375 314.554688 187.695312 C 314.554688 188.15625 314.539062 188.617188 314.511719 189.078125 C 314.480469 189.539062 314.4375 189.996094 314.382812 190.453125 C 314.324219 190.914062 314.253906 191.367188 314.167969 191.820312 C 314.085938 192.277344 313.984375 192.726562 313.871094 193.171875 C 313.757812 193.621094 313.632812 194.0625 313.492188 194.503906 C 313.351562 194.941406 313.199219 195.378906 313.03125 195.808594 C 312.863281 196.238281 312.683594 196.664062 312.492188 197.082031 C 312.296875 197.5 312.089844 197.914062 311.871094 198.320312 C 311.652344 198.722656 311.421875 199.125 311.179688 199.515625 C 310.933594 199.90625 310.679688 200.289062 310.414062 200.667969 C 310.144531 201.042969 309.867188 201.410156 309.578125 201.769531 C 309.289062 202.125 308.988281 202.476562 308.675781 202.816406 C 308.363281 203.15625 308.042969 203.484375 307.710938 203.804688 C 307.378906 204.125 307.035156 204.4375 306.683594 204.734375 C 306.335938 205.035156 305.972656 205.320312 305.605469 205.597656 C 305.238281 205.875 304.859375 206.140625 304.472656 206.390625 L 299.730469 209.515625 C 298.675781 210.207031 297.6875 210.984375 296.765625 211.847656 C 295.84375 212.707031 295 213.636719 294.234375 214.640625 C 293.46875 215.644531 292.792969 216.707031 292.207031 217.824219 C 291.621094 218.941406 291.132812 220.101562 290.746094 221.300781 C 290.355469 222.503906 290.070312 223.726562 289.886719 224.976562 C 289.703125 226.226562 289.628906 227.480469 289.65625 228.746094 C 289.6875 230.007812 289.824219 231.257812 290.0625 232.496094 C 290.304688 233.734375 290.648438 234.945312 291.09375 236.125 L 293.105469 241.445312 C 293.269531 241.875 293.417969 242.3125 293.554688 242.753906 C 293.691406 243.195312 293.8125 243.636719 293.921875 244.085938 C 294.027344 244.535156 294.125 244.988281 294.203125 245.441406 C 294.285156 245.894531 294.351562 246.351562 294.402344 246.808594 C 294.457031 247.269531 294.496094 247.726562 294.519531 248.1875 C 294.542969 248.648438 294.554688 249.109375 294.546875 249.570312 C 294.542969 250.035156 294.523438 250.496094 294.492188 250.953125 C 294.460938 251.414062 294.414062 251.875 294.351562 252.332031 C 294.289062 252.789062 294.214844 253.242188 294.125 253.695312 C 294.035156 254.148438 293.933594 254.597656 293.816406 255.042969 C 293.699219 255.492188 293.566406 255.933594 293.421875 256.371094 C 293.277344 256.808594 293.121094 257.242188 292.949219 257.671875 C 292.777344 258.097656 292.59375 258.523438 292.394531 258.9375 C 292.199219 259.355469 291.988281 259.765625 291.765625 260.171875 C 291.542969 260.574219 291.308594 260.972656 291.0625 261.359375 C 290.8125 261.75 290.554688 262.128906 290.285156 262.503906 C 290.011719 262.878906 289.730469 263.242188 289.4375 263.597656 C 289.144531 263.953125 288.839844 264.300781 288.527344 264.636719 C 288.210938 264.972656 287.886719 265.300781 287.550781 265.617188 C 287.214844 265.933594 286.871094 266.242188 286.519531 266.535156 C 286.164062 266.832031 285.800781 267.117188 285.429688 267.390625 C 285.058594 267.660156 284.679688 267.921875 284.292969 268.171875 C 283.902344 268.421875 283.507812 268.660156 283.105469 268.882812 C 282.703125 269.109375 282.296875 269.320312 281.878906 269.523438 C 281.464844 269.722656 281.042969 269.90625 280.617188 270.082031 C 280.191406 270.253906 279.757812 270.414062 279.320312 270.5625 C 278.882812 270.707031 278.441406 270.84375 278 270.960938 C 277.554688 271.082031 277.105469 271.1875 276.652344 271.277344 C 276.203125 271.371094 275.746094 271.449219 275.292969 271.511719 C 274.835938 271.574219 274.378906 271.625 273.917969 271.660156 C 273.457031 271.695312 273 271.714844 272.539062 271.722656 C 272.078125 271.730469 271.617188 271.722656 271.15625 271.699219 L 265.480469 271.429688 C 264.222656 271.371094 262.964844 271.417969 261.714844 271.570312 C 260.464844 271.722656 259.234375 271.980469 258.027344 272.339844 C 256.816406 272.703125 255.648438 273.164062 254.519531 273.722656 C 253.390625 274.285156 252.3125 274.933594 251.292969 275.675781 C 250.273438 276.417969 249.324219 277.242188 248.441406 278.144531 C 247.5625 279.046875 246.761719 280.019531 246.046875 281.058594 C 245.328125 282.097656 244.707031 283.1875 244.171875 284.332031 C 243.640625 285.476562 243.210938 286.660156 242.878906 287.875 L 241.378906 293.367188 C 241.257812 293.8125 241.121094 294.253906 240.972656 294.6875 C 240.824219 295.125 240.664062 295.558594 240.488281 295.984375 C 240.3125 296.410156 240.125 296.832031 239.925781 297.246094 C 239.722656 297.664062 239.507812 298.070312 239.28125 298.472656 C 239.054688 298.875 238.816406 299.269531 238.566406 299.65625 C 238.316406 300.042969 238.050781 300.421875 237.777344 300.792969 C 237.503906 301.164062 237.21875 301.527344 236.921875 301.878906 C 236.625 302.230469 236.316406 302.574219 236 302.910156 C 235.683594 303.242188 235.355469 303.566406 235.015625 303.882812 C 234.679688 304.195312 234.332031 304.496094 233.972656 304.789062 C 233.617188 305.082031 233.253906 305.363281 232.878906 305.632812 C 232.503906 305.902344 232.121094 306.160156 231.730469 306.40625 C 231.34375 306.652344 230.945312 306.886719 230.539062 307.105469 C 230.136719 307.328125 229.726562 307.535156 229.308594 307.730469 C 228.890625 307.929688 228.46875 308.109375 228.039062 308.28125 C 227.609375 308.449219 227.175781 308.605469 226.738281 308.75 C 226.300781 308.890625 225.859375 309.019531 225.414062 309.136719 C 224.964844 309.25 224.515625 309.351562 224.0625 309.441406 C 223.613281 309.527344 223.15625 309.601562 222.699219 309.660156 C 222.242188 309.71875 221.785156 309.765625 221.324219 309.792969 C 220.867188 309.824219 220.40625 309.84375 219.945312 309.84375 C 219.484375 309.847656 219.023438 309.835938 218.5625 309.808594 C 218.101562 309.78125 217.644531 309.742188 217.1875 309.6875 C 216.730469 309.632812 216.273438 309.5625 215.820312 309.480469 C 215.367188 309.398438 214.917969 309.300781 214.46875 309.191406 C 214.023438 309.078125 213.578125 308.953125 213.140625 308.816406 C 212.699219 308.679688 212.265625 308.527344 211.835938 308.359375 C 211.402344 308.195312 210.980469 308.015625 210.558594 307.824219 C 210.140625 307.632812 209.726562 307.429688 209.320312 307.210938 C 208.914062 306.996094 208.515625 306.765625 208.121094 306.523438 C 207.730469 306.28125 207.347656 306.027344 206.96875 305.761719 C 206.59375 305.496094 206.222656 305.21875 205.863281 304.929688 L 201.433594 301.371094 C 200.449219 300.582031 199.40625 299.878906 198.304688 299.265625 C 197.199219 298.65625 196.054688 298.140625 194.867188 297.71875 C 193.675781 297.300781 192.460938 296.988281 191.21875 296.773438 C 189.972656 296.5625 188.722656 296.457031 187.460938 296.457031 C 186.199219 296.457031 184.949219 296.5625 183.707031 296.773438 C 182.464844 296.988281 181.246094 297.300781 180.058594 297.71875 C 178.867188 298.140625 177.722656 298.65625 176.621094 299.265625 C 175.519531 299.878906 174.476562 300.582031 173.492188 301.371094 L 169.058594 304.929688 C 168.699219 305.21875 168.332031 305.496094 167.953125 305.761719 C 167.578125 306.027344 167.195312 306.28125 166.800781 306.523438 C 166.410156 306.765625 166.007812 306.996094 165.601562 307.210938 C 165.195312 307.429688 164.785156 307.632812 164.363281 307.824219 C 163.945312 308.019531 163.519531 308.195312 163.089844 308.363281 C 162.660156 308.527344 162.226562 308.679688 161.785156 308.816406 C 161.347656 308.957031 160.902344 309.078125 160.457031 309.191406 C 160.007812 309.300781 159.558594 309.398438 159.105469 309.480469 C 158.652344 309.566406 158.195312 309.632812 157.738281 309.6875 C 157.28125 309.742188 156.824219 309.785156 156.363281 309.808594 C 155.902344 309.835938 155.441406 309.847656 154.980469 309.847656 C 154.519531 309.84375 154.0625 309.828125 153.601562 309.796875 C 153.140625 309.765625 152.683594 309.722656 152.226562 309.660156 C 151.769531 309.601562 151.3125 309.53125 150.863281 309.441406 C 150.410156 309.355469 149.960938 309.253906 149.515625 309.136719 C 149.066406 309.023438 148.625 308.894531 148.1875 308.75 C 147.75 308.609375 147.316406 308.453125 146.886719 308.285156 C 146.457031 308.113281 146.035156 307.929688 145.617188 307.734375 C 145.203125 307.539062 144.789062 307.332031 144.386719 307.109375 C 143.980469 306.890625 143.585938 306.65625 143.195312 306.410156 C 142.804688 306.164062 142.421875 305.90625 142.046875 305.636719 C 141.675781 305.367188 141.308594 305.085938 140.953125 304.796875 C 140.59375 304.503906 140.25 304.199219 139.910156 303.886719 C 139.570312 303.574219 139.246094 303.25 138.925781 302.914062 C 138.609375 302.582031 138.300781 302.238281 138.003906 301.886719 C 137.707031 301.53125 137.421875 301.171875 137.148438 300.800781 C 136.871094 300.429688 136.609375 300.050781 136.359375 299.664062 C 136.109375 299.277344 135.871094 298.882812 135.644531 298.480469 C 135.417969 298.078125 135.203125 297.671875 135 297.253906 C 134.800781 296.839844 134.609375 296.417969 134.4375 295.992188 C 134.261719 295.566406 134.097656 295.132812 133.949219 294.699219 C 133.800781 294.261719 133.664062 293.820312 133.542969 293.375 L 132.046875 287.886719 C 131.714844 286.667969 131.28125 285.484375 130.75 284.339844 C 130.21875 283.195312 129.59375 282.105469 128.875 281.066406 C 128.160156 280.027344 127.363281 279.058594 126.480469 278.152344 C 125.601562 277.25 124.648438 276.425781 123.628906 275.683594 C 122.609375 274.945312 121.535156 274.292969 120.40625 273.734375 C 119.273438 273.171875 118.105469 272.710938 116.898438 272.351562 C 115.691406 271.988281 114.460938 271.730469 113.210938 271.578125 C 111.957031 271.425781 110.703125 271.378906 109.441406 271.4375 L 103.765625 271.707031 C 103.308594 271.730469 102.847656 271.738281 102.386719 271.730469 C 101.925781 271.722656 101.464844 271.703125 101.007812 271.667969 C 100.546875 271.632812 100.089844 271.582031 99.632812 271.519531 C 99.175781 271.457031 98.722656 271.378906 98.269531 271.289062 C 97.820312 271.195312 97.371094 271.089844 96.925781 270.96875 C 96.480469 270.851562 96.039062 270.71875 95.601562 270.570312 C 95.164062 270.425781 94.734375 270.265625 94.308594 270.089844 C 93.878906 269.917969 93.457031 269.730469 93.042969 269.53125 C 92.628906 269.332031 92.21875 269.117188 91.816406 268.894531 C 91.414062 268.667969 91.019531 268.429688 90.632812 268.183594 C 90.246094 267.933594 89.863281 267.671875 89.492188 267.398438 C 89.121094 267.125 88.757812 266.839844 88.40625 266.546875 C 88.050781 266.25 87.707031 265.945312 87.371094 265.625 C 87.039062 265.308594 86.710938 264.984375 86.398438 264.644531 C 86.082031 264.308594 85.777344 263.960938 85.484375 263.605469 C 85.191406 263.25 84.910156 262.886719 84.640625 262.511719 C 84.367188 262.140625 84.109375 261.757812 83.863281 261.367188 C 83.613281 260.980469 83.378906 260.582031 83.15625 260.179688 C 82.933594 259.773438 82.722656 259.363281 82.527344 258.949219 C 82.328125 258.53125 82.144531 258.109375 81.972656 257.679688 C 81.804688 257.25 81.644531 256.816406 81.5 256.378906 C 81.355469 255.941406 81.226562 255.5 81.109375 255.054688 C 80.992188 254.605469 80.886719 254.15625 80.796875 253.707031 C 80.707031 253.253906 80.632812 252.796875 80.574219 252.339844 C 80.511719 251.882812 80.464844 251.425781 80.429688 250.964844 C 80.398438 250.503906 80.378906 250.042969 80.375 249.582031 C 80.371094 249.121094 80.378906 248.660156 80.40625 248.199219 C 80.429688 247.738281 80.46875 247.277344 80.519531 246.820312 C 80.570312 246.359375 80.636719 245.902344 80.71875 245.449219 C 80.800781 244.996094 80.894531 244.542969 81.003906 244.097656 C 81.113281 243.648438 81.234375 243.203125 81.371094 242.761719 C 81.507812 242.320312 81.65625 241.886719 81.820312 241.453125 L 83.828125 236.136719 C 84.273438 234.953125 84.617188 233.746094 84.859375 232.503906 C 85.101562 231.265625 85.238281 230.015625 85.265625 228.753906 C 85.296875 227.492188 85.21875 226.234375 85.039062 224.984375 C 84.855469 223.738281 84.570312 222.511719 84.179688 221.3125 C 83.789062 220.109375 83.300781 218.949219 82.714844 217.832031 C 82.128906 216.714844 81.457031 215.652344 80.691406 214.652344 C 79.925781 213.648438 79.082031 212.714844 78.160156 211.855469 C 77.234375 210.996094 76.246094 210.21875 75.195312 209.523438 L 70.449219 206.402344 C 70.0625 206.148438 69.6875 205.882812 69.316406 205.605469 C 68.949219 205.332031 68.589844 205.042969 68.238281 204.742188 C 67.886719 204.445312 67.546875 204.136719 67.214844 203.816406 C 66.882812 203.496094 66.558594 203.164062 66.25 202.824219 C 65.9375 202.484375 65.636719 202.136719 65.347656 201.777344 C 65.054688 201.417969 64.777344 201.050781 64.511719 200.675781 C 64.242188 200.300781 63.988281 199.914062 63.746094 199.523438 C 63.5 199.132812 63.269531 198.734375 63.050781 198.328125 C 62.832031 197.921875 62.625 197.507812 62.433594 197.089844 C 62.238281 196.671875 62.058594 196.246094 61.890625 195.816406 C 61.726562 195.386719 61.570312 194.953125 61.429688 194.511719 C 61.289062 194.074219 61.164062 193.628906 61.050781 193.183594 C 60.9375 192.734375 60.839844 192.285156 60.753906 191.832031 C 60.667969 191.378906 60.597656 190.921875 60.542969 190.464844 C 60.484375 190.007812 60.441406 189.546875 60.414062 189.085938 C 60.386719 188.625 60.371094 188.164062 60.371094 187.703125 C 60.371094 187.242188 60.386719 186.78125 60.414062 186.320312 C 60.441406 185.859375 60.484375 185.402344 60.542969 184.941406 C 60.597656 184.484375 60.667969 184.027344 60.753906 183.574219 C 60.839844 183.121094 60.9375 182.671875 61.050781 182.222656 C 61.164062 181.777344 61.289062 181.332031 61.429688 180.894531 C 61.570312 180.453125 61.726562 180.019531 61.890625 179.589844 C 62.058594 179.160156 62.238281 178.734375 62.433594 178.316406 C 62.625 177.898438 62.832031 177.484375 63.050781 177.078125 C 63.269531 176.671875 63.5 176.273438 63.746094 175.882812 C 63.988281 175.492188 64.242188 175.105469 64.511719 174.730469 C 64.777344 174.355469 65.054688 173.988281 65.347656 173.628906 C 65.636719 173.269531 65.9375 172.921875 66.25 172.582031 C 66.558594 172.242188 66.882812 171.910156 67.214844 171.589844 C 67.546875 171.269531 67.886719 170.960938 68.238281 170.664062 C 68.589844 170.363281 68.949219 170.078125 69.316406 169.800781 C 69.6875 169.523438 70.0625 169.257812 70.449219 169.003906 L 75.195312 165.882812 C 76.246094 165.1875 77.234375 164.414062 78.160156 163.550781 C 79.082031 162.691406 79.925781 161.757812 80.691406 160.757812 C 81.457031 159.753906 82.128906 158.691406 82.714844 157.574219 C 83.300781 156.457031 83.789062 155.296875 84.179688 154.09375 C 84.570312 152.894531 84.855469 151.667969 85.039062 150.421875 C 85.21875 149.171875 85.296875 147.914062 85.265625 146.652344 C 85.238281 145.390625 85.101562 144.140625 84.859375 142.902344 C 84.617188 141.660156 84.273438 140.453125 83.828125 139.269531 L 81.820312 133.953125 C 81.65625 133.523438 81.503906 133.085938 81.371094 132.644531 C 81.234375 132.203125 81.109375 131.757812 81 131.308594 C 80.894531 130.863281 80.796875 130.410156 80.71875 129.957031 C 80.636719 129.5 80.570312 129.046875 80.515625 128.585938 C 80.464844 128.128906 80.425781 127.667969 80.402344 127.207031 C 80.378906 126.746094 80.367188 126.285156 80.371094 125.824219 C 80.375 125.363281 80.394531 124.902344 80.425781 124.441406 C 80.460938 123.980469 80.507812 123.519531 80.566406 123.0625 C 80.628906 122.605469 80.703125 122.152344 80.792969 121.699219 C 80.882812 121.246094 80.984375 120.796875 81.101562 120.347656 C 81.21875 119.902344 81.351562 119.460938 81.496094 119.023438 C 81.640625 118.585938 81.796875 118.152344 81.96875 117.722656 C 82.140625 117.292969 82.324219 116.871094 82.523438 116.453125 C 82.71875 116.035156 82.929688 115.625 83.152344 115.222656 C 83.375 114.816406 83.609375 114.421875 83.855469 114.03125 C 84.105469 113.640625 84.363281 113.261719 84.632812 112.886719 C 84.90625 112.511719 85.1875 112.148438 85.480469 111.792969 C 85.773438 111.4375 86.078125 111.089844 86.394531 110.753906 C 86.707031 110.417969 87.03125 110.089844 87.367188 109.773438 C 87.703125 109.453125 88.046875 109.148438 88.402344 108.851562 C 88.753906 108.558594 89.117188 108.273438 89.488281 108 C 89.859375 107.726562 90.242188 107.464844 90.628906 107.214844 C 91.015625 106.964844 91.410156 106.730469 91.8125 106.503906 C 92.214844 106.277344 92.625 106.066406 93.039062 105.867188 C 93.457031 105.667969 93.878906 105.480469 94.304688 105.308594 C 94.730469 105.132812 95.164062 104.972656 95.601562 104.824219 C 96.035156 104.679688 96.476562 104.546875 96.921875 104.425781 C 97.367188 104.308594 97.816406 104.203125 98.269531 104.109375 C 98.71875 104.019531 99.175781 103.941406 99.632812 103.878906 C 100.085938 103.8125 100.546875 103.765625 101.003906 103.730469 C 101.464844 103.695312 101.925781 103.671875 102.386719 103.667969 C 102.847656 103.660156 103.308594 103.667969 103.765625 103.691406 L 109.441406 103.957031 C 110.703125 104.019531 111.957031 103.972656 113.210938 103.820312 C 114.460938 103.664062 115.691406 103.410156 116.898438 103.046875 C 118.105469 102.683594 119.273438 102.226562 120.40625 101.664062 C 121.535156 101.105469 122.609375 100.453125 123.628906 99.710938 C 124.648438 98.96875 125.601562 98.148438 126.480469 97.242188 C 127.363281 96.339844 128.160156 95.371094 128.875 94.332031 C 129.59375 93.292969 130.21875 92.199219 130.75 91.054688 C 131.28125 89.910156 131.714844 88.730469 132.046875 87.511719 L 133.542969 82.023438 C 133.664062 81.578125 133.800781 81.136719 133.949219 80.699219 C 134.097656 80.261719 134.261719 79.832031 134.4375 79.40625 C 134.609375 78.976562 134.800781 78.558594 135 78.140625 C 135.203125 77.726562 135.417969 77.320312 135.644531 76.917969 C 135.871094 76.515625 136.109375 76.121094 136.359375 75.734375 C 136.609375 75.347656 136.871094 74.96875 137.148438 74.597656 C 137.421875 74.226562 137.707031 73.863281 138.003906 73.511719 C 138.300781 73.160156 138.609375 72.816406 138.925781 72.480469 C 139.246094 72.148438 139.570312 71.824219 139.910156 71.511719 C 140.25 71.195312 140.59375 70.894531 140.953125 70.601562 C 141.308594 70.308594 141.675781 70.03125 142.046875 69.761719 C 142.421875 69.492188 142.804688 69.234375 143.195312 68.988281 C 143.585938 68.742188 143.980469 68.507812 144.386719 68.285156 C 144.789062 68.066406 145.203125 67.855469 145.617188 67.660156 C 146.035156 67.464844 146.457031 67.285156 146.886719 67.113281 C 147.316406 66.945312 147.75 66.789062 148.1875 66.644531 C 148.625 66.503906 149.066406 66.375 149.515625 66.257812 C 149.960938 66.144531 150.410156 66.042969 150.863281 65.957031 C 151.3125 65.867188 151.769531 65.796875 152.226562 65.734375 C 152.683594 65.675781 153.140625 65.632812 153.601562 65.601562 C 154.0625 65.570312 154.519531 65.554688 154.980469 65.550781 C 155.441406 65.550781 155.902344 65.5625 156.363281 65.585938 C 156.824219 65.613281 157.28125 65.65625 157.738281 65.710938 C 158.195312 65.765625 158.652344 65.832031 159.105469 65.917969 C 159.558594 66 160.007812 66.097656 160.457031 66.207031 C 160.902344 66.316406 161.347656 66.441406 161.785156 66.582031 C 162.226562 66.71875 162.660156 66.871094 163.089844 67.035156 C 163.519531 67.203125 163.945312 67.378906 164.363281 67.570312 C 164.785156 67.761719 165.195312 67.96875 165.601562 68.183594 C 166.007812 68.402344 166.410156 68.632812 166.800781 68.875 C 167.195312 69.117188 167.578125 69.371094 167.953125 69.636719 C 168.332031 69.902344 168.699219 70.179688 169.058594 70.46875 L 173.492188 74.027344 C 174.476562 74.816406 175.519531 75.515625 176.621094 76.128906 C 177.722656 76.742188 178.867188 77.257812 180.058594 77.675781 C 181.246094 78.097656 182.464844 78.410156 183.707031 78.625 C 184.949219 78.835938 186.199219 78.941406 187.460938 78.941406 C 188.722656 78.941406 189.972656 78.835938 191.21875 78.625 C 192.460938 78.410156 193.675781 78.097656 194.867188 77.675781 C 196.054688 77.257812 197.199219 76.742188 198.304688 76.128906 C 199.40625 75.515625 200.449219 74.816406 201.433594 74.027344 Z M 201.433594 74.027344 " fill-opacity="1" fill-rule="nonzero"/></g><g clip-path="url(#e317fe1d68)"><path fill="#f05d85" d="M 199.128906 93.027344 L 202.820312 90.070312 C 203.421875 89.589844 204.046875 89.148438 204.703125 88.746094 C 205.355469 88.34375 206.03125 87.980469 206.730469 87.660156 C 207.429688 87.34375 208.144531 87.066406 208.878906 86.839844 C 209.609375 86.609375 210.355469 86.421875 211.109375 86.285156 C 211.863281 86.148438 212.625 86.054688 213.394531 86.011719 C 214.160156 85.96875 214.925781 85.972656 215.691406 86.023438 C 216.460938 86.074219 217.21875 86.171875 217.972656 86.316406 C 218.726562 86.464844 219.46875 86.65625 220.199219 86.890625 C 220.929688 87.128906 221.644531 87.410156 222.339844 87.738281 C 223.035156 88.0625 223.707031 88.429688 224.359375 88.839844 C 225.007812 89.246094 225.628906 89.695312 226.226562 90.179688 C 226.820312 90.667969 227.382812 91.1875 227.910156 91.746094 C 228.441406 92.300781 228.9375 92.886719 229.394531 93.503906 C 229.851562 94.121094 230.269531 94.761719 230.644531 95.433594 C 231.023438 96.101562 231.359375 96.789062 231.652344 97.5 C 231.945312 98.210938 232.191406 98.9375 232.394531 99.675781 L 233.640625 104.242188 C 233.917969 105.253906 234.277344 106.234375 234.71875 107.1875 C 235.164062 108.140625 235.683594 109.046875 236.28125 109.910156 C 236.875 110.773438 237.542969 111.582031 238.273438 112.332031 C 239.007812 113.085938 239.800781 113.769531 240.648438 114.386719 C 241.5 115.003906 242.394531 115.542969 243.335938 116.007812 C 244.273438 116.472656 245.25 116.855469 246.253906 117.15625 C 247.261719 117.457031 248.285156 117.671875 249.324219 117.800781 C 250.367188 117.925781 251.414062 117.964844 252.460938 117.917969 L 257.1875 117.691406 C 257.953125 117.65625 258.722656 117.667969 259.488281 117.726562 C 260.253906 117.785156 261.011719 117.890625 261.765625 118.042969 C 262.519531 118.195312 263.257812 118.394531 263.984375 118.636719 C 264.714844 118.882812 265.425781 119.171875 266.117188 119.503906 C 266.808594 119.835938 267.480469 120.207031 268.125 120.625 C 268.769531 121.039062 269.390625 121.492188 269.980469 121.984375 C 270.570312 122.476562 271.125 123.003906 271.652344 123.5625 C 272.175781 124.125 272.664062 124.714844 273.113281 125.335938 C 273.566406 125.957031 273.976562 126.605469 274.347656 127.277344 C 274.71875 127.949219 275.046875 128.644531 275.335938 129.355469 C 275.621094 130.070312 275.859375 130.796875 276.054688 131.539062 C 276.25 132.28125 276.398438 133.035156 276.5 133.796875 C 276.605469 134.558594 276.660156 135.320312 276.664062 136.089844 C 276.671875 136.859375 276.632812 137.625 276.546875 138.386719 C 276.457031 139.148438 276.324219 139.902344 276.144531 140.648438 C 275.960938 141.398438 275.734375 142.128906 275.464844 142.847656 L 273.789062 147.269531 C 273.417969 148.25 273.132812 149.257812 272.933594 150.285156 C 272.730469 151.316406 272.617188 152.355469 272.59375 153.40625 C 272.566406 154.457031 272.632812 155.5 272.785156 156.539062 C 272.933594 157.578125 273.171875 158.597656 273.496094 159.59375 C 273.824219 160.59375 274.226562 161.558594 274.714844 162.488281 C 275.203125 163.417969 275.765625 164.296875 276.402344 165.132812 C 277.039062 165.96875 277.742188 166.742188 278.511719 167.457031 C 279.28125 168.171875 280.101562 168.816406 280.980469 169.394531 L 284.929688 171.992188 C 285.574219 172.414062 286.1875 172.871094 286.773438 173.371094 C 287.355469 173.867188 287.910156 174.398438 288.429688 174.964844 C 288.949219 175.53125 289.429688 176.125 289.875 176.753906 C 290.320312 177.378906 290.726562 178.027344 291.089844 178.703125 C 291.457031 179.378906 291.777344 180.074219 292.054688 180.792969 C 292.335938 181.507812 292.566406 182.238281 292.757812 182.980469 C 292.945312 183.726562 293.085938 184.480469 293.179688 185.242188 C 293.273438 186.003906 293.324219 186.769531 293.324219 187.539062 C 293.324219 188.304688 293.273438 189.070312 293.179688 189.832031 C 293.085938 190.59375 292.945312 191.347656 292.757812 192.09375 C 292.566406 192.839844 292.335938 193.566406 292.054688 194.285156 C 291.777344 195 291.457031 195.695312 291.089844 196.371094 C 290.726562 197.046875 290.320312 197.699219 289.875 198.324219 C 289.429688 198.949219 288.949219 199.546875 288.429688 200.109375 C 287.910156 200.675781 287.355469 201.207031 286.773438 201.707031 C 286.1875 202.203125 285.574219 202.664062 284.929688 203.085938 L 280.980469 205.679688 C 280.101562 206.257812 279.28125 206.902344 278.511719 207.617188 C 277.742188 208.332031 277.039062 209.109375 276.402344 209.941406 C 275.765625 210.777344 275.203125 211.660156 274.714844 212.589844 C 274.226562 213.519531 273.824219 214.484375 273.496094 215.480469 C 273.171875 216.480469 272.933594 217.5 272.785156 218.535156 C 272.632812 219.574219 272.566406 220.621094 272.59375 221.667969 C 272.617188 222.71875 272.730469 223.757812 272.933594 224.789062 C 273.132812 225.820312 273.417969 226.824219 273.789062 227.808594 L 275.464844 232.226562 C 275.734375 232.945312 275.960938 233.679688 276.144531 234.425781 C 276.324219 235.171875 276.457031 235.925781 276.546875 236.691406 C 276.632812 237.453125 276.671875 238.21875 276.664062 238.984375 C 276.660156 239.753906 276.605469 240.519531 276.5 241.28125 C 276.398438 242.042969 276.25 242.792969 276.054688 243.535156 C 275.859375 244.277344 275.621094 245.007812 275.335938 245.71875 C 275.046875 246.433594 274.71875 247.125 274.347656 247.796875 C 273.976562 248.46875 273.566406 249.117188 273.113281 249.738281 C 272.664062 250.359375 272.175781 250.949219 271.652344 251.511719 C 271.125 252.074219 270.570312 252.597656 269.980469 253.089844 C 269.390625 253.582031 268.769531 254.035156 268.125 254.453125 C 267.480469 254.867188 266.808594 255.242188 266.117188 255.574219 C 265.425781 255.90625 264.714844 256.195312 263.984375 256.4375 C 263.257812 256.683594 262.519531 256.882812 261.765625 257.035156 C 261.011719 257.1875 260.253906 257.292969 259.488281 257.351562 C 258.722656 257.410156 257.953125 257.421875 257.1875 257.382812 L 252.460938 257.160156 C 251.414062 257.109375 250.367188 257.148438 249.324219 257.277344 C 248.285156 257.402344 247.261719 257.617188 246.253906 257.917969 C 245.25 258.21875 244.273438 258.601562 243.335938 259.066406 C 242.394531 259.53125 241.5 260.074219 240.648438 260.691406 C 239.800781 261.308594 239.007812 261.992188 238.273438 262.742188 C 237.542969 263.492188 236.875 264.300781 236.28125 265.164062 C 235.683594 266.027344 235.164062 266.9375 234.71875 267.886719 C 234.277344 268.839844 233.917969 269.820312 233.640625 270.835938 L 232.394531 275.398438 C 232.191406 276.140625 231.945312 276.863281 231.652344 277.574219 C 231.359375 278.285156 231.023438 278.976562 230.648438 279.644531 C 230.269531 280.3125 229.851562 280.957031 229.394531 281.574219 C 228.9375 282.191406 228.445312 282.777344 227.914062 283.332031 C 227.382812 283.890625 226.820312 284.410156 226.226562 284.898438 C 225.632812 285.382812 225.011719 285.832031 224.359375 286.242188 C 223.710938 286.648438 223.039062 287.015625 222.34375 287.34375 C 221.644531 287.667969 220.933594 287.949219 220.203125 288.1875 C 219.472656 288.425781 218.730469 288.617188 217.976562 288.761719 C 217.222656 288.910156 216.460938 289.007812 215.695312 289.058594 C 214.929688 289.109375 214.160156 289.113281 213.394531 289.070312 C 212.628906 289.027344 211.867188 288.933594 211.109375 288.796875 C 210.355469 288.660156 209.609375 288.476562 208.878906 288.246094 C 208.144531 288.015625 207.429688 287.738281 206.730469 287.421875 C 206.03125 287.101562 205.355469 286.742188 204.703125 286.339844 C 204.046875 285.9375 203.421875 285.496094 202.820312 285.015625 L 199.128906 282.054688 C 198.3125 281.398438 197.441406 280.816406 196.523438 280.304688 C 195.605469 279.796875 194.652344 279.367188 193.664062 279.019531 C 192.671875 278.671875 191.660156 278.410156 190.625 278.230469 C 189.589844 278.054688 188.546875 277.96875 187.496094 277.96875 C 186.449219 277.96875 185.40625 278.054688 184.371094 278.230469 C 183.335938 278.410156 182.324219 278.671875 181.332031 279.019531 C 180.34375 279.367188 179.390625 279.796875 178.472656 280.304688 C 177.554688 280.816406 176.683594 281.398438 175.867188 282.054688 L 172.175781 285.015625 C 171.574219 285.496094 170.949219 285.9375 170.292969 286.339844 C 169.640625 286.742188 168.964844 287.101562 168.265625 287.421875 C 167.566406 287.742188 166.851562 288.015625 166.117188 288.246094 C 165.386719 288.476562 164.640625 288.660156 163.886719 288.796875 C 163.128906 288.9375 162.371094 289.027344 161.601562 289.070312 C 160.835938 289.113281 160.070312 289.109375 159.304688 289.058594 C 158.535156 289.007812 157.777344 288.910156 157.023438 288.765625 C 156.269531 288.621094 155.527344 288.429688 154.796875 288.191406 C 154.066406 287.953125 153.351562 287.671875 152.65625 287.347656 C 151.960938 287.019531 151.289062 286.652344 150.636719 286.246094 C 149.988281 285.835938 149.367188 285.386719 148.769531 284.902344 C 148.175781 284.414062 147.613281 283.894531 147.082031 283.339844 C 146.554688 282.78125 146.058594 282.195312 145.601562 281.578125 C 145.144531 280.960938 144.726562 280.320312 144.351562 279.652344 C 143.972656 278.980469 143.636719 278.292969 143.34375 277.582031 C 143.050781 276.871094 142.804688 276.148438 142.601562 275.40625 L 141.355469 270.839844 C 141.078125 269.828125 140.71875 268.847656 140.277344 267.894531 C 139.832031 266.945312 139.3125 266.035156 138.714844 265.171875 C 138.121094 264.308594 137.453125 263.5 136.722656 262.75 C 135.988281 262 135.195312 261.316406 134.347656 260.699219 C 133.496094 260.082031 132.601562 259.539062 131.660156 259.074219 C 130.722656 258.609375 129.746094 258.226562 128.742188 257.925781 C 127.734375 257.625 126.710938 257.410156 125.671875 257.285156 C 124.628906 257.15625 123.582031 257.117188 122.535156 257.167969 L 117.808594 257.390625 C 117.042969 257.425781 116.273438 257.417969 115.507812 257.359375 C 114.742188 257.300781 113.984375 257.195312 113.230469 257.042969 C 112.476562 256.886719 111.738281 256.691406 111.011719 256.445312 C 110.28125 256.203125 109.570312 255.914062 108.878906 255.582031 C 108.1875 255.25 107.515625 254.875 106.871094 254.460938 C 106.226562 254.042969 105.605469 253.589844 105.015625 253.097656 C 104.425781 252.605469 103.871094 252.082031 103.34375 251.519531 C 102.820312 250.957031 102.332031 250.367188 101.882812 249.746094 C 101.429688 249.125 101.019531 248.476562 100.648438 247.804688 C 100.277344 247.132812 99.949219 246.441406 99.660156 245.726562 C 99.375 245.015625 99.136719 244.285156 98.941406 243.542969 C 98.746094 242.800781 98.597656 242.046875 98.496094 241.289062 C 98.390625 240.527344 98.335938 239.761719 98.332031 238.992188 C 98.324219 238.226562 98.363281 237.460938 98.449219 236.695312 C 98.539062 235.933594 98.671875 235.179688 98.851562 234.433594 C 99.035156 233.6875 99.261719 232.953125 99.53125 232.234375 L 101.207031 227.816406 C 101.578125 226.832031 101.863281 225.828125 102.0625 224.796875 C 102.265625 223.765625 102.378906 222.726562 102.402344 221.675781 C 102.429688 220.628906 102.363281 219.582031 102.210938 218.542969 C 102.0625 217.503906 101.824219 216.488281 101.496094 215.488281 C 101.171875 214.492188 100.765625 213.527344 100.28125 212.597656 C 99.792969 211.667969 99.230469 210.785156 98.59375 209.949219 C 97.957031 209.117188 97.253906 208.339844 96.484375 207.625 C 95.714844 206.910156 94.894531 206.265625 94.015625 205.6875 L 90.066406 203.09375 C 89.421875 202.671875 88.808594 202.210938 88.222656 201.714844 C 87.640625 201.214844 87.085938 200.683594 86.566406 200.117188 C 86.046875 199.550781 85.566406 198.957031 85.121094 198.332031 C 84.675781 197.707031 84.269531 197.054688 83.90625 196.378906 C 83.539062 195.703125 83.21875 195.007812 82.941406 194.292969 C 82.660156 193.574219 82.429688 192.84375 82.238281 192.101562 C 82.050781 191.355469 81.910156 190.601562 81.816406 189.839844 C 81.71875 189.078125 81.671875 188.3125 81.671875 187.546875 C 81.671875 186.777344 81.71875 186.011719 81.816406 185.25 C 81.910156 184.488281 82.050781 183.734375 82.238281 182.988281 C 82.429688 182.246094 82.660156 181.515625 82.941406 180.800781 C 83.21875 180.082031 83.539062 179.386719 83.90625 178.710938 C 84.269531 178.035156 84.675781 177.386719 85.121094 176.757812 C 85.566406 176.132812 86.046875 175.539062 86.566406 174.972656 C 87.085938 174.40625 87.640625 173.875 88.222656 173.378906 C 88.808594 172.878906 89.421875 172.421875 90.066406 172 L 94.015625 169.402344 C 94.894531 168.824219 95.714844 168.179688 96.484375 167.464844 C 97.253906 166.75 97.957031 165.972656 98.59375 165.140625 C 99.230469 164.304688 99.792969 163.421875 100.28125 162.492188 C 100.765625 161.5625 101.171875 160.601562 101.496094 159.601562 C 101.824219 158.605469 102.0625 157.585938 102.210938 156.546875 C 102.363281 155.507812 102.429688 154.464844 102.402344 153.414062 C 102.378906 152.363281 102.265625 151.324219 102.0625 150.292969 C 101.863281 149.265625 101.578125 148.257812 101.207031 147.277344 L 99.53125 142.855469 C 99.261719 142.136719 99.035156 141.402344 98.851562 140.65625 C 98.671875 139.910156 98.535156 139.15625 98.449219 138.394531 C 98.359375 137.628906 98.320312 136.863281 98.328125 136.09375 C 98.335938 135.328125 98.390625 134.5625 98.492188 133.800781 C 98.59375 133.039062 98.742188 132.289062 98.9375 131.542969 C 99.132812 130.800781 99.371094 130.074219 99.65625 129.359375 C 99.941406 128.644531 100.269531 127.953125 100.640625 127.28125 C 101.015625 126.609375 101.425781 125.960938 101.875 125.339844 C 102.328125 124.71875 102.816406 124.125 103.339844 123.566406 C 103.867188 123.003906 104.421875 122.476562 105.011719 121.984375 C 105.601562 121.492188 106.222656 121.039062 106.867188 120.625 C 107.515625 120.207031 108.183594 119.835938 108.875 119.503906 C 109.570312 119.171875 110.28125 118.882812 111.007812 118.636719 C 111.734375 118.394531 112.476562 118.195312 113.230469 118.042969 C 113.984375 117.890625 114.742188 117.785156 115.507812 117.726562 C 116.273438 117.667969 117.042969 117.65625 117.808594 117.691406 L 122.535156 117.917969 C 123.582031 117.964844 124.628906 117.925781 125.671875 117.800781 C 126.710938 117.671875 127.734375 117.457031 128.742188 117.15625 C 129.746094 116.855469 130.722656 116.472656 131.660156 116.007812 C 132.601562 115.542969 133.496094 115.003906 134.347656 114.386719 C 135.195312 113.769531 135.988281 113.085938 136.722656 112.332031 C 137.453125 111.582031 138.121094 110.773438 138.714844 109.910156 C 139.3125 109.046875 139.832031 108.140625 140.277344 107.1875 C 140.71875 106.234375 141.078125 105.253906 141.355469 104.242188 L 142.601562 99.675781 C 142.804688 98.9375 143.050781 98.210938 143.34375 97.5 C 143.636719 96.789062 143.972656 96.101562 144.351562 95.433594 C 144.726562 94.761719 145.144531 94.121094 145.601562 93.503906 C 146.058594 92.886719 146.554688 92.300781 147.082031 91.746094 C 147.613281 91.1875 148.175781 90.667969 148.769531 90.179688 C 149.367188 89.695312 149.988281 89.246094 150.636719 88.839844 C 151.289062 88.429688 151.960938 88.0625 152.65625 87.738281 C 153.351562 87.410156 154.066406 87.128906 154.796875 86.890625 C 155.527344 86.65625 156.269531 86.464844 157.023438 86.316406 C 157.777344 86.171875 158.535156 86.074219 159.304688 86.023438 C 160.070312 85.972656 160.835938 85.96875 161.601562 86.011719 C 162.371094 86.054688 163.128906 86.148438 163.886719 86.285156 C 164.640625 86.421875 165.386719 86.609375 166.117188 86.839844 C 166.851562 87.066406 167.566406 87.34375 168.265625 87.660156 C 168.964844 87.980469 169.640625 88.34375 170.292969 88.746094 C 170.949219 89.148438 171.574219 89.589844 172.175781 90.070312 L 175.867188 93.027344 C 176.683594 93.683594 177.554688 94.269531 178.472656 94.777344 C 179.390625 95.289062 180.34375 95.714844 181.332031 96.0625 C 182.324219 96.414062 183.335938 96.675781 184.371094 96.851562 C 185.40625 97.027344 186.449219 97.117188 187.496094 97.117188 C 188.546875 97.117188 189.589844 97.027344 190.625 96.851562 C 191.660156 96.675781 192.671875 96.414062 193.664062 96.0625 C 194.652344 95.714844 195.605469 95.289062 196.523438 94.777344 C 197.441406 94.269531 198.3125 93.683594 199.128906 93.027344 Z M 199.128906 93.027344 " fill-opacity="1" fill-rule="nonzero"/></g><g clip-path="url(#3d5715b10d)"><path fill="#c76bab" d="M 195.574219 121.902344 L 198.136719 119.847656 C 198.550781 119.511719 198.988281 119.207031 199.441406 118.925781 C 199.894531 118.648438 200.363281 118.394531 200.851562 118.175781 C 201.335938 117.953125 201.832031 117.761719 202.339844 117.601562 C 202.851562 117.441406 203.367188 117.316406 203.890625 117.21875 C 204.414062 117.125 204.945312 117.058594 205.476562 117.03125 C 206.007812 117 206.542969 117 207.074219 117.039062 C 207.605469 117.074219 208.132812 117.140625 208.65625 117.242188 C 209.179688 117.34375 209.695312 117.476562 210.203125 117.640625 C 210.710938 117.804688 211.207031 118 211.6875 118.226562 C 212.171875 118.453125 212.640625 118.707031 213.089844 118.992188 C 213.542969 119.277344 213.972656 119.585938 214.386719 119.925781 C 214.800781 120.261719 215.191406 120.625 215.558594 121.011719 C 215.925781 121.394531 216.269531 121.804688 216.585938 122.230469 C 216.90625 122.660156 217.195312 123.105469 217.457031 123.570312 C 217.71875 124.035156 217.953125 124.515625 218.15625 125.007812 C 218.359375 125.5 218.53125 126.003906 218.671875 126.519531 L 219.535156 129.6875 C 219.730469 130.390625 219.980469 131.074219 220.285156 131.734375 C 220.59375 132.394531 220.957031 133.023438 221.371094 133.625 C 221.785156 134.222656 222.246094 134.785156 222.753906 135.308594 C 223.265625 135.828125 223.8125 136.304688 224.402344 136.730469 C 224.992188 137.160156 225.613281 137.535156 226.269531 137.859375 C 226.921875 138.183594 227.597656 138.449219 228.296875 138.65625 C 228.996094 138.867188 229.707031 139.015625 230.429688 139.101562 C 231.152344 139.191406 231.878906 139.21875 232.605469 139.183594 L 235.886719 139.027344 C 236.421875 139.003906 236.953125 139.011719 237.484375 139.050781 C 238.015625 139.09375 238.542969 139.164062 239.066406 139.269531 C 239.589844 139.378906 240.101562 139.515625 240.609375 139.683594 C 241.113281 139.855469 241.609375 140.054688 242.089844 140.285156 C 242.570312 140.515625 243.035156 140.777344 243.484375 141.0625 C 243.929688 141.351562 244.359375 141.667969 244.769531 142.007812 C 245.179688 142.351562 245.566406 142.714844 245.929688 143.105469 C 246.296875 143.496094 246.632812 143.90625 246.949219 144.335938 C 247.261719 144.769531 247.546875 145.21875 247.804688 145.683594 C 248.0625 146.152344 248.289062 146.632812 248.488281 147.128906 C 248.6875 147.621094 248.855469 148.128906 248.988281 148.644531 C 249.125 149.160156 249.230469 149.683594 249.300781 150.210938 C 249.371094 150.738281 249.410156 151.269531 249.414062 151.804688 C 249.417969 152.335938 249.390625 152.867188 249.332031 153.398438 C 249.269531 153.929688 249.175781 154.453125 249.050781 154.96875 C 248.925781 155.488281 248.769531 155.996094 248.578125 156.496094 L 247.417969 159.566406 C 247.160156 160.25 246.960938 160.945312 246.820312 161.664062 C 246.679688 162.378906 246.601562 163.101562 246.585938 163.828125 C 246.566406 164.558594 246.613281 165.28125 246.71875 166.003906 C 246.824219 166.726562 246.988281 167.433594 247.214844 168.125 C 247.4375 168.820312 247.722656 169.488281 248.058594 170.132812 C 248.398438 170.777344 248.789062 171.390625 249.230469 171.972656 C 249.675781 172.550781 250.160156 173.089844 250.695312 173.585938 C 251.230469 174.082031 251.800781 174.53125 252.410156 174.929688 L 255.152344 176.734375 C 255.597656 177.027344 256.023438 177.34375 256.429688 177.691406 C 256.835938 178.035156 257.222656 178.40625 257.582031 178.796875 C 257.941406 179.191406 258.277344 179.605469 258.585938 180.039062 C 258.894531 180.472656 259.175781 180.925781 259.429688 181.394531 C 259.683594 181.863281 259.90625 182.347656 260.101562 182.84375 C 260.292969 183.34375 260.457031 183.847656 260.585938 184.367188 C 260.71875 184.882812 260.816406 185.40625 260.882812 185.9375 C 260.949219 186.464844 260.980469 186.996094 260.980469 187.53125 C 260.980469 188.0625 260.949219 188.59375 260.882812 189.125 C 260.816406 189.652344 260.71875 190.175781 260.585938 190.691406 C 260.457031 191.210938 260.292969 191.71875 260.101562 192.214844 C 259.90625 192.710938 259.683594 193.195312 259.429688 193.664062 C 259.175781 194.132812 258.894531 194.585938 258.585938 195.019531 C 258.277344 195.453125 257.941406 195.867188 257.582031 196.261719 C 257.222656 196.652344 256.835938 197.023438 256.429688 197.367188 C 256.023438 197.714844 255.597656 198.03125 255.152344 198.324219 L 252.410156 200.128906 C 251.800781 200.527344 251.230469 200.976562 250.695312 201.472656 C 250.160156 201.96875 249.675781 202.507812 249.230469 203.089844 C 248.789062 203.667969 248.398438 204.28125 248.058594 204.925781 C 247.722656 205.570312 247.4375 206.242188 247.214844 206.933594 C 246.988281 207.625 246.824219 208.335938 246.71875 209.054688 C 246.613281 209.777344 246.566406 210.5 246.585938 211.230469 C 246.601562 211.960938 246.679688 212.679688 246.820312 213.398438 C 246.960938 214.113281 247.160156 214.8125 247.417969 215.492188 L 248.578125 218.5625 C 248.769531 219.0625 248.925781 219.570312 249.050781 220.089844 C 249.175781 220.605469 249.269531 221.132812 249.332031 221.660156 C 249.390625 222.191406 249.417969 222.722656 249.414062 223.253906 C 249.410156 223.789062 249.371094 224.320312 249.300781 224.847656 C 249.230469 225.378906 249.125 225.898438 248.988281 226.414062 C 248.855469 226.929688 248.6875 227.4375 248.488281 227.929688 C 248.289062 228.425781 248.0625 228.90625 247.804688 229.375 C 247.546875 229.839844 247.261719 230.289062 246.949219 230.722656 C 246.632812 231.152344 246.296875 231.5625 245.929688 231.953125 C 245.566406 232.34375 245.179688 232.707031 244.769531 233.050781 C 244.359375 233.390625 243.929688 233.707031 243.484375 233.996094 C 243.035156 234.285156 242.570312 234.542969 242.089844 234.773438 C 241.609375 235.003906 241.113281 235.203125 240.609375 235.375 C 240.101562 235.542969 239.589844 235.683594 239.066406 235.789062 C 238.542969 235.894531 238.015625 235.96875 237.484375 236.007812 C 236.953125 236.046875 236.421875 236.054688 235.886719 236.03125 L 232.605469 235.875 C 231.878906 235.839844 231.152344 235.867188 230.429688 235.957031 C 229.707031 236.042969 228.996094 236.191406 228.296875 236.402344 C 227.597656 236.609375 226.921875 236.875 226.269531 237.199219 C 225.613281 237.523438 224.992188 237.898438 224.402344 238.328125 C 223.8125 238.753906 223.265625 239.230469 222.753906 239.753906 C 222.246094 240.273438 221.785156 240.835938 221.371094 241.433594 C 220.957031 242.035156 220.59375 242.664062 220.285156 243.324219 C 219.980469 243.984375 219.730469 244.667969 219.535156 245.371094 L 218.671875 248.539062 C 218.53125 249.054688 218.359375 249.558594 218.15625 250.050781 C 217.953125 250.546875 217.71875 251.023438 217.457031 251.488281 C 217.195312 251.953125 216.90625 252.398438 216.589844 252.828125 C 216.269531 253.257812 215.929688 253.664062 215.558594 254.050781 C 215.191406 254.4375 214.800781 254.796875 214.390625 255.136719 C 213.976562 255.472656 213.542969 255.785156 213.09375 256.070312 C 212.640625 256.355469 212.175781 256.609375 211.691406 256.835938 C 211.207031 257.0625 210.710938 257.257812 210.207031 257.421875 C 209.699219 257.585938 209.183594 257.71875 208.660156 257.820312 C 208.136719 257.921875 207.605469 257.992188 207.074219 258.027344 C 206.542969 258.0625 206.011719 258.0625 205.476562 258.035156 C 204.945312 258.003906 204.417969 257.941406 203.890625 257.84375 C 203.367188 257.75 202.851562 257.621094 202.339844 257.460938 C 201.832031 257.300781 201.335938 257.109375 200.851562 256.890625 C 200.367188 256.667969 199.894531 256.417969 199.441406 256.136719 C 198.988281 255.859375 198.550781 255.550781 198.136719 255.21875 L 195.574219 253.164062 C 195.003906 252.707031 194.402344 252.300781 193.761719 251.949219 C 193.125 251.59375 192.464844 251.296875 191.777344 251.054688 C 191.089844 250.8125 190.386719 250.632812 189.667969 250.507812 C 188.949219 250.386719 188.222656 250.324219 187.496094 250.324219 C 186.765625 250.324219 186.042969 250.386719 185.324219 250.507812 C 184.605469 250.632812 183.902344 250.8125 183.214844 251.054688 C 182.527344 251.296875 181.863281 251.59375 181.226562 251.949219 C 180.589844 252.300781 179.984375 252.707031 179.417969 253.164062 L 176.855469 255.21875 C 176.4375 255.550781 176.003906 255.859375 175.550781 256.136719 C 175.09375 256.417969 174.625 256.667969 174.140625 256.890625 C 173.65625 257.109375 173.15625 257.300781 172.648438 257.460938 C 172.140625 257.621094 171.625 257.75 171.097656 257.84375 C 170.574219 257.941406 170.046875 258.003906 169.511719 258.035156 C 168.980469 258.066406 168.449219 258.0625 167.917969 258.027344 C 167.382812 257.992188 166.855469 257.921875 166.332031 257.824219 C 165.808594 257.722656 165.292969 257.589844 164.785156 257.421875 C 164.277344 257.257812 163.785156 257.0625 163.300781 256.835938 C 162.816406 256.609375 162.351562 256.355469 161.898438 256.070312 C 161.449219 255.789062 161.015625 255.476562 160.601562 255.140625 C 160.191406 254.800781 159.800781 254.441406 159.429688 254.054688 C 159.0625 253.667969 158.71875 253.261719 158.402344 252.832031 C 158.085938 252.40625 157.796875 251.957031 157.53125 251.492188 C 157.269531 251.027344 157.039062 250.550781 156.835938 250.058594 C 156.632812 249.5625 156.460938 249.058594 156.320312 248.546875 L 155.453125 245.375 C 155.261719 244.671875 155.011719 243.992188 154.703125 243.332031 C 154.394531 242.667969 154.035156 242.039062 153.621094 241.4375 C 153.207031 240.839844 152.746094 240.277344 152.234375 239.757812 C 151.726562 239.234375 151.175781 238.761719 150.585938 238.332031 C 149.996094 237.902344 149.375 237.527344 148.722656 237.203125 C 148.070312 236.882812 147.394531 236.617188 146.695312 236.40625 C 145.996094 236.199219 145.285156 236.050781 144.5625 235.960938 C 143.835938 235.871094 143.113281 235.847656 142.382812 235.878906 L 139.101562 236.035156 C 138.570312 236.0625 138.035156 236.054688 137.503906 236.011719 C 136.972656 235.972656 136.445312 235.898438 135.921875 235.792969 C 135.402344 235.6875 134.886719 235.550781 134.382812 235.378906 C 133.875 235.210938 133.382812 235.007812 132.902344 234.777344 C 132.421875 234.546875 131.957031 234.289062 131.507812 234 C 131.058594 233.710938 130.628906 233.398438 130.21875 233.054688 C 129.808594 232.714844 129.421875 232.347656 129.058594 231.957031 C 128.695312 231.570312 128.355469 231.160156 128.042969 230.726562 C 127.726562 230.296875 127.441406 229.847656 127.183594 229.378906 C 126.925781 228.914062 126.699219 228.433594 126.5 227.9375 C 126.300781 227.441406 126.136719 226.9375 126 226.421875 C 125.863281 225.90625 125.761719 225.382812 125.691406 224.855469 C 125.621094 224.324219 125.582031 223.792969 125.578125 223.261719 C 125.570312 222.726562 125.597656 222.195312 125.660156 221.667969 C 125.71875 221.136719 125.8125 220.613281 125.9375 220.09375 C 126.066406 219.574219 126.222656 219.066406 126.410156 218.566406 L 127.574219 215.496094 C 127.832031 214.816406 128.03125 214.117188 128.167969 213.402344 C 128.308594 212.6875 128.386719 211.964844 128.40625 211.234375 C 128.421875 210.507812 128.378906 209.78125 128.273438 209.0625 C 128.167969 208.339844 128 207.632812 127.777344 206.9375 C 127.550781 206.246094 127.269531 205.574219 126.929688 204.929688 C 126.589844 204.285156 126.199219 203.671875 125.757812 203.09375 C 125.316406 202.515625 124.828125 201.976562 124.292969 201.480469 C 123.761719 200.980469 123.191406 200.535156 122.582031 200.132812 L 119.835938 198.332031 C 119.390625 198.039062 118.964844 197.71875 118.558594 197.375 C 118.152344 197.027344 117.769531 196.660156 117.410156 196.265625 C 117.046875 195.871094 116.710938 195.457031 116.402344 195.023438 C 116.09375 194.589844 115.8125 194.136719 115.558594 193.667969 C 115.304688 193.199219 115.082031 192.714844 114.890625 192.21875 C 114.695312 191.722656 114.535156 191.214844 114.402344 190.699219 C 114.273438 190.179688 114.175781 189.65625 114.109375 189.128906 C 114.042969 188.597656 114.007812 188.066406 114.007812 187.535156 C 114.007812 187 114.042969 186.46875 114.109375 185.941406 C 114.175781 185.410156 114.273438 184.886719 114.402344 184.371094 C 114.535156 183.855469 114.695312 183.347656 114.890625 182.851562 C 115.082031 182.351562 115.304688 181.871094 115.558594 181.402344 C 115.8125 180.929688 116.09375 180.480469 116.402344 180.046875 C 116.710938 179.609375 117.046875 179.195312 117.410156 178.804688 C 117.769531 178.410156 118.152344 178.042969 118.558594 177.695312 C 118.964844 177.351562 119.390625 177.03125 119.835938 176.738281 L 122.582031 174.9375 C 123.191406 174.535156 123.761719 174.085938 124.292969 173.589844 C 124.828125 173.09375 125.316406 172.554688 125.757812 171.976562 C 126.199219 171.398438 126.589844 170.785156 126.929688 170.140625 C 127.269531 169.492188 127.550781 168.824219 127.777344 168.128906 C 128 167.4375 128.167969 166.730469 128.273438 166.007812 C 128.378906 165.289062 128.421875 164.5625 128.40625 163.832031 C 128.386719 163.105469 128.308594 162.382812 128.167969 161.667969 C 128.03125 160.953125 127.832031 160.253906 127.574219 159.570312 L 126.410156 156.5 C 126.222656 156.003906 126.0625 155.492188 125.9375 154.976562 C 125.8125 154.457031 125.71875 153.933594 125.660156 153.402344 C 125.597656 152.871094 125.570312 152.339844 125.574219 151.808594 C 125.578125 151.273438 125.617188 150.742188 125.6875 150.214844 C 125.757812 149.683594 125.863281 149.164062 125.996094 148.648438 C 126.132812 148.132812 126.300781 147.625 126.496094 147.128906 C 126.695312 146.632812 126.925781 146.152344 127.183594 145.6875 C 127.441406 145.21875 127.726562 144.769531 128.039062 144.339844 C 128.351562 143.90625 128.691406 143.496094 129.054688 143.105469 C 129.421875 142.714844 129.808594 142.351562 130.21875 142.007812 C 130.625 141.667969 131.054688 141.351562 131.503906 141.0625 C 131.953125 140.777344 132.417969 140.515625 132.898438 140.285156 C 133.378906 140.054688 133.875 139.855469 134.378906 139.683594 C 134.886719 139.515625 135.398438 139.375 135.921875 139.269531 C 136.445312 139.164062 136.972656 139.089844 137.503906 139.050781 C 138.035156 139.011719 138.570312 139.003906 139.101562 139.027344 L 142.382812 139.183594 C 143.113281 139.21875 143.835938 139.191406 144.5625 139.101562 C 145.285156 139.015625 145.996094 138.867188 146.695312 138.65625 C 147.394531 138.449219 148.070312 138.183594 148.722656 137.859375 C 149.375 137.535156 149.996094 137.160156 150.585938 136.730469 C 151.175781 136.304688 151.726562 135.828125 152.234375 135.308594 C 152.746094 134.785156 153.207031 134.222656 153.621094 133.625 C 154.035156 133.023438 154.394531 132.394531 154.703125 131.734375 C 155.011719 131.074219 155.261719 130.390625 155.453125 129.6875 L 156.320312 126.519531 C 156.460938 126.003906 156.632812 125.5 156.835938 125.007812 C 157.039062 124.515625 157.269531 124.035156 157.53125 123.570312 C 157.796875 123.105469 158.085938 122.660156 158.402344 122.230469 C 158.71875 121.804688 159.0625 121.394531 159.429688 121.011719 C 159.800781 120.625 160.191406 120.261719 160.601562 119.925781 C 161.015625 119.585938 161.449219 119.277344 161.898438 118.992188 C 162.351562 118.707031 162.816406 118.453125 163.300781 118.226562 C 163.785156 118 164.277344 117.804688 164.785156 117.640625 C 165.292969 117.476562 165.808594 117.34375 166.332031 117.242188 C 166.855469 117.140625 167.382812 117.074219 167.917969 117.039062 C 168.449219 117 168.980469 117 169.511719 117.03125 C 170.046875 117.058594 170.574219 117.125 171.097656 117.21875 C 171.625 117.316406 172.140625 117.441406 172.648438 117.601562 C 173.15625 117.761719 173.65625 117.953125 174.140625 118.175781 C 174.625 118.394531 175.09375 118.648438 175.550781 118.925781 C 176.003906 119.207031 176.4375 119.511719 176.855469 119.847656 L 179.417969 121.902344 C 179.984375 122.359375 180.589844 122.761719 181.226562 123.117188 C 181.863281 123.46875 182.527344 123.769531 183.214844 124.007812 C 183.902344 124.25 184.605469 124.433594 185.324219 124.554688 C 186.042969 124.679688 186.765625 124.738281 187.496094 124.738281 C 188.222656 124.738281 188.949219 124.679688 189.667969 124.554688 C 190.386719 124.433594 191.089844 124.25 191.777344 124.007812 C 192.464844 123.769531 193.125 123.46875 193.761719 123.117188 C 194.402344 122.761719 195.003906 122.359375 195.574219 121.902344 Z M 195.574219 121.902344 " fill-opacity="1" fill-rule="nonzero"/></g><path fill="#fecd1a" d="M 146.566406 128.492188 L 142.273438 129.574219 C 138.351562 130.5625 135.285156 134.292969 134.472656 139.070312 L 133.582031 144.296875 L 132.695312 139.070312 C 131.882812 134.292969 128.816406 130.5625 124.894531 129.574219 L 120.601562 128.492188 L 124.894531 127.410156 C 128.816406 126.421875 131.882812 122.6875 132.695312 117.910156 L 133.582031 112.6875 L 134.472656 117.910156 C 135.285156 122.6875 138.351562 126.421875 142.273438 127.410156 Z M 146.566406 128.492188 " fill-opacity="1" fill-rule="nonzero"/><path fill="#fecd1a" d="M 167.519531 150.476562 L 164.25 151.148438 C 161.261719 151.765625 158.925781 154.089844 158.308594 157.0625 L 157.632812 160.316406 L 156.953125 157.0625 C 156.335938 154.089844 154 151.765625 151.011719 151.148438 L 147.742188 150.476562 L 151.011719 149.800781 C 154 149.1875 156.335938 146.863281 156.953125 143.886719 L 157.632812 140.632812 L 158.308594 143.886719 C 158.925781 146.863281 161.261719 149.1875 164.25 149.800781 Z M 167.519531 150.476562 " fill-opacity="1" fill-rule="nonzero"/><g clip-path="url(#77fd031c3b)"><path fill="#fecd1a" d="M 128.097656 163.796875 L 122.84375 164.363281 C 120.34375 164.875 118.390625 166.820312 117.875 169.308594 L 117.308594 176.789062 L 116.742188 169.308594 C 116.226562 166.820312 114.273438 164.875 111.773438 164.363281 L 106.929688 163.796875 L 111.773438 163.234375 C 114.273438 162.722656 116.226562 160.777344 116.742188 158.289062 L 117.308594 148.496094 L 117.875 158.289062 C 118.390625 160.777344 120.34375 162.722656 122.84375 163.234375 Z M 128.097656 163.796875 " fill-opacity="1" fill-rule="nonzero"/></g><g clip-path="url(#16d66fc89d)"><path fill="#fecd1a" d="M 168.6875 124 L 167.582031 124.304688 C 166.570312 124.585938 165.78125 125.648438 165.570312 127.007812 L 165.339844 128.492188 L 165.113281 127.007812 C 164.902344 125.648438 164.113281 124.585938 163.101562 124.304688 L 161.992188 124 L 163.101562 123.691406 C 164.113281 123.410156 164.902344 122.347656 165.113281 120.992188 L 165.339844 119.503906 L 165.570312 120.992188 C 165.78125 122.347656 166.570312 123.410156 167.582031 123.691406 Z M 168.6875 124 " fill-opacity="1" fill-rule="nonzero"/></g><path fill="#fecd1a" d="M 101.539062 135.460938 L 100.632812 135.714844 C 99.804688 135.945312 99.15625 136.8125 98.984375 137.925781 L 98.796875 139.140625 L 98.609375 137.925781 C 98.441406 136.8125 97.792969 135.945312 96.964844 135.714844 L 96.058594 135.460938 L 96.964844 135.210938 C 97.792969 134.980469 98.441406 134.109375 98.609375 133 L 98.796875 131.78125 L 98.984375 133 C 99.15625 134.109375 99.804688 134.980469 100.632812 135.210938 Z M 101.539062 135.460938 " fill-opacity="1" fill-rule="nonzero"/><g clip-path="url(#36ea018557)"><path fill="#fecd1a" d="M 121.289062 106.867188 L 120.042969 107.214844 C 118.898438 107.53125 118.007812 108.726562 117.773438 110.257812 L 117.515625 111.933594 L 117.253906 110.257812 C 117.019531 108.726562 116.128906 107.53125 114.988281 107.214844 L 113.738281 106.867188 L 114.988281 106.519531 C 116.128906 106.203125 117.019531 105.007812 117.253906 103.476562 L 117.515625 101.800781 L 117.773438 103.476562 C 118.007812 105.007812 118.898438 106.203125 120.042969 106.519531 Z M 121.289062 106.867188 " fill-opacity="1" fill-rule="nonzero"/></g><path fill="#fecd1a" d="M 155.441406 109.332031 L 154.835938 109.5 C 154.277344 109.65625 153.84375 110.238281 153.730469 110.984375 L 153.605469 111.796875 L 153.476562 110.984375 C 153.363281 110.238281 152.929688 109.65625 152.375 109.5 L 151.765625 109.332031 L 152.375 109.164062 C 152.929688 109.007812 153.363281 108.425781 153.476562 107.683594 L 153.605469 106.867188 L 153.730469 107.683594 C 153.84375 108.425781 154.277344 109.007812 154.835938 109.164062 Z M 155.441406 109.332031 " fill-opacity="1" fill-rule="nonzero"/><path fill="#fecd1a" d="M 253.761719 234.632812 L 249.46875 235.714844 C 245.542969 236.703125 242.476562 240.4375 241.664062 245.214844 L 240.777344 250.441406 L 239.890625 245.214844 C 239.078125 240.4375 236.011719 236.703125 232.085938 235.714844 L 227.796875 234.632812 L 232.085938 233.554688 C 236.011719 232.566406 239.078125 228.832031 239.890625 224.054688 L 240.777344 218.828125 L 241.664062 224.054688 C 242.476562 228.832031 245.542969 232.566406 249.46875 233.554688 Z M 253.761719 234.632812 " fill-opacity="1" fill-rule="nonzero"/><path fill="#fecd1a" d="M 274.714844 256.617188 L 271.445312 257.292969 C 268.457031 257.90625 266.121094 260.230469 265.5 263.207031 L 264.824219 266.460938 L 264.148438 263.207031 C 263.53125 260.230469 261.195312 257.90625 258.207031 257.292969 L 254.9375 256.617188 L 258.207031 255.945312 C 261.195312 255.328125 263.53125 253.003906 264.148438 250.03125 L 264.824219 246.777344 L 265.5 250.03125 C 266.121094 253.003906 268.457031 255.328125 271.445312 255.945312 Z M 274.714844 256.617188 " fill-opacity="1" fill-rule="nonzero"/><g clip-path="url(#cac20fa652)"><path fill="#fecd1a" d="M 235.289062 269.941406 L 230.035156 270.503906 C 227.535156 271.019531 225.585938 272.960938 225.066406 275.449219 L 224.5 282.929688 L 223.9375 275.449219 C 223.417969 272.960938 221.464844 271.019531 218.96875 270.503906 L 214.125 269.941406 L 218.96875 269.378906 C 221.464844 268.863281 223.417969 266.917969 223.9375 264.433594 L 224.5 254.636719 L 225.066406 264.433594 C 225.585938 266.917969 227.535156 268.863281 230.035156 269.378906 Z M 235.289062 269.941406 " fill-opacity="1" fill-rule="nonzero"/></g><g clip-path="url(#67f891c4b5)"><path fill="#fecd1a" d="M 275.882812 230.140625 L 274.777344 230.449219 C 273.765625 230.730469 272.972656 231.789062 272.765625 233.148438 L 272.535156 234.632812 L 272.304688 233.148438 C 272.097656 231.789062 271.304688 230.730469 270.292969 230.449219 L 269.1875 230.140625 L 270.292969 229.832031 C 271.304688 229.550781 272.097656 228.492188 272.304688 227.132812 L 272.535156 225.648438 L 272.765625 227.132812 C 272.972656 228.492188 273.765625 229.550781 274.777344 229.832031 Z M 275.882812 230.140625 " fill-opacity="1" fill-rule="nonzero"/></g><g clip-path="url(#53b1d6b3d9)"><path fill="#fecd1a" d="M 208.734375 241.605469 L 207.828125 241.855469 C 207 242.085938 206.351562 242.953125 206.179688 244.066406 L 205.992188 245.285156 L 205.804688 244.066406 C 205.632812 242.953125 204.984375 242.085938 204.15625 241.855469 L 203.25 241.605469 L 204.15625 241.351562 C 204.984375 241.121094 205.632812 240.253906 205.804688 239.140625 L 205.992188 237.925781 L 206.179688 239.140625 C 206.351562 240.253906 207 241.121094 207.828125 241.351562 Z M 208.734375 241.605469 " fill-opacity="1" fill-rule="nonzero"/></g><g clip-path="url(#1ff0f4b36a)"><path fill="#fecd1a" d="M 228.484375 213.007812 L 227.234375 213.355469 C 226.09375 213.671875 225.203125 214.867188 224.964844 216.402344 L 224.707031 218.074219 L 224.449219 216.402344 C 224.214844 214.867188 223.320312 213.671875 222.179688 213.355469 L 220.933594 213.007812 L 222.179688 212.660156 C 223.320312 212.34375 224.214844 211.148438 224.449219 209.617188 L 224.707031 207.941406 L 224.964844 209.617188 C 225.203125 211.148438 226.09375 212.34375 227.234375 212.660156 Z M 228.484375 213.007812 " fill-opacity="1" fill-rule="nonzero"/></g><path fill="#fecd1a" d="M 262.636719 215.476562 L 262.027344 215.644531 C 261.472656 215.796875 261.039062 216.378906 260.921875 217.125 L 260.796875 217.941406 L 260.671875 217.125 C 260.558594 216.378906 260.125 215.796875 259.566406 215.644531 L 258.960938 215.476562 L 259.566406 215.304688 C 260.125 215.152344 260.558594 214.570312 260.671875 213.824219 L 260.796875 213.007812 L 260.921875 213.824219 C 261.039062 214.570312 261.472656 215.152344 262.027344 215.304688 Z M 262.636719 215.476562 " fill-opacity="1" fill-rule="nonzero"/></svg>