<svg xmlns="http://www.w3.org/2000/svg" xmlns:xlink="http://www.w3.org/1999/xlink" width="500" zoomAndPan="magnify" viewBox="0 0 375 374.999991" height="500" preserveAspectRatio="xMidYMid meet" version="1.0"><defs><clipPath id="bdcb49d5f8"><path d="M 175 172 L 214 172 L 214 212 L 175 212 Z M 175 172 " clip-rule="nonzero"/></clipPath><clipPath id="30e0f760fb"><path d="M 359.144531 81.390625 L 364.113281 285.332031 L 16.214844 293.804688 L 11.25 89.863281 Z M 359.144531 81.390625 " clip-rule="nonzero"/></clipPath><clipPath id="8921db7bfb"><path d="M 359.144531 81.390625 L 364.113281 285.332031 L 16.214844 293.804688 L 11.25 89.863281 Z M 359.144531 81.390625 " clip-rule="nonzero"/></clipPath><clipPath id="f55e66a184"><path d="M 182 94 L 358 94 L 358 203 L 182 203 Z M 182 94 " clip-rule="nonzero"/></clipPath><clipPath id="8b2561d252"><path d="M 359.144531 81.390625 L 364.113281 285.332031 L 16.214844 293.804688 L 11.25 89.863281 Z M 359.144531 81.390625 " clip-rule="nonzero"/></clipPath><clipPath id="c761f79504"><path d="M 359.144531 81.390625 L 364.113281 285.332031 L 16.214844 293.804688 L 11.25 89.863281 Z M 359.144531 81.390625 " clip-rule="nonzero"/></clipPath><clipPath id="a3777e3c86"><path d="M 13 113 L 166 113 L 166 201 L 13 201 Z M 13 113 " clip-rule="nonzero"/></clipPath><clipPath id="f13e686913"><path d="M 359.144531 81.390625 L 364.113281 285.332031 L 16.214844 293.804688 L 11.25 89.863281 Z M 359.144531 81.390625 " clip-rule="nonzero"/></clipPath><clipPath id="a524d7c6ba"><path d="M 359.144531 81.390625 L 364.113281 285.332031 L 16.214844 293.804688 L 11.25 89.863281 Z M 359.144531 81.390625 " clip-rule="nonzero"/></clipPath><clipPath id="57db936ff2"><path d="M 165.394531 113.015625 L 167.503906 199.679688 L 13.660156 203.425781 L 11.550781 116.765625 Z M 165.394531 113.015625 " clip-rule="nonzero"/></clipPath><clipPath id="9bf4a1f8d3"><path d="M 195 200 L 259 200 L 259 257 L 195 257 Z M 195 200 " clip-rule="nonzero"/></clipPath><clipPath id="6fba0ba31a"><path d="M 359.144531 81.390625 L 364.113281 285.332031 L 16.214844 293.804688 L 11.25 89.863281 Z M 359.144531 81.390625 " clip-rule="nonzero"/></clipPath><clipPath id="0c3af1d181"><path d="M 359.144531 81.390625 L 364.113281 285.332031 L 16.214844 293.804688 L 11.25 89.863281 Z M 359.144531 81.390625 " clip-rule="nonzero"/></clipPath><clipPath id="e0686a7d1a"><path d="M 144 86 L 181 86 L 181 196 L 144 196 Z M 144 86 " clip-rule="nonzero"/></clipPath><clipPath id="2d87c16910"><path d="M 359.144531 81.390625 L 364.113281 285.332031 L 16.214844 293.804688 L 11.25 89.863281 Z M 359.144531 81.390625 " clip-rule="nonzero"/></clipPath><clipPath id="cfa0ed73b0"><path d="M 359.144531 81.390625 L 364.113281 285.332031 L 16.214844 293.804688 L 11.25 89.863281 Z M 359.144531 81.390625 " clip-rule="nonzero"/></clipPath><clipPath id="f293acd016"><path d="M 118 214 L 159 214 L 159 262 L 118 262 Z M 118 214 " clip-rule="nonzero"/></clipPath><clipPath id="ddcdd354c4"><path d="M 359.144531 81.390625 L 364.113281 285.332031 L 16.214844 293.804688 L 11.25 89.863281 Z M 359.144531 81.390625 " clip-rule="nonzero"/></clipPath><clipPath id="d5e2124a19"><path d="M 359.144531 81.390625 L 364.113281 285.332031 L 16.214844 293.804688 L 11.25 89.863281 Z M 359.144531 81.390625 " clip-rule="nonzero"/></clipPath><clipPath id="210d726e93"><path d="M 155 197 L 186 197 L 186 285 L 155 285 Z M 155 197 " clip-rule="nonzero"/></clipPath><clipPath id="694c19d2e5"><path d="M 359.144531 81.390625 L 364.113281 285.332031 L 16.214844 293.804688 L 11.25 89.863281 Z M 359.144531 81.390625 " clip-rule="nonzero"/></clipPath><clipPath id="576258c116"><path d="M 359.144531 81.390625 L 364.113281 285.332031 L 16.214844 293.804688 L 11.25 89.863281 Z M 359.144531 81.390625 " clip-rule="nonzero"/></clipPath><clipPath id="d7115ee5ed"><path d="M 188 256 L 230 256 L 230 288 L 188 288 Z M 188 256 " clip-rule="nonzero"/></clipPath><clipPath id="7864b3ac7a"><path d="M 359.144531 81.390625 L 364.113281 285.332031 L 16.214844 293.804688 L 11.25 89.863281 Z M 359.144531 81.390625 " clip-rule="nonzero"/></clipPath><clipPath id="77ead3d279"><path d="M 359.144531 81.390625 L 364.113281 285.332031 L 16.214844 293.804688 L 11.25 89.863281 Z M 359.144531 81.390625 " clip-rule="nonzero"/></clipPath><clipPath id="aa10e314eb"><path d="M 164 157 L 195 157 L 195 180 L 164 180 Z M 164 157 " clip-rule="nonzero"/></clipPath><clipPath id="6c19ace341"><path d="M 359.144531 81.390625 L 364.113281 285.332031 L 16.214844 293.804688 L 11.25 89.863281 Z M 359.144531 81.390625 " clip-rule="nonzero"/></clipPath><clipPath id="a792baa5f8"><path d="M 359.144531 81.390625 L 364.113281 285.332031 L 16.214844 293.804688 L 11.25 89.863281 Z M 359.144531 81.390625 " clip-rule="nonzero"/></clipPath><clipPath id="96d0ae5b81"><path d="M 163 194 L 185 194 L 185 225 L 163 225 Z M 163 194 " clip-rule="nonzero"/></clipPath><clipPath id="7557c815f7"><path d="M 359.144531 81.390625 L 364.113281 285.332031 L 16.214844 293.804688 L 11.25 89.863281 Z M 359.144531 81.390625 " clip-rule="nonzero"/></clipPath><clipPath id="74c5d89de4"><path d="M 359.144531 81.390625 L 364.113281 285.332031 L 16.214844 293.804688 L 11.25 89.863281 Z M 359.144531 81.390625 " clip-rule="nonzero"/></clipPath><clipPath id="550013b6f0"><path d="M 204 158 L 228 158 L 228 179 L 204 179 Z M 204 158 " clip-rule="nonzero"/></clipPath><clipPath id="7fa0e335dd"><path d="M 359.144531 81.390625 L 364.113281 285.332031 L 16.214844 293.804688 L 11.25 89.863281 Z M 359.144531 81.390625 " clip-rule="nonzero"/></clipPath><clipPath id="27ab32f757"><path d="M 359.144531 81.390625 L 364.113281 285.332031 L 16.214844 293.804688 L 11.25 89.863281 Z M 359.144531 81.390625 " clip-rule="nonzero"/></clipPath><clipPath id="40b6df0377"><path d="M 91 200 L 118 200 L 118 215 L 91 215 Z M 91 200 " clip-rule="nonzero"/></clipPath><clipPath id="e93dbdb256"><path d="M 359.144531 81.390625 L 364.113281 285.332031 L 16.214844 293.804688 L 11.25 89.863281 Z M 359.144531 81.390625 " clip-rule="nonzero"/></clipPath><clipPath id="55a5accac5"><path d="M 359.144531 81.390625 L 364.113281 285.332031 L 16.214844 293.804688 L 11.25 89.863281 Z M 359.144531 81.390625 " clip-rule="nonzero"/></clipPath><clipPath id="911f1ff887"><path d="M 225 201 L 238 201 L 238 224 L 225 224 Z M 225 201 " clip-rule="nonzero"/></clipPath><clipPath id="522b6bc726"><path d="M 359.144531 81.390625 L 364.113281 285.332031 L 16.214844 293.804688 L 11.25 89.863281 Z M 359.144531 81.390625 " clip-rule="nonzero"/></clipPath><clipPath id="8685baa911"><path d="M 359.144531 81.390625 L 364.113281 285.332031 L 16.214844 293.804688 L 11.25 89.863281 Z M 359.144531 81.390625 " clip-rule="nonzero"/></clipPath><clipPath id="ed3c4870fe"><path d="M 136 129 L 155 129 L 155 148 L 136 148 Z M 136 129 " clip-rule="nonzero"/></clipPath><clipPath id="8996afb7f5"><path d="M 359.144531 81.390625 L 364.113281 285.332031 L 16.214844 293.804688 L 11.25 89.863281 Z M 359.144531 81.390625 " clip-rule="nonzero"/></clipPath><clipPath id="7227d50a0e"><path d="M 359.144531 81.390625 L 364.113281 285.332031 L 16.214844 293.804688 L 11.25 89.863281 Z M 359.144531 81.390625 " clip-rule="nonzero"/></clipPath><clipPath id="469331b089"><path d="M 128 161 L 181 161 L 181 272 L 128 272 Z M 128 161 " clip-rule="nonzero"/></clipPath><clipPath id="2f755eccf9"><path d="M 359.144531 81.390625 L 364.113281 285.332031 L 16.214844 293.804688 L 11.25 89.863281 Z M 359.144531 81.390625 " clip-rule="nonzero"/></clipPath><clipPath id="c19265cfaa"><path d="M 359.144531 81.390625 L 364.113281 285.332031 L 16.214844 293.804688 L 11.25 89.863281 Z M 359.144531 81.390625 " clip-rule="nonzero"/></clipPath><clipPath id="fd41546ace"><path d="M 195 190 L 280 190 L 280 222 L 195 222 Z M 195 190 " clip-rule="nonzero"/></clipPath><clipPath id="e8b06add45"><path d="M 359.144531 81.390625 L 364.113281 285.332031 L 16.214844 293.804688 L 11.25 89.863281 Z M 359.144531 81.390625 " clip-rule="nonzero"/></clipPath><clipPath id="969e5502d9"><path d="M 359.144531 81.390625 L 364.113281 285.332031 L 16.214844 293.804688 L 11.25 89.863281 Z M 359.144531 81.390625 " clip-rule="nonzero"/></clipPath><clipPath id="02cb460365"><path d="M 115 139 L 137 139 L 137 179 L 115 179 Z M 115 139 " clip-rule="nonzero"/></clipPath><clipPath id="aa053934b1"><path d="M 359.144531 81.390625 L 364.113281 285.332031 L 16.214844 293.804688 L 11.25 89.863281 Z M 359.144531 81.390625 " clip-rule="nonzero"/></clipPath><clipPath id="938f0093f8"><path d="M 359.144531 81.390625 L 364.113281 285.332031 L 16.214844 293.804688 L 11.25 89.863281 Z M 359.144531 81.390625 " clip-rule="nonzero"/></clipPath><clipPath id="99b38d1ec0"><path d="M 168 89 L 185 89 L 185 154 L 168 154 Z M 168 89 " clip-rule="nonzero"/></clipPath><clipPath id="101a3791a2"><path d="M 359.144531 81.390625 L 364.113281 285.332031 L 16.214844 293.804688 L 11.25 89.863281 Z M 359.144531 81.390625 " clip-rule="nonzero"/></clipPath><clipPath id="bbc1467f6e"><path d="M 359.144531 81.390625 L 364.113281 285.332031 L 16.214844 293.804688 L 11.25 89.863281 Z M 359.144531 81.390625 " clip-rule="nonzero"/></clipPath><clipPath id="414063dbd8"><path d="M 208 208 L 251 208 L 251 250 L 208 250 Z M 208 208 " clip-rule="nonzero"/></clipPath><clipPath id="6b84f575e1"><path d="M 359.144531 81.390625 L 364.113281 285.332031 L 16.214844 293.804688 L 11.25 89.863281 Z M 359.144531 81.390625 " clip-rule="nonzero"/></clipPath><clipPath id="74b4bad2a7"><path d="M 359.144531 81.390625 L 364.113281 285.332031 L 16.214844 293.804688 L 11.25 89.863281 Z M 359.144531 81.390625 " clip-rule="nonzero"/></clipPath><clipPath id="fffaedd49f"><path d="M 208 134 L 251 134 L 251 172 L 208 172 Z M 208 134 " clip-rule="nonzero"/></clipPath><clipPath id="124ed42085"><path d="M 359.144531 81.390625 L 364.113281 285.332031 L 16.214844 293.804688 L 11.25 89.863281 Z M 359.144531 81.390625 " clip-rule="nonzero"/></clipPath><clipPath id="1023a0540c"><path d="M 359.144531 81.390625 L 364.113281 285.332031 L 16.214844 293.804688 L 11.25 89.863281 Z M 359.144531 81.390625 " clip-rule="nonzero"/></clipPath><clipPath id="a35b98f029"><path d="M 181 159 L 223 159 L 223 180 L 181 180 Z M 181 159 " clip-rule="nonzero"/></clipPath><clipPath id="17b72f3c58"><path d="M 359.144531 81.390625 L 364.113281 285.332031 L 16.214844 293.804688 L 11.25 89.863281 Z M 359.144531 81.390625 " clip-rule="nonzero"/></clipPath><clipPath id="9f4dddcd35"><path d="M 359.144531 81.390625 L 364.113281 285.332031 L 16.214844 293.804688 L 11.25 89.863281 Z M 359.144531 81.390625 " clip-rule="nonzero"/></clipPath><clipPath id="a692b922fd"><path d="M 247 180 L 295 180 L 295 188 L 247 188 Z M 247 180 " clip-rule="nonzero"/></clipPath><clipPath id="df66db01fb"><path d="M 359.144531 81.390625 L 364.113281 285.332031 L 16.214844 293.804688 L 11.25 89.863281 Z M 359.144531 81.390625 " clip-rule="nonzero"/></clipPath><clipPath id="72447ef623"><path d="M 359.144531 81.390625 L 364.113281 285.332031 L 16.214844 293.804688 L 11.25 89.863281 Z M 359.144531 81.390625 " clip-rule="nonzero"/></clipPath><clipPath id="4f07987383"><path d="M 313 177 L 362 177 L 362 185 L 313 185 Z M 313 177 " clip-rule="nonzero"/></clipPath><clipPath id="3ee11f13bd"><path d="M 359.144531 81.390625 L 364.113281 285.332031 L 16.214844 293.804688 L 11.25 89.863281 Z M 359.144531 81.390625 " clip-rule="nonzero"/></clipPath><clipPath id="8e16e37ee0"><path d="M 359.144531 81.390625 L 364.113281 285.332031 L 16.214844 293.804688 L 11.25 89.863281 Z M 359.144531 81.390625 " clip-rule="nonzero"/></clipPath><clipPath id="1d0a31a607"><path d="M 33 197 L 82 197 L 82 205 L 33 205 Z M 33 197 " clip-rule="nonzero"/></clipPath><clipPath id="bfa278e8ff"><path d="M 359.144531 81.390625 L 364.113281 285.332031 L 16.214844 293.804688 L 11.25 89.863281 Z M 359.144531 81.390625 " clip-rule="nonzero"/></clipPath><clipPath id="bfaa3908ea"><path d="M 359.144531 81.390625 L 364.113281 285.332031 L 16.214844 293.804688 L 11.25 89.863281 Z M 359.144531 81.390625 " clip-rule="nonzero"/></clipPath><clipPath id="3866633965"><path d="M 64 183 L 106 183 L 106 196 L 64 196 Z M 64 183 " clip-rule="nonzero"/></clipPath><clipPath id="fbd61f68ed"><path d="M 359.144531 81.390625 L 364.113281 285.332031 L 16.214844 293.804688 L 11.25 89.863281 Z M 359.144531 81.390625 " clip-rule="nonzero"/></clipPath><clipPath id="223846f5c7"><path d="M 359.144531 81.390625 L 364.113281 285.332031 L 16.214844 293.804688 L 11.25 89.863281 Z M 359.144531 81.390625 " clip-rule="nonzero"/></clipPath><clipPath id="1d883a2036"><path d="M 127 206 L 155 206 L 155 243 L 127 243 Z M 127 206 " clip-rule="nonzero"/></clipPath><clipPath id="175577250d"><path d="M 359.144531 81.390625 L 364.113281 285.332031 L 16.214844 293.804688 L 11.25 89.863281 Z M 359.144531 81.390625 " clip-rule="nonzero"/></clipPath><clipPath id="5b200ff038"><path d="M 359.144531 81.390625 L 364.113281 285.332031 L 16.214844 293.804688 L 11.25 89.863281 Z M 359.144531 81.390625 " clip-rule="nonzero"/></clipPath><clipPath id="eeee5a1ba0"><path d="M 91 198 L 125 198 L 125 208 L 91 208 Z M 91 198 " clip-rule="nonzero"/></clipPath><clipPath id="fe19c6e808"><path d="M 359.144531 81.390625 L 364.113281 285.332031 L 16.214844 293.804688 L 11.25 89.863281 Z M 359.144531 81.390625 " clip-rule="nonzero"/></clipPath><clipPath id="f67445d23d"><path d="M 359.144531 81.390625 L 364.113281 285.332031 L 16.214844 293.804688 L 11.25 89.863281 Z M 359.144531 81.390625 " clip-rule="nonzero"/></clipPath><clipPath id="fe36767615"><path d="M 205 250 L 235 250 L 235 264 L 205 264 Z M 205 250 " clip-rule="nonzero"/></clipPath><clipPath id="7f8e35bfa3"><path d="M 359.144531 81.390625 L 364.113281 285.332031 L 16.214844 293.804688 L 11.25 89.863281 Z M 359.144531 81.390625 " clip-rule="nonzero"/></clipPath><clipPath id="7e6b131276"><path d="M 359.144531 81.390625 L 364.113281 285.332031 L 16.214844 293.804688 L 11.25 89.863281 Z M 359.144531 81.390625 " clip-rule="nonzero"/></clipPath><clipPath id="e71bd70e4c"><path d="M 120 219 L 139 219 L 139 242 L 120 242 Z M 120 219 " clip-rule="nonzero"/></clipPath><clipPath id="2e4548def2"><path d="M 359.144531 81.390625 L 364.113281 285.332031 L 16.214844 293.804688 L 11.25 89.863281 Z M 359.144531 81.390625 " clip-rule="nonzero"/></clipPath><clipPath id="3f03a1cc97"><path d="M 359.144531 81.390625 L 364.113281 285.332031 L 16.214844 293.804688 L 11.25 89.863281 Z M 359.144531 81.390625 " clip-rule="nonzero"/></clipPath><clipPath id="7d117eb3b6"><path d="M 166 195 L 220 195 L 220 266 L 166 266 Z M 166 195 " clip-rule="nonzero"/></clipPath><clipPath id="162a667d77"><path d="M 359.144531 81.390625 L 364.113281 285.332031 L 16.214844 293.804688 L 11.25 89.863281 Z M 359.144531 81.390625 " clip-rule="nonzero"/></clipPath><clipPath id="bfc6d803b7"><path d="M 359.144531 81.390625 L 364.113281 285.332031 L 16.214844 293.804688 L 11.25 89.863281 Z M 359.144531 81.390625 " clip-rule="nonzero"/></clipPath><clipPath id="bfb73f59dc"><path d="M 163 94 L 185 94 L 185 180 L 163 180 Z M 163 94 " clip-rule="nonzero"/></clipPath><clipPath id="d93a4471e2"><path d="M 359.144531 81.390625 L 364.113281 285.332031 L 16.214844 293.804688 L 11.25 89.863281 Z M 359.144531 81.390625 " clip-rule="nonzero"/></clipPath><clipPath id="65ffdcdf1f"><path d="M 359.144531 81.390625 L 364.113281 285.332031 L 16.214844 293.804688 L 11.25 89.863281 Z M 359.144531 81.390625 " clip-rule="nonzero"/></clipPath><clipPath id="df56ea6670"><path d="M 181 165 L 223 165 L 223 192 L 181 192 Z M 181 165 " clip-rule="nonzero"/></clipPath><clipPath id="a0d126c3bd"><path d="M 359.144531 81.390625 L 364.113281 285.332031 L 16.214844 293.804688 L 11.25 89.863281 Z M 359.144531 81.390625 " clip-rule="nonzero"/></clipPath><clipPath id="7dac106072"><path d="M 359.144531 81.390625 L 364.113281 285.332031 L 16.214844 293.804688 L 11.25 89.863281 Z M 359.144531 81.390625 " clip-rule="nonzero"/></clipPath><clipPath id="7380045f91"><path d="M 181 230 L 200 230 L 200 279 L 181 279 Z M 181 230 " clip-rule="nonzero"/></clipPath><clipPath id="b4d9864c26"><path d="M 359.144531 81.390625 L 364.113281 285.332031 L 16.214844 293.804688 L 11.25 89.863281 Z M 359.144531 81.390625 " clip-rule="nonzero"/></clipPath><clipPath id="25049e8cba"><path d="M 359.144531 81.390625 L 364.113281 285.332031 L 16.214844 293.804688 L 11.25 89.863281 Z M 359.144531 81.390625 " clip-rule="nonzero"/></clipPath><clipPath id="5eb75fcaed"><path d="M 187 107 L 200 107 L 200 156 L 187 156 Z M 187 107 " clip-rule="nonzero"/></clipPath><clipPath id="d58ae41c09"><path d="M 359.144531 81.390625 L 364.113281 285.332031 L 16.214844 293.804688 L 11.25 89.863281 Z M 359.144531 81.390625 " clip-rule="nonzero"/></clipPath><clipPath id="cf98ade430"><path d="M 359.144531 81.390625 L 364.113281 285.332031 L 16.214844 293.804688 L 11.25 89.863281 Z M 359.144531 81.390625 " clip-rule="nonzero"/></clipPath><clipPath id="068e6b2172"><path d="M 151 182 L 164 182 L 164 191 L 151 191 Z M 151 182 " clip-rule="nonzero"/></clipPath><clipPath id="5ab9681e46"><path d="M 359.144531 81.390625 L 364.113281 285.332031 L 16.214844 293.804688 L 11.25 89.863281 Z M 359.144531 81.390625 " clip-rule="nonzero"/></clipPath><clipPath id="a565d4dc8c"><path d="M 359.144531 81.390625 L 364.113281 285.332031 L 16.214844 293.804688 L 11.25 89.863281 Z M 359.144531 81.390625 " clip-rule="nonzero"/></clipPath></defs><rect x="-37.5" width="450" fill="#ffffff" y="-37.499999" height="449.999989" fill-opacity="1"/><rect x="-37.5" width="450" fill="#ffffff" y="-37.499999" height="449.999989" fill-opacity="1"/><g clip-path="url(#bdcb49d5f8)"><g clip-path="url(#30e0f760fb)"><g clip-path="url(#8921db7bfb)"><path fill="#1c1215" d="M 185.515625 175.121094 C 195.523438 169.78125 205.316406 172.484375 210.683594 182.078125 C 215.976562 191.535156 212.839844 204.730469 204.210938 209.328125 C 194.796875 214.34375 182.121094 211.085938 177.628906 202.496094 C 172.601562 192.882812 176.300781 180.039062 185.515625 175.121094 " fill-opacity="1" fill-rule="nonzero"/></g></g></g><g clip-path="url(#f55e66a184)"><g clip-path="url(#8b2561d252)"><g clip-path="url(#c761f79504)"><path fill="#a356a2" d="M 206.691406 123.902344 C 204.410156 121.898438 202.160156 120.910156 199.324219 121.503906 C 199.15625 121.539062 198.917969 122.488281 199.082031 122.664062 C 201.058594 124.757812 203.351562 125.625 206.691406 123.902344 Z M 237.492188 149.671875 C 236.964844 148.425781 236.554688 147.113281 235.894531 145.941406 C 234.589844 143.632812 235.472656 142.117188 237.464844 140.890625 C 239.390625 138.863281 237.101562 139.136719 236.234375 138.632812 C 230.289062 132.789062 222.417969 129.757812 215.886719 124.746094 C 214.214844 123.460938 211.851562 124.035156 209.769531 124.359375 C 208.78125 123.757812 207.507812 123.25 206.816406 124.300781 C 205.984375 125.554688 207.324219 126.214844 208.269531 126.648438 C 209.253906 127.097656 210.34375 127.304688 211.386719 127.621094 C 215.03125 128.503906 218.039062 130.695312 220.941406 132.828125 C 223.011719 134.351562 224.4375 136.882812 222.65625 139.625 C 221.128906 141.988281 218.738281 141.976562 216.375 141.109375 C 211.785156 139.429688 207.234375 137.640625 202.574219 135.859375 C 201.101562 140.164062 202.339844 144.34375 202.101562 148.464844 C 202.007812 150.085938 202.101562 151.738281 201.828125 153.320312 C 201.609375 154.5625 200.539062 155.222656 199.273438 155.367188 C 198.195312 155.488281 197.332031 154.808594 197.070312 153.980469 C 196.453125 152.007812 195.195312 150.34375 195.066406 148.089844 C 194.433594 136.988281 192.144531 126.207031 188.371094 115.722656 C 187.871094 114.332031 188.722656 112.484375 187.277344 111.21875 C 187.769531 109.785156 187.082031 108.695312 186.242188 107.644531 C 185.808594 105.972656 185.265625 104.351562 184.054688 103.046875 C 184.382812 101.730469 183.855469 100.664062 183.097656 99.65625 C 182.796875 97.835938 181.96875 95.292969 184.054688 94.703125 C 186.066406 94.128906 188.726562 94.808594 189.910156 97.273438 C 191.53125 100.648438 193.191406 104.023438 194.539062 107.515625 C 196.902344 113.628906 201.726562 116.886719 208.238281 115.816406 C 209.945312 115.535156 211.53125 115.273438 212.945312 115.957031 C 223.367188 121 233.820312 125.992188 242.089844 134.476562 C 244.683594 137.136719 246.925781 139.675781 244.859375 143.589844 C 244.011719 145.191406 245.078125 146.222656 245.703125 147.414062 C 247.335938 150.511719 248.972656 153.609375 250.609375 156.703125 C 250.882812 157.511719 251.257812 157.765625 251.832031 156.929688 C 254.160156 155.851562 256.128906 155.664062 257.648438 158.390625 C 260.171875 162.917969 263.152344 167.199219 265.507812 171.800781 C 268.511719 177.660156 266.765625 180.332031 260.070312 180.125 C 257.925781 180.058594 257.707031 181.023438 257.589844 182.421875 C 257.472656 183.828125 258.152344 184.441406 259.710938 184.308594 C 261.769531 184.136719 263.863281 184.367188 265.929688 184.242188 C 282.582031 183.230469 299.164062 181.347656 315.84375 180.582031 C 323.882812 180.210938 331.832031 178.175781 339.941406 177.929688 C 344.085938 177.804688 348.234375 177.777344 352.382812 177.84375 C 354.4375 177.878906 357.144531 177.628906 357.347656 180.5 C 357.558594 183.398438 354.972656 183.359375 352.863281 183.621094 C 344.996094 184.601562 337.136719 185.664062 329.273438 186.660156 C 306.78125 189.515625 284.640625 193.910156 263.285156 201.726562 C 261.96875 202.210938 260.746094 203.019531 259.242188 202.578125 C 258.289062 202.296875 257.613281 201.722656 257.199219 200.804688 C 256.644531 199.570312 257.613281 199.050781 258.34375 198.605469 C 259.945312 197.621094 261.640625 196.792969 263.296875 195.898438 C 264.980469 195.398438 267.109375 195.625 267.824219 192.953125 C 265.84375 193.171875 264.074219 193.367188 262.304688 193.5625 C 255.332031 193.324219 248.351562 194.292969 241.378906 193.511719 C 240 193.359375 238.601562 193.371094 237.230469 193.179688 C 235.6875 192.964844 234.511719 192.054688 234.453125 190.480469 C 234.40625 189.140625 235.835938 188.78125 236.796875 188.191406 C 240.503906 185.917969 244.59375 185.671875 248.78125 185.910156 C 250.402344 186.410156 251.917969 186.191406 253.578125 185.089844 C 252.53125 183.320312 251.492188 181.570312 250.457031 179.816406 C 248.070312 177.304688 249.273438 173.484375 247.203125 170.855469 C 247.53125 169.023438 246.65625 167.613281 245.601562 166.261719 C 244.949219 164.203125 244.324219 162.125 242.710938 160.546875 C 242.386719 156.238281 239.558594 153.140625 237.492188 149.671875 " fill-opacity="1" fill-rule="nonzero"/></g></g></g><g clip-path="url(#a3777e3c86)"><g clip-path="url(#f13e686913)"><g clip-path="url(#a524d7c6ba)"><g clip-path="url(#57db936ff2)"><path fill="#a356a2" d="M 139.246094 191.308594 C 139.765625 196.4375 139.785156 196.691406 135.414062 197.066406 C 126.917969 197.789062 118.390625 198.179688 109.882812 198.757812 C 107.605469 198.910156 104.894531 197.925781 103.535156 200.878906 L 103.621094 200.914062 C 102.582031 198.761719 101.003906 198.683594 98.429688 200.644531 L 98.589844 200.671875 C 98.324219 198.867188 97.335938 199.746094 96.488281 200.101562 L 96.664062 200.121094 C 95.011719 198.929688 93.199219 199.667969 91.445312 199.683594 C 72.871094 199.738281 54.289062 199.777344 35.714844 199.863281 C 30.816406 199.882812 25.921875 200.109375 21.023438 200.136719 C 19.394531 200.144531 17.75 199.90625 16.140625 199.617188 C 15.054688 199.421875 13.492188 199.375 13.53125 197.859375 C 13.558594 196.601562 14.765625 195.96875 16.003906 195.871094 C 21.070312 195.476562 26.191406 194.511719 31.199219 194.917969 C 36.828125 195.375 42.320312 194.929688 47.824219 194.265625 C 55.671875 193.320312 63.5625 194.414062 71.382812 193.488281 C 73.9375 193.183594 77.214844 194.320312 78.242188 190.269531 C 78.605469 188.828125 80.175781 189.6875 81.289062 189.734375 C 85.378906 189.902344 88.984375 188.726562 92.449219 186.371094 C 96.324219 183.738281 100.558594 181.613281 104.734375 179.453125 C 107.492188 178.027344 108.71875 175.8125 109.285156 172.898438 C 110.714844 165.515625 113.460938 158.53125 116.113281 151.535156 C 118.40625 145.484375 121.515625 139.132812 126.5625 135.75 C 131.746094 132.273438 134.417969 126.574219 139.882812 123.683594 C 145.273438 120.828125 150.386719 117.449219 155.695312 114.421875 C 159.222656 112.410156 162.136719 112.929688 165.445312 115.828125 C 165.453125 119.058594 163.03125 120.023438 160.660156 121.230469 C 155.617188 123.789062 150.566406 126.363281 145.714844 129.253906 C 136.105469 134.980469 129.148438 142.96875 125.773438 153.8125 C 124.820312 155.289062 124.035156 156.835938 123.777344 158.605469 C 118.96875 168.777344 117.707031 173.035156 118.375 177.695312 C 120.894531 171.179688 123.734375 165.320312 125.117188 158.917969 C 126.316406 157.601562 127.074219 156.082031 127.214844 154.285156 C 128.375 153.632812 129.351562 152.074219 130.890625 152.957031 C 132.347656 153.792969 132.15625 155.25 131.628906 156.671875 C 128.398438 165.363281 126.433594 174.484375 121.984375 183.339844 C 128.644531 183.355469 134.453125 181.582031 140.390625 180.871094 C 142.476562 180.625 144.945312 180.027344 146.132812 182.1875 C 147.601562 184.867188 145.378906 186.410156 143.460938 187.832031 C 143.089844 188.105469 142.789062 188.480469 142.457031 188.808594 C 141.558594 189.148438 140.660156 189.488281 139.761719 189.828125 C 138.910156 190.089844 138.226562 190.402344 139.246094 191.308594 " fill-opacity="1" fill-rule="nonzero"/></g></g></g></g><g clip-path="url(#9bf4a1f8d3)"><g clip-path="url(#6fba0ba31a)"><g clip-path="url(#0c3af1d181)"><path fill="#a356a2" d="M 223.800781 215.808594 C 217.472656 222.007812 210.554688 227.101562 201.140625 227.214844 C 201.261719 235.226562 201.371094 242.640625 201.5 251.308594 C 210.421875 244.949219 220.929688 245.34375 229.519531 240.300781 C 230.34375 239.820312 231.238281 239.074219 232.066406 239.703125 C 235.992188 242.699219 237.011719 239.402344 238.226562 236.863281 C 242.613281 227.703125 248.59375 219.257812 250.820312 209.121094 C 251.222656 207.28125 252.214844 206.128906 254.113281 206.085938 C 256.507812 206.027344 257.089844 207.714844 257.5625 209.710938 C 258.988281 215.746094 257.523438 221.5 255.179688 226.828125 C 252 234.054688 248.175781 241.003906 243.011719 247.144531 C 240.613281 249.996094 238.191406 251.53125 234.515625 250.042969 C 233.9375 249.3125 233.796875 247.78125 232.257812 248.808594 C 223.464844 253.535156 214.210938 256.566406 204.109375 256.503906 C 203.277344 255.394531 202.449219 254.28125 201.617188 253.171875 C 201.578125 252.339844 202.078125 250.804688 201.046875 250.882812 C 196.058594 251.265625 196.332031 247.96875 196.203125 244.652344 C 196.039062 240.417969 194.945312 236.101562 195.507812 231.992188 C 196.394531 225.542969 195.964844 218.101562 204.117188 215.078125 C 208.644531 213.398438 210.925781 208.9375 214.265625 205.816406 C 221.191406 199.335938 221.863281 199.136719 227.503906 206.289062 C 227.710938 207.332031 226.722656 208.808594 228.578125 209.257812 L 228.597656 209.101562 C 227.078125 209.453125 226.914062 210.160156 228.050781 211.203125 L 228.097656 211.054688 C 225.933594 211.980469 223.722656 212.859375 223.800781 215.808594 " fill-opacity="1" fill-rule="nonzero"/></g></g></g><g clip-path="url(#e0686a7d1a)"><g clip-path="url(#2d87c16910)"><g clip-path="url(#cfa0ed73b0)"><path fill="#a356a2" d="M 144.183594 190.910156 C 145.703125 186.527344 151 185.59375 152.765625 181.113281 C 154.117188 177.683594 156.28125 174.539062 157.183594 170.859375 C 157.460938 169.722656 157.503906 168.203125 158.253906 167.566406 C 163.351562 163.246094 162.339844 157.113281 163.183594 151.574219 C 164.980469 139.777344 166.617188 127.957031 168.316406 116.144531 C 168.75 106.433594 172.136719 97.476562 175.433594 88.507812 C 175.941406 87.121094 177.207031 85.980469 178.703125 86.75 C 179.976562 87.402344 180.210938 88.898438 179.945312 90.453125 C 178.722656 97.59375 177.542969 104.742188 176.449219 111.902344 C 173.660156 130.164062 169.3125 148.15625 167.082031 166.515625 C 162.902344 169.136719 163.183594 173.792969 161.96875 177.761719 C 160.203125 180.003906 162.410156 181.109375 163.394531 182.488281 C 165.578125 185.554688 164.847656 188.433594 162.390625 190.652344 C 158.824219 193.875 154.300781 195.214844 149.554688 195.449219 C 146.550781 195.59375 144.847656 193.757812 144.183594 190.910156 " fill-opacity="1" fill-rule="nonzero"/></g></g></g><g clip-path="url(#f293acd016)"><g clip-path="url(#ddcdd354c4)"><g clip-path="url(#d5e2124a19)"><path fill="#a356a2" d="M 118.617188 226.605469 C 120.058594 222.609375 121.953125 221.726562 124.640625 224.089844 C 126.347656 225.59375 127.65625 227.554688 129.960938 228.882812 C 128.730469 226.136719 128.042969 222.910156 126.136719 220.765625 C 123.46875 217.757812 126.363281 216.226562 126.949219 214.066406 C 128.859375 214.65625 131.09375 214.335938 132.34375 216.589844 C 137.511719 225.933594 144.578125 233.640625 152.683594 240.550781 C 156.546875 243.847656 155.433594 246.242188 149.152344 248.363281 C 151.835938 250.785156 154.417969 252.980469 156.835938 255.347656 C 158.035156 256.519531 158.816406 258.058594 157.941406 259.8125 C 156.890625 261.929688 155.167969 260.800781 153.652344 260.589844 C 150.042969 260.089844 147.214844 257.871094 144.578125 255.746094 C 137.269531 249.871094 129.679688 244.226562 124.320312 236.300781 C 122.417969 233.066406 120.519531 229.835938 118.617188 226.605469 " fill-opacity="1" fill-rule="nonzero"/></g></g></g><g clip-path="url(#210d726e93)"><g clip-path="url(#694c19d2e5)"><g clip-path="url(#576258c116)"><path fill="#a356a2" d="M 165.34375 211.769531 C 167.019531 224.328125 168.265625 236.964844 170.503906 249.425781 C 172.460938 260.347656 178.03125 269.9375 183.890625 279.261719 C 184.804688 280.710938 187.25 282.167969 185.179688 283.9375 C 183.144531 285.679688 181.324219 283.976562 179.894531 282.265625 C 179.597656 281.910156 179.21875 281.621094 178.875 281.300781 C 174.804688 274.425781 170.734375 267.546875 166.664062 260.671875 C 161.753906 250.261719 160.464844 239.109375 159.097656 227.820312 C 158.363281 221.761719 157.902344 215.574219 156.539062 209.554688 C 156.035156 207.320312 155.742188 204.980469 155.777344 202.695312 C 155.832031 199.257812 157.496094 197.996094 161.324219 197.992188 C 162.222656 199.683594 163.125 201.378906 164.023438 203.070312 L 164.015625 202.871094 C 163.296875 206.007812 164.628906 208.84375 165.34375 211.769531 " fill-opacity="1" fill-rule="nonzero"/></g></g></g><g clip-path="url(#d7115ee5ed)"><g clip-path="url(#7864b3ac7a)"><g clip-path="url(#77ead3d279)"><path fill="#a356a2" d="M 188.230469 285.695312 C 190.1875 279.722656 191.476562 273.515625 194.253906 267.828125 C 196.402344 263.433594 196.59375 263.253906 200.597656 265.886719 C 202.167969 266.921875 202.910156 266.417969 204.222656 265.863281 C 211.136719 262.957031 218.109375 260.171875 225.066406 257.363281 C 226.535156 256.773438 228.179688 255.648438 229.257812 257.859375 C 230.117188 259.621094 228.65625 260.382812 227.492188 261.085938 C 221.230469 264.863281 214.429688 267.328125 207.339844 268.976562 C 205.492188 269.402344 203.660156 268.824219 201.75 267.542969 C 200.167969 273.226562 198.796875 278.871094 196.035156 283.984375 C 194.476562 286.875 192.527344 289.132812 188.820312 286.953125 C 188.753906 286.46875 188.558594 286.050781 188.230469 285.695312 " fill-opacity="1" fill-rule="nonzero"/></g></g></g><g clip-path="url(#aa10e314eb)"><g clip-path="url(#6c19ace341)"><g clip-path="url(#a792baa5f8)"><path fill="#a356a2" d="M 168.441406 168.734375 C 173.449219 164.003906 179.449219 160.824219 185.570312 157.855469 C 188.09375 156.632812 192.738281 158.238281 194.03125 160.605469 C 195.328125 162.980469 193.742188 166.089844 190.363281 167.765625 C 189.734375 168.078125 189.089844 168.375 188.421875 168.589844 C 182.550781 170.460938 177.191406 173.085938 172.691406 177.507812 C 169.960938 180.191406 167.785156 179.589844 164.816406 176.242188 C 165.359375 173.417969 167.035156 171.140625 168.441406 168.734375 " fill-opacity="1" fill-rule="nonzero"/></g></g></g><g clip-path="url(#96d0ae5b81)"><g clip-path="url(#7557c815f7)"><g clip-path="url(#74c5d89de4)"><path fill="#a356a2" d="M 163.429688 196.746094 C 164.472656 193.355469 166.574219 193.578125 168.648438 195.527344 C 169.992188 196.785156 170.921875 198.53125 171.855469 200.164062 C 175.378906 206.296875 178.914062 212.421875 183.089844 218.152344 C 184.308594 219.828125 186.113281 221.660156 184.042969 223.6875 C 182.117188 225.574219 180.109375 224.0625 178.269531 223.058594 C 177.652344 222.722656 177.113281 222.246094 176.539062 221.832031 C 176 220.628906 175.34375 219.546875 173.90625 219.257812 C 173.433594 217.578125 172.28125 216.375 171.058594 215.21875 C 168.710938 211.101562 166.363281 206.984375 164.015625 202.871094 L 164.023438 203.070312 C 165.46875 200.808594 164.03125 198.816406 163.429688 196.746094 " fill-opacity="1" fill-rule="nonzero"/></g></g></g><g clip-path="url(#550013b6f0)"><g clip-path="url(#7fa0e335dd)"><g clip-path="url(#27ab32f757)"><path fill="#a356a2" d="M 204.15625 162.824219 C 204.4375 160.386719 204.644531 158.652344 208.261719 158.875 C 214.59375 159.265625 224.511719 165.34375 226.667969 171.402344 C 227.410156 173.492188 228.449219 176.054688 225.882812 177.78125 C 223.621094 179.300781 221.792969 177.722656 220.265625 176.339844 C 215.957031 172.429688 211.453125 168.847656 206.097656 166.460938 C 205.453125 165.25 204.804688 164.035156 204.15625 162.824219 " fill-opacity="1" fill-rule="nonzero"/></g></g></g><g clip-path="url(#40b6df0377)"><g clip-path="url(#e93dbdb256)"><g clip-path="url(#55a5accac5)"><path fill="#a356a2" d="M 103.535156 200.878906 C 105.582031 202.5625 108.085938 203.292969 110.453125 204.34375 C 113.230469 205.578125 115.574219 207.515625 117.199219 210.1875 C 117.898438 211.339844 117.640625 212.511719 117.152344 213.5625 C 116.519531 214.917969 115.238281 214.527344 114.082031 214.382812 C 109.394531 213.800781 105.5625 210.851562 101.039062 209.632812 C 98.953125 209.070312 96.773438 207.820312 94.539062 207.386719 C 90.554688 206.613281 91.90625 204.472656 92.910156 202.292969 C 94.210938 201.652344 95.988281 201.835938 96.664062 200.121094 L 96.488281 200.101562 C 96.777344 201.820312 97.699219 201.175781 98.589844 200.671875 C 98.589844 200.671875 98.429688 200.644531 98.429688 200.644531 C 100.097656 201.917969 101.777344 202.988281 103.621094 200.914062 L 103.535156 200.878906 " fill-opacity="1" fill-rule="nonzero"/></g></g></g><g clip-path="url(#911f1ff887)"><g clip-path="url(#522b6bc726)"><g clip-path="url(#8685baa911)"><path fill="#a356a2" d="M 229.238281 205.476562 C 230.070312 203.898438 229.214844 201.023438 232.769531 201.613281 C 235.410156 202.054688 237.15625 203.191406 237.546875 205.753906 C 238.511719 212.089844 236.417969 217.585938 232.503906 222.496094 C 231.296875 224.011719 229.304688 223.917969 228.082031 223.523438 C 225.707031 222.757812 226 220.28125 226.007812 218.203125 C 227.25 215.980469 229.289062 213.992188 228.097656 211.054688 C 228.097656 211.054688 228.050781 211.203125 228.050781 211.203125 C 229.265625 210.769531 229.148438 209.992188 228.597656 209.101562 C 228.597656 209.101562 228.578125 209.257812 228.578125 209.257812 C 229.828125 208.175781 229.480469 206.816406 229.238281 205.476562 " fill-opacity="1" fill-rule="nonzero"/></g></g></g><g clip-path="url(#ed3c4870fe)"><g clip-path="url(#8996afb7f5)"><g clip-path="url(#7227d50a0e)"><path fill="#a356a2" d="M 154.027344 130.679688 C 155.183594 132.257812 154.703125 133.738281 153.753906 134.703125 C 149.824219 138.691406 145.820312 142.613281 141.65625 146.351562 C 140.40625 147.476562 138.53125 147.484375 137.246094 145.972656 C 136.183594 144.726562 136.476562 143.179688 137.359375 142.089844 C 141.058594 137.535156 145.375 133.621094 150.371094 130.511719 C 151.617188 129.730469 152.996094 129.59375 154.027344 130.679688 " fill-opacity="1" fill-rule="nonzero"/></g></g></g><g clip-path="url(#469331b089)"><g clip-path="url(#2f755eccf9)"><g clip-path="url(#c19265cfaa)"><path fill="#fac74e" d="M 143.453125 185.554688 C 144.078125 182.472656 146.980469 182.023438 149.117188 180.757812 C 156.253906 176.523438 163.128906 172.097656 165.625 163.429688 C 166.046875 161.96875 167.242188 160.976562 168.8125 161.210938 C 170.960938 161.527344 171.089844 163.34375 170.988281 165.023438 C 170.75 169.023438 168.339844 171.964844 165.964844 174.894531 C 162.199219 179.550781 156.984375 182.367188 152.152344 185.664062 C 150.5625 186.332031 148.878906 186.871094 147.75 188.359375 C 149.480469 189.867188 151.089844 190.019531 152.683594 190.207031 C 154.699219 191.410156 156.800781 192.496094 158.71875 193.84375 C 163.871094 197.460938 167.363281 201.785156 168.328125 208.601562 C 170.332031 222.777344 171.050781 237.117188 174.085938 251.171875 C 175.234375 256.503906 177.109375 261.507812 178.929688 266.574219 C 179.539062 268.261719 181.269531 270.207031 178.871094 271.472656 C 176.546875 272.699219 175.039062 270.925781 173.726562 269.054688 C 171.121094 265.332031 170.332031 261.003906 169.179688 256.753906 C 165.101562 241.730469 164.886719 226.15625 162.460938 210.902344 C 161.011719 201.773438 156.335938 196.882812 147.285156 195.308594 C 143.804688 194.707031 140.28125 194.355469 136.726562 194.632812 C 134.585938 194.800781 132.492188 194.523438 130.460938 193.832031 C 129.027344 193.347656 127.820312 192.5 128.042969 190.835938 C 128.253906 189.222656 129.578125 188.488281 131.082031 188.421875 C 133.433594 188.316406 135.792969 188.492188 138.140625 188.367188 C 139.519531 188.292969 140.980469 188.121094 141.960938 186.871094 C 142.546875 187.527344 143.480469 188.253906 144.089844 187.714844 C 144.757812 187.121094 143.972656 186.210938 143.453125 185.554688 " fill-opacity="1" fill-rule="nonzero"/></g></g></g><g clip-path="url(#fd41546ace)"><g clip-path="url(#e8b06add45)"><g clip-path="url(#969e5502d9)"><path fill="#fac74e" d="M 279.488281 192.191406 C 280.359375 196.597656 277.277344 196.730469 274.351562 196.824219 C 264.234375 197.160156 254.152344 197.917969 244.074219 198.957031 C 239.214844 199.457031 234.441406 201.421875 229.445312 200.167969 C 227.929688 199.789062 227.324219 200.566406 226.917969 201.804688 C 222.675781 214.753906 210.390625 216.769531 200.09375 221.449219 C 198.582031 222.136719 196.707031 222.269531 195.925781 220.199219 C 195.199219 218.277344 196.421875 216.960938 197.960938 216.226562 C 201.984375 214.300781 206.09375 212.542969 210.183594 210.746094 C 215.078125 208.589844 219.140625 205.617188 221.136719 200.359375 C 222.023438 198.015625 223.414062 196.117188 226.449219 197.351562 C 226.667969 197.441406 226.984375 197.632812 227.105469 197.554688 C 237.347656 190.925781 249.363281 193.464844 260.421875 191.085938 C 263.175781 191.105469 265.929688 191.148438 268.683594 191.148438 C 272.320312 191.144531 276.050781 190.144531 279.488281 192.191406 " fill-opacity="1" fill-rule="nonzero"/></g></g></g><g clip-path="url(#02cb460365)"><g clip-path="url(#aa053934b1)"><g clip-path="url(#938f0093f8)"><path fill="#fac74e" d="M 127.953125 158.578125 C 127.902344 158.761719 127.847656 158.945312 127.796875 159.128906 C 127.820312 158.9375 127.84375 158.746094 127.867188 158.550781 C 127.875 158.386719 127.886719 158.21875 127.894531 158.054688 C 127.914062 158.230469 127.933594 158.402344 127.953125 158.578125 Z M 120.964844 177.472656 C 116.535156 178.972656 114.992188 178.183594 115.453125 174.308594 C 115.894531 170.585938 117.171875 167.039062 118.558594 163.53125 C 121.230469 156.757812 124.242188 150.164062 128.316406 144.101562 C 129.226562 142.75 130.183594 141.347656 131.417969 140.324219 C 133.386719 138.683594 135.574219 139.765625 135.902344 142.347656 C 136.800781 149.5 136.699219 150.242188 133.558594 159.347656 C 131.867188 164.253906 131.09375 169.34375 130.453125 174.464844 C 130.25 176.097656 129.828125 177.835938 127.871094 178.25 C 125.691406 178.710938 125.285156 176.710938 124.375 175.457031 C 124.402344 174.03125 124.429688 172.601562 124.449219 171.175781 C 125.519531 168.601562 126.910156 166.074219 125.597656 163.160156 C 125.769531 163.027344 125.988281 162.921875 126.097656 162.75 C 126.160156 162.648438 126.054688 162.433594 126.023438 162.273438 C 125.925781 162.582031 125.832031 162.894531 125.738281 163.203125 C 123.4375 165.230469 123.078125 167.960938 123.003906 170.792969 C 121.539062 172.777344 121.0625 175.066406 120.964844 177.472656 " fill-opacity="1" fill-rule="nonzero"/></g></g></g><g clip-path="url(#99b38d1ec0)"><g clip-path="url(#101a3791a2)"><g clip-path="url(#bbc1467f6e)"><path fill="#fac74e" d="M 183.742188 90.464844 C 184.628906 91.746094 184.414062 92.925781 183.980469 94.019531 C 177.273438 110.929688 176.667969 128.941406 174.433594 146.660156 C 174.316406 147.59375 174.171875 148.53125 174.144531 149.46875 C 174.078125 151.714844 173.792969 154.203125 170.945312 153.917969 C 168 153.625 168.480469 150.753906 168.648438 148.800781 C 169.925781 133.785156 171.347656 118.777344 174.65625 104.035156 C 175.480469 100.359375 176.40625 96.6875 178.1875 93.320312 C 178.734375 92.292969 179.257812 91.160156 180.085938 90.398438 C 181.28125 89.296875 182.660156 89.628906 183.742188 90.464844 " fill-opacity="1" fill-rule="nonzero"/></g></g></g><g clip-path="url(#414063dbd8)"><g clip-path="url(#6b84f575e1)"><g clip-path="url(#74b4bad2a7)"><path fill="#fac74e" d="M 228.636719 243.734375 C 223.847656 246.960938 218.28125 248.011719 212.882812 249.453125 C 211.175781 249.90625 209.484375 249.25 209.035156 247.300781 C 208.609375 245.480469 210.265625 245.050781 211.476562 244.445312 C 211.886719 244.238281 212.375 244.175781 212.832031 244.085938 C 227.078125 241.148438 235.332031 231.351562 241.402344 219.089844 C 242.753906 216.355469 243.9375 213.539062 245.183594 210.75 C 245.890625 209.15625 246.777344 207.59375 248.8125 208.421875 C 250.609375 209.152344 250.789062 210.867188 250.4375 212.617188 C 250.390625 212.84375 250.351562 213.082031 250.265625 213.296875 C 245.605469 225.261719 239.882812 236.464844 228.636719 243.734375 " fill-opacity="1" fill-rule="nonzero"/></g></g></g><g clip-path="url(#fffaedd49f)"><g clip-path="url(#124ed42085)"><g clip-path="url(#1023a0540c)"><path fill="#fac74e" d="M 248.414062 171.742188 C 247.355469 172.316406 245.988281 171.527344 245.074219 169.980469 C 242.921875 166.332031 240.375 163.007812 237.601562 159.804688 C 230.46875 151.574219 222.40625 144.578125 212.367188 140.09375 C 211.519531 139.714844 210.652344 139.3125 209.933594 138.746094 C 209.183594 138.152344 208.816406 137.25 209.042969 136.25 C 209.355469 134.890625 210.410156 134.398438 211.636719 134.347656 C 213.5625 134.269531 215.363281 134.898438 217.007812 135.800781 C 229.726562 142.769531 240.910156 151.441406 248.207031 164.332031 C 249.003906 165.738281 249.664062 167.261719 250.125 168.808594 C 250.378906 169.664062 250.042969 170.664062 248.414062 171.742188 " fill-opacity="1" fill-rule="nonzero"/></g></g></g><g clip-path="url(#a35b98f029)"><g clip-path="url(#17b72f3c58)"><g clip-path="url(#9f4dddcd35)"><path fill="#fac74e" d="M 184.496094 161.28125 C 185.390625 161.03125 186.71875 160.53125 188.09375 160.285156 C 195.742188 158.925781 203.128906 160.027344 210.222656 163.015625 C 215.742188 165.339844 219.117188 169.8125 221.59375 175.0625 C 222.390625 176.746094 222.371094 178.339844 220.503906 179.273438 C 218.976562 180.039062 217.816406 179.21875 216.894531 178.003906 C 216.609375 177.625 216.378906 177.210938 216.101562 176.832031 C 209.210938 167.316406 199.613281 165.058594 188.609375 166.589844 C 187.679688 166.722656 186.753906 166.933594 185.847656 167.1875 C 184.128906 167.671875 182.472656 167.78125 181.628906 165.859375 C 180.566406 163.445312 182.453125 162.53125 184.496094 161.28125 " fill-opacity="1" fill-rule="nonzero"/></g></g></g><g clip-path="url(#a692b922fd)"><g clip-path="url(#df66db01fb)"><g clip-path="url(#72447ef623)"><path fill="#fac74e" d="M 258.738281 187.722656 C 255.703125 187.535156 252.660156 187.445312 249.640625 187.117188 C 248.113281 186.949219 247.007812 185.863281 247.113281 184.25 C 247.195312 182.964844 248.308594 182.269531 249.519531 182.003906 C 250.433594 181.804688 251.382812 181.742188 252.320312 181.707031 C 264.082031 181.242188 275.847656 180.738281 287.613281 180.390625 C 290.289062 180.3125 294.335938 179.589844 294.539062 183.230469 C 294.773438 187.339844 290.578125 185.996094 288.011719 186.363281 C 285.226562 186.765625 282.347656 185.902344 279.613281 186.984375 C 272.632812 186.550781 265.683594 187.125 258.738281 187.722656 " fill-opacity="1" fill-rule="nonzero"/></g></g></g><g clip-path="url(#4f07987383)"><g clip-path="url(#3ee11f13bd)"><g clip-path="url(#8e16e37ee0)"><path fill="#fac74e" d="M 359.492188 182.394531 C 358.726562 182.511719 357.582031 182.796875 356.421875 182.84375 C 343.734375 183.390625 331.101562 185.191406 318.359375 184.417969 C 317.191406 184.347656 315.984375 184.394531 314.875 184.089844 C 313.992188 183.84375 313.273438 183.105469 313.21875 182.027344 C 313.164062 180.972656 313.671875 180.105469 314.585938 179.796875 C 315.894531 179.351562 317.304688 178.933594 318.667969 178.949219 C 331.390625 179.097656 344.039062 177.652344 356.738281 177.3125 C 357.441406 177.292969 358.160156 177.175781 358.847656 177.273438 C 360.042969 177.441406 361.179688 177.859375 361.386719 179.265625 C 361.574219 180.554688 360.972656 181.523438 359.492188 182.394531 " fill-opacity="1" fill-rule="nonzero"/></g></g></g><g clip-path="url(#1d0a31a607)"><g clip-path="url(#bfa278e8ff)"><g clip-path="url(#bfaa3908ea)"><path fill="#fac74e" d="M 75.59375 198.476562 C 77.183594 198.863281 78.800781 199.183594 80.363281 199.660156 C 81.652344 200.054688 82.210938 201.070312 81.929688 202.390625 C 81.660156 203.679688 80.832031 204.394531 79.453125 204.382812 C 78.046875 204.367188 76.640625 204.4375 75.234375 204.378906 C 63.78125 203.898438 52.328125 203.390625 40.875 202.910156 C 39.945312 202.871094 38.996094 203.09375 38.082031 202.980469 C 36.03125 202.722656 33.398438 202.710938 33.421875 199.902344 C 33.453125 196.496094 36.390625 197.671875 38.25 197.65625 C 47.164062 197.601562 56.082031 197.683594 65 197.71875 C 68.480469 198.695312 72.027344 198.699219 75.59375 198.476562 " fill-opacity="1" fill-rule="nonzero"/></g></g></g><g clip-path="url(#3866633965)"><g clip-path="url(#fbd61f68ed)"><g clip-path="url(#223846f5c7)"><path fill="#fac74e" d="M 65.769531 195.207031 C 63.917969 190.578125 64.003906 189.785156 67.664062 189.15625 C 79.03125 187.207031 90.453125 185.542969 101.847656 183.730469 C 103.691406 183.4375 105.25 183.714844 105.75 185.695312 C 106.265625 187.734375 104.863281 188.816406 103.160156 189.242188 C 100.65625 189.863281 98.089844 190.285156 95.535156 190.675781 C 88.789062 191.699219 81.984375 192.359375 75.417969 194.347656 C 72.203125 194.636719 68.984375 194.921875 65.769531 195.207031 " fill-opacity="1" fill-rule="nonzero"/></g></g></g><g clip-path="url(#1d883a2036)"><g clip-path="url(#175577250d)"><g clip-path="url(#5b200ff038)"><path fill="#fac74e" d="M 127.992188 208.4375 C 130.992188 205.71875 133.457031 206.949219 134.652344 210.03125 C 138.550781 220.101562 145.207031 228.226562 152.222656 236.152344 C 152.835938 236.847656 153.289062 237.699219 153.75 238.515625 C 154.371094 239.613281 154.527344 240.769531 153.566406 241.742188 C 152.632812 242.6875 151.390625 242.726562 150.3125 242.175781 C 148.199219 241.09375 146.671875 239.335938 145.074219 237.582031 C 137.714844 229.5 132.777344 219.898438 127.65625 210.398438 C 127.765625 209.742188 127.878906 209.089844 127.992188 208.4375 " fill-opacity="1" fill-rule="nonzero"/></g></g></g><g clip-path="url(#eeee5a1ba0)"><g clip-path="url(#fe19c6e808)"><g clip-path="url(#f67445d23d)"><path fill="#fac74e" d="M 123.738281 207.132812 C 121.945312 207.988281 120.089844 207.695312 118.226562 207.46875 C 110.339844 206.507812 102.449219 205.5625 94.554688 204.632812 C 92.714844 204.417969 91.367188 203.566406 91.300781 201.632812 C 91.226562 199.582031 92.832031 198.625 94.511719 198.65625 C 103.851562 198.820312 113.171875 199.351562 122.226562 201.886719 C 123.253906 202.175781 124.046875 203.296875 124.953125 204.035156 C 124.546875 205.070312 124.144531 206.101562 123.738281 207.132812 " fill-opacity="1" fill-rule="nonzero"/></g></g></g><g clip-path="url(#fe36767615)"><g clip-path="url(#7f8e35bfa3)"><g clip-path="url(#7e6b131276)"><path fill="#fac74e" d="M 229.894531 257.386719 C 224.082031 260.585938 217.203125 261.144531 210.871094 263.398438 C 209.886719 263.746094 208.539062 263.363281 207.445312 263.03125 C 205.738281 262.511719 205.242188 261.4375 206.652344 260.003906 C 208.34375 258.28125 210.625 257.507812 212.765625 256.679688 C 217.90625 254.6875 223.152344 252.980469 228.367188 251.179688 C 229.023438 250.953125 229.71875 250.792969 230.40625 250.691406 C 231.875 250.476562 233.292969 250.609375 233.871094 252.238281 C 234.414062 253.75 233.710938 254.957031 232.480469 255.835938 C 231.722656 256.378906 230.882812 256.800781 229.894531 257.386719 " fill-opacity="1" fill-rule="nonzero"/></g></g></g><g clip-path="url(#e71bd70e4c)"><g clip-path="url(#2e4548def2)"><g clip-path="url(#3f03a1cc97)"><path fill="#fac74e" d="M 122.132812 226.230469 C 121.695312 224.292969 118.074219 222.257812 121.632812 219.925781 C 124.839844 217.820312 126.167969 220.742188 127.601562 222.820312 C 130.382812 226.863281 132.898438 231.09375 136.46875 234.554688 C 137.285156 235.34375 137.796875 236.484375 138.320312 237.523438 C 138.90625 238.6875 138.632812 239.976562 137.792969 240.769531 C 136.566406 241.929688 134.972656 241.464844 133.992188 240.433594 C 129.796875 236.023438 125.8125 231.433594 122.132812 226.230469 " fill-opacity="1" fill-rule="nonzero"/></g></g></g><g clip-path="url(#7d117eb3b6)"><g clip-path="url(#162a667d77)"><g clip-path="url(#bfc6d803b7)"><path fill="#f05d85" d="M 172.542969 207.171875 C 171.6875 211.332031 172.3125 214.566406 172.703125 217.792969 C 174.414062 231.832031 177.503906 245.585938 181.292969 259.199219 C 181.925781 261.464844 184.15625 264.636719 180.335938 265.679688 C 177.34375 266.5 176.882812 263.136719 176.210938 260.988281 C 171.132812 244.769531 167.703125 228.21875 166.671875 211.226562 C 166.496094 208.347656 165.191406 205.054688 169.40625 203.492188 C 171.214844 202.820312 169.71875 201.050781 169.722656 199.808594 C 169.730469 198.085938 169.632812 196.285156 171.652344 195.800781 C 173.566406 195.339844 174.667969 196.671875 175.304688 198.351562 C 177.972656 205.347656 183.496094 209.023438 190.28125 211.1875 C 199.6875 214.1875 206.753906 211.707031 212.273438 203.484375 C 213.058594 202.320312 213.644531 201.019531 214.308594 199.777344 C 215.160156 198.183594 216.378906 196.910156 218.226562 197.828125 C 219.914062 198.664062 220.195312 200.46875 219.542969 202.148438 C 216.507812 209.953125 211.847656 216.28125 203.148438 218.148438 C 192.667969 220.390625 183.6875 216.957031 175.78125 210.144531 C 174.894531 209.378906 174.058594 208.566406 172.542969 207.171875 " fill-opacity="1" fill-rule="nonzero"/></g></g></g><g clip-path="url(#bfb73f59dc)"><g clip-path="url(#d93a4471e2)"><g clip-path="url(#65ffdcdf1f)"><path fill="#f05d85" d="M 174.785156 172.269531 C 169.367188 169.992188 170.378906 175.351562 168.816406 177.964844 C 168.046875 179.253906 166.964844 180.1875 165.363281 179.582031 C 163.789062 178.988281 163.371094 177.558594 163.746094 176.097656 C 166.683594 164.671875 167.703125 152.949219 169.21875 141.300781 C 169.25 141.070312 169.265625 140.804688 169.382812 140.621094 C 177.097656 128.722656 174.59375 114.367188 178.738281 101.609375 C 179.242188 100.058594 179.300781 98.363281 179.828125 96.824219 C 180.339844 95.34375 181.605469 94.558594 183.179688 95.015625 C 184.410156 95.371094 185.03125 96.488281 184.917969 97.753906 C 184.640625 100.792969 184.410156 103.851562 183.867188 106.851562 C 180.199219 126.988281 177.464844 147.230469 176.871094 167.722656 C 176.78125 170.820312 176.511719 171.300781 174.785156 172.269531 " fill-opacity="1" fill-rule="nonzero"/></g></g></g><g clip-path="url(#df56ea6670)"><g clip-path="url(#a0d126c3bd)"><g clip-path="url(#7dac106072)"><path fill="#f05d85" d="M 216.085938 186.488281 C 212.738281 180.074219 207.878906 175.765625 201.6875 172.945312 C 196.667969 170.664062 191.664062 170.609375 186.769531 173.421875 C 185.265625 174.289062 183.578125 174.894531 182.359375 173.148438 C 180.898438 171.058594 182.296875 169.632812 183.933594 168.480469 C 187.984375 165.625 192.597656 164.511719 197.375 165.371094 C 208.851562 167.429688 217.128906 173.78125 221.726562 184.640625 C 222.09375 185.503906 222.3125 186.433594 222.53125 187.351562 C 222.9375 189.074219 222.871094 190.832031 221.042969 191.589844 C 219.125 192.382812 217.988281 191.074219 217.269531 189.429688 C 216.792969 188.355469 216.386719 187.246094 216.085938 186.488281 " fill-opacity="1" fill-rule="nonzero"/></g></g></g><g clip-path="url(#7380045f91)"><g clip-path="url(#b4d9864c26)"><g clip-path="url(#25049e8cba)"><path fill="#f05d85" d="M 197.757812 232.867188 C 197.921875 233.632812 198.257812 234.757812 198.402344 235.914062 C 199.824219 247.226562 199.425781 258.40625 195.785156 269.324219 C 195.042969 271.558594 194.125 273.710938 192.636719 275.585938 C 190.835938 277.851562 188.503906 278.683594 185.765625 277.957031 C 183.722656 277.410156 181.269531 276.613281 181.457031 274.046875 C 181.644531 271.515625 183.832031 271.707031 185.824219 272.109375 C 188.855469 272.714844 189.203125 270.191406 189.890625 268.316406 C 193.109375 259.550781 193.535156 250.433594 193.097656 241.230469 C 192.976562 238.652344 192.644531 236.085938 192.550781 233.511719 C 192.503906 232.230469 193.265625 231.265625 194.570312 231.011719 C 195.882812 230.757812 196.769531 231.546875 197.757812 232.867188 " fill-opacity="1" fill-rule="nonzero"/></g></g></g><g clip-path="url(#5eb75fcaed)"><g clip-path="url(#d58ae41c09)"><g clip-path="url(#cf98ade430)"><path fill="#f05d85" d="M 192.402344 109.25 C 194.722656 112.949219 195.386719 115.972656 196.144531 118.921875 C 198.808594 129.269531 199.375 139.835938 199.1875 150.46875 C 199.164062 151.886719 199.238281 153.332031 198.386719 154.550781 C 197.832031 155.339844 196.984375 155.886719 195.984375 155.773438 C 195.007812 155.660156 194.160156 155.082031 193.976562 154.074219 C 193.726562 152.699219 193.585938 151.289062 193.558594 149.894531 C 193.300781 136.929688 193.191406 123.953125 187.855469 111.742188 C 187.265625 110.394531 187.148438 108.835938 188.699219 108.035156 C 191.0625 106.820312 192.042969 108.699219 192.402344 109.25 " fill-opacity="1" fill-rule="nonzero"/></g></g></g><g clip-path="url(#068e6b2172)"><g clip-path="url(#5ab9681e46)"><g clip-path="url(#a565d4dc8c)"><path fill="#f05d85" d="M 156.273438 184.539062 C 157.335938 183.910156 158.675781 182.992188 160.121094 182.300781 C 161.292969 181.746094 162.472656 182.183594 163.148438 183.234375 C 163.867188 184.347656 163.378906 185.457031 162.523438 186.335938 C 160.546875 188.367188 158.171875 189.757812 155.433594 190.46875 C 153.769531 190.902344 152.035156 190.945312 151.402344 188.984375 C 150.898438 187.421875 152.046875 186.421875 153.375 185.773438 C 154.203125 185.371094 155.070312 185.046875 156.273438 184.539062 " fill-opacity="1" fill-rule="nonzero"/></g></g></g></svg>